<?xml version="1.0" standalone="no"?>
<!DOCTYPE svg PUBLIC "-//W3C//DTD SVG 1.1//EN" "http://www.w3.org/Graphics/SVG/1.1/DTD/svg11.dtd" >
<svg xmlns="http://www.w3.org/2000/svg" xmlns:xlink="http://www.w3.org/1999/xlink" version="1.1">
<metadata></metadata>
<defs>
<font id="lemon_tuesdayregular" horiz-adv-x="1157" >
<font-face units-per-em="2048" ascent="1638" descent="-410" />
<missing-glyph horiz-adv-x="552" />
<glyph unicode="ee" horiz-adv-x="1499" d="M967 1051q20 0 34.5 -3.5t26.5 -3.5q20 10 37 11q29 0 61.5 -13.5t60 -36t46 -55t18.5 -71.5q0 -57 -32.5 -101.5t-69.5 -68.5q-41 -37 -82 -71t-61 -87q0 -23 1 -50.5t1 -56.5v-27.5t-2 -25.5q0 -12 11 -42t32.5 -59.5t49 -52t62.5 -22.5q37 0 63.5 25.5t48 60.5t39 73 t36.5 62q10 16 19 22.5t19 16.5q6 23 15.5 49.5t21 52t26.5 47t34 31.5q6 6 8 14.5t6 14.5q14 31 32.5 73t39 82t43 72.5t47.5 42.5q10 0 20.5 -4t20.5 -8q6 -8 -1 -21.5t-20.5 -31t-28 -35.5t-22.5 -37q-4 -10 -8 -28.5t-9 -37t-11.5 -31.5t-14.5 -13q-6 0 -10 2l-6 -13 v-14q0 -16 -8.5 -32.5t-17.5 -30l-17 -25.5t-8 -23q-14 -43 -35 -90t-21 -94q0 -25 2 -47.5t2 -44.5q-12 4 -17 10t-15 10q-20 -16 -22.5 -36.5t-4.5 -39t-12.5 -31.5t-46.5 -13q0 -6 4 -15.5t4 -13.5q-29 -23 -59.5 -48.5t-53.5 -25.5q-10 0 -17 1t-16 1q-10 0 -24.5 -4 t-30.5 -4q-45 0 -100.5 10t-96.5 33q-10 6 -14 17.5t-8 21.5t-12.5 18.5t-26.5 8.5q-6 0 -6 4v6q-4 25 -18.5 41t-30 32.5t-27.5 35t-14 46.5q-20 -39 -34.5 -66.5t-31.5 -57.5q-10 -31 -16 -58.5t-19 -56.5h-28q0 -72 -36 -105.5t-134 -33.5q-37 0 -78 8t-80 26.5t-70.5 46 t-48.5 66.5q20 0 34.5 1t31.5 1q-8 6 -9 10t-6 4q-49 4 -74.5 31t-35.5 74q-12 10 -17.5 22.5t-7.5 24.5t-3 24.5t-7 22.5q-8 29 -13 60.5t-9 66.5q4 4 17 10t36 23h-60q4 35 7.5 79t11.5 87q8 47 18.5 86t22.5 74.5t29.5 69.5t41.5 71q4 0 9.5 5t13.5 5q35 10 74 20.5 t80 10.5q76 0 133 -41t57 -121q0 -41 -19.5 -86t-51 -86t-71.5 -75t-83 -54q-27 -14 -46.5 -35.5t-19.5 -44.5q0 -10 3 -21.5t3 -21.5q0 -18 -14 -35q6 -23 6 -46t2 -46t11.5 -44.5t33.5 -37.5q20 -20 37 -48t45 -40q16 -12 28.5 -19.5t31.5 -17.5q12 25 25.5 54.5t28.5 58 t33.5 53.5t43.5 41q18 23 30.5 42t23.5 39.5t24.5 40t35.5 42.5q23 27 36.5 53.5t13.5 61.5q0 14 -3.5 30.5t-3.5 32.5q0 33 8.5 65.5t12.5 71.5q0 20 14.5 43t14.5 35q-2 6 -3 16q0 18 15.5 41t37 46.5t44.5 46t39 45.5zM319 631q37 12 70 33.5t57.5 51t39 65.5t14.5 75 q0 29 -12.5 58.5t-38.5 29.5q-10 0 -24.5 -13t-30 -32.5t-29 -41t-19.5 -36.5q-14 -35 -23.5 -68.5t-7.5 -72.5q0 -12 1 -24.5t3 -24.5zM1018 719q10 -4 12 -10q45 29 80 78t35 96q0 33 -14.5 51t-30.5 18q-18 0 -24.5 -12t-22.5 -45q-27 -39 -27 -85t-8 -91zM217 254 q6 12 6 20q0 10 -8 18.5t-18 16.5q-2 -4 -7 -6q-8 -4 -12 -4q10 -14 17.5 -20.5t21.5 -24.5zM256 379q-8 18 -15.5 27.5t-23.5 23.5q-4 -4 -9 -10t-15 -17q34 -8 63 -24zM883 315q-2 -4 -4 -5t-7 -5q-4 -4 -8 -6q4 -4 6 -9t11 -5q0 2 2 2t4 2t4 6q0 4 -4 10t-4 10zM256 315 q0 -4 1 -6t7 -10q4 8 10.5 10t16.5 6l-2 2q-4 4 -8 5z" />
<glyph unicode="jj" horiz-adv-x="1517" d="M-186 -1137q-12 4 -21.5 10.5t-9.5 16.5q0 12 12 46t29 60q0 4 -4 12.5t-4 18.5q0 16 32 23q-4 10 -9 15t-7 9q8 0 14.5 4t16.5 4q-10 10 -16.5 19.5t-12.5 19.5q10 14 28.5 32t18.5 28q-6 12 -6 20q0 6 6 23.5t16.5 37t23.5 39t26 27.5q14 8 19 28.5t9.5 41t11.5 36 t25 15.5h4q16 0 17 19q0 2 -4 14q0 10 3 24.5t7 27.5t10 22.5t12 9.5q4 0 10.5 -7.5t10.5 -7.5q6 0 6 15q0 16 10.5 19t16.5 9q2 10 3 19.5t4 19t11 17.5t27 14q-4 10 -5 19.5t-1 19.5q10 4 19 6t20 6q0 23 11 37.5t42 14.5q4 0 5 -1.5t5 -1.5q16 0 23.5 16.5t11.5 37.5 q2 23 0 53q6 -2 14 -2q12 0 20.5 7t15.5 16.5t16.5 18.5t23.5 13q-12 31 -12 56q0 45 43 79q-23 27 -23 43q0 14 10.5 32t10.5 40q0 20 -7.5 30.5t-7.5 24.5q0 8 1 14.5t1 12.5q0 8 -4 20l10 11q4 4 7.5 9t7.5 9q-10 14 -15.5 24.5t-15.5 20.5q14 23 20.5 36t6.5 38 q0 10 -2 14q-23 47 -31 96.5t-8 96.5q0 12 -1 22.5t-5 24.5q-16 -16 -35 -36.5t-23 -20.5q-41 -10 -52 -41t-24 -56q-53 -86 -100 -178t-63 -170q-16 -49 -39 -49q-6 0 -30 6t-36 23q6 49 26.5 98t48.5 96t59.5 92t60.5 86q14 27 35.5 50.5t50.5 42.5q8 4 15 23.5t22 33.5 q31 29 51 65.5t47 71.5q55 0 80.5 -28.5t33 -71.5t4.5 -94.5t-3 -96.5q0 -20 -12.5 -31.5t-12.5 -23.5q0 -14 13.5 -24.5t13.5 -34.5q0 -12 -1 -25.5t-1 -28.5l-9.5 9.5t-11.5 9.5q-14 -14 -22.5 -21.5t-26.5 -17.5q10 -4 15 -12.5t10 -10.5q6 0 7 1t5 1q0 10 -2 20.5 t-2 20.5q10 -10 22.5 -20t28.5 -23q-10 -31 -21.5 -60.5t-62.5 -41.5q25 -6 47 -6q57 0 94 41q16 -14 31.5 -28.5t32.5 -29.5q-8 -18 -17.5 -42.5t-21.5 -49.5q-12 16 -22.5 23.5t-20.5 15.5q-12 -29 -17.5 -58.5t-9.5 -59t-9 -55t-17 -46.5q-18 -29 -39 -57.5t-45 -57.5 q16 0 29.5 3t29.5 3q-16 -25 -26.5 -49t-26.5 -55h65q-4 -10 -12 -12t-16.5 -5t-15.5 -8.5t-7 -19.5v-6q-23 -6 -37 -14.5t-35 -12.5q0 14 -1 25.5t-1 21.5q0 33 11.5 70t11.5 57q0 27 -25 58q-8 -12 -10 -21.5t-5 -15.5t-10 -9.5t-22 -3.5q4 -20 4 -28q0 -39 -25.5 -59.5 t-54.5 -43.5q10 -16 11 -30l-8 -18q-7 -19 -17 -42.5t-21.5 -43t-19.5 -19.5q10 43 23 90q-16 0 -29.5 3t-24.5 3q10 -25 18.5 -47.5t12.5 -44.5q-4 6 -12 11t-19 11q-16 -16 -16 -38q0 -16 5 -33t5 -33q-16 4 -31.5 5t-33.5 7q10 -16 20 -28.5t10 -22.5q0 -16 -8 -28.5 t-17 -24.5t-16.5 -25.5t-7.5 -29.5q0 -43 -24 -43q-14 0 -41 14l-2 -2q-2 0 -2 -2t4 -2q14 -27 14 -49q0 -16 -6 -33t-16 -33q-8 -14 -15.5 -37.5t-11.5 -46t-7 -42t-3 -26.5q-23 -10 -42.5 -11t-19.5 -21q0 -8 2 -17.5t2 -19.5q-12 -49 -57 -57q-14 -1 -18 -7zM506 164 q-8 4 -10 9t-7 9q0 -4 -7 -6t-7 -8q0 -4 4 -9t4 -12q4 6 9.5 8.5t13.5 8.5zM-92 -963q6 -20 10 -23t23 -3q-10 10 -16.5 16t-16.5 10zM1153 129q0 35 4 66.5t33 50.5q-6 20 -14.5 38.5t-8.5 39.5q4 16 18.5 28.5t14.5 34.5q0 8 -2 14q-6 -10 -15 -20t-16 -25q-12 8 -15 40 t-3 69t1 66.5t1 31.5q-12 16 -17.5 35.5t-6.5 38t-3 38t-8 36.5q0 10 7 19t12 22q-27 16 -50 22q0 -4 -4 -12t-8 -17q-10 23 -26.5 39.5t-16.5 38.5q0 25 7 39.5t16.5 28.5t16.5 28.5t7 38.5q4 41 27.5 59.5t52.5 18.5q33 0 46.5 -15t19.5 -39t9 -51.5t15 -49.5v-11 q0 -14 -5 -24t-5 -23q0 -12 4 -26.5t4 -28.5q0 -29 -4 -59.5t-4 -59.5q0 -18 14.5 -27.5t14.5 -35.5q0 -12 -5.5 -34t-13.5 -46q-10 -10 -23.5 -18.5t-25.5 -18.5q10 -23 25 -23q12 0 23 7.5t22 7.5h4q0 -16 -3 -31.5t-3 -36.5q-12 8 -19 8q-14 0 -20 -26q14 0 26.5 2 t12.5 24q27 -25 26 -41q0 -16 -16 -29.5t-49 -17.5q12 -18 26 -18q10 0 17.5 5t13.5 5q10 -16 20.5 -28.5t20.5 -34.5q10 23 14 39t9 34q10 -2 21 -11t26 -19q2 12 8 29.5l12 35t13.5 29.5t13.5 12q12 0 21.5 -10t19.5 -10q6 0 14 8q-10 16 -15 22.5t-12 6.5q-10 0 -30 -19 q10 29 30.5 46.5t55.5 17.5q8 0 24.5 -7.5t16.5 -21.5q0 -8 -17 -23q0 10 -5 19.5t-9 25.5q-20 -18 -20 -28t8 -16.5t12 -12.5q-10 -12 -20.5 -29.5t-28.5 -17.5q-6 0 -8 2q-6 0 -25.5 -27.5t-44.5 -66.5t-49.5 -81t-42.5 -73q-4 -10 -4 -23.5t-4 -25.5t-14.5 -20.5 t-34.5 -8.5q-10 -18 -16.5 -33.5t-16.5 -37.5q-23 27 -36 43t-24 37q-12 -16 -24.5 -30.5t-26.5 -37.5q-27 27 -26 43q0 10 19 32.5t44 43.5q10 -20 25 -21q16 0 28.5 15.5t12.5 27.5q0 18 -29 64q-23 -12 -37 -35zM1239 588q-10 -8 -20.5 -10.5t-19.5 -4.5t-17 -6t-15 -16 q16 -4 26.5 -6t33.5 -6q0 10 4 20.5t8 28.5zM1104 791q0 -8 3 -10.5t3 -6.5q10 4 15 11.5t10 11.5v2q0 2 -5 10q-6 -6 -14 -10t-12 -8zM1221 227q-10 -4 -16.5 -10t-10.5 -6q4 -4 4 -6v-4q14 8 29 20zM612 -1004q-4 4 -10 6.5t-10 8.5q0 -6 -2 -8t-2 -7q2 -18 6 -37.5 t4 -41.5q0 -14 -4 -29.5t-4 -32.5q0 -23 4 -46t4 -50h-49q0 27 -5 31t-28 16q0 18 9.5 44t9.5 38q0 10 -8.5 17.5t-30.5 21.5q10 14 19 27.5t9 27.5q0 18 -14 35q-10 -45 -35 -45q6 18 15.5 41.5t17.5 47.5t14 44.5t6 34.5q10 53 64 65q-4 20 -8 31.5t-9 26.5q0 8 5.5 9 t11.5 3t11 6t5 17q-4 12 -4 22q0 43 15.5 67.5t35 41t35 28t15.5 27.5q0 14 -15 39q39 14 66.5 39.5t50.5 50.5q0 10 -1 20.5t-1 20.5q0 12 6 20.5t14.5 13.5t14.5 10t6 11q0 12 5 17.5t11 7.5t12.5 3t8.5 7q-4 12 -5 26.5t-8 30.5l9 6q6 -23 22.5 -40t16.5 -39 q0 -18 -27 -43q-8 4 -12 12q-12 0 -17.5 -14.5t-5.5 -24.5t4 -21.5t4 -21.5q0 -31 -11 -54.5t-26.5 -45t-32 -43t-24.5 -47.5q-10 -29 -18.5 -58t-16.5 -53q-10 -4 -22.5 -5t-22.5 -7q2 -6 2 -13.5v-11.5q0 -23 -9 -46.5t-21.5 -50t-21.5 -56t-9 -62.5q0 -10 -4 -15 t-8.5 -7.5t-8.5 -3.5t-4 -7t4 -13t4 -13q0 -2 -1 -3.5t-1 -3.5zM786 -438q0 -16 3.5 -26.5t3.5 -16.5q20 12 20 20q0 15 -27 23zM778 469q6 -16 17 -16q18 0 22 22.5t6 49t8.5 49t28.5 22.5q8 0 15.5 7t7.5 18q8 20 25.5 52t37 62.5t35.5 52t20 21.5q4 -8 9.5 -16.5 t5.5 -18.5t-7.5 -16t-7.5 -23q-4 -18 -7 -40.5t-13 -39.5q-6 -18 -25.5 -25t-40.5 -22q14 -8 24.5 -23.5t10.5 -31.5t-7 -23.5t-20.5 -11.5t-32 -8t-38.5 -10q14 -12 24.5 -17.5t26.5 -13.5q-10 -6 -16 -15.5t-17 -19.5q-4 14 -5 21.5t-5 13.5q-16 -6 -26.5 -15.5 t-20.5 -19.5t-24.5 -15t-26.5 -11q-4 -2 -6 -7.5t-3 -11.5t-2 -10t-8 -4q-8 0 -14 4q-4 -27 -12 -52.5t-19 -60.5q-16 18 -27.5 37t-25.5 41q35 0 52.5 19.5t26.5 42t17.5 42t26.5 19.5q8 0 10 2zM1161 -731q-8 6 -19.5 14t-25.5 19q23 29 40.5 53t33.5 45q0 29 1 51.5 t1 44.5q0 20 -7 37.5t-32 28.5q12 29 15 36t14 3q6 -10 6 -24.5t20 -14.5q12 0 19.5 8t11.5 18.5t6 21.5t2 15q10 0 24.5 -4t31.5 -8q-23 -16 -38.5 -32.5t-15.5 -39.5q0 -20 12.5 -24t30.5 -15v-6h-32q-25 -35 -33 -74.5t-33 -74.5q-4 -8 -4 -13q0 -12 13.5 -22t29.5 -23 q-14 -10 -26.5 -17t-24.5 -22q10 0 16 -4t23 -8q-23 -14 -48.5 -28.5t-42.5 -24.5q-8 0 -10 2l-4 4q10 23 21.5 39t23.5 39zM1751 567q-10 -4 -21.5 -8t-15.5 -8q-4 -20 -18.5 -39.5t-32.5 -36t-36.5 -27t-31.5 -10.5q16 14 22.5 28.5t6.5 31.5q0 12 -2 24.5t-2 26.5 q0 43 30.5 84t67.5 41q35 0 39 -24.5t4 -53.5q0 -15 -10 -29zM-186 -1137q4 6 18 7q14 -27 14 -54q0 -18 -3 -35.5t-3 -33.5q0 -25 4 -57.5t13 -61.5q2 -10 12 -18.5t21.5 -16.5t18.5 -15.5t7 -15.5q0 -6 -6 -15t-16 -9t-19.5 13t-24.5 13q-8 0 -16 -6q-8 18 -14 37t-17 43 q-4 0 -13 -1t-21 -9q4 37 11 61.5t7 57.5q0 16 -6 30.5t-27 28.5h64q0 18 -2 32.5t-2 24.5zM973 -1292q8 14 24.5 29.5t31.5 29.5t26.5 27.5t11.5 25.5q0 6 -2 12.5t-2 12.5t3 13t7 12q14 8 18.5 22t6.5 30.5t5 33t13 30.5q0 6 -4 11.5t-4 11.5q0 31 9 47t24.5 24.5t36 12.5 t43.5 10q-12 -16 -28.5 -28.5t-30 -25t-23 -28.5t-9.5 -37q0 -8 5 -24q14 4 25 13t22 13h4q4 0 4 -6l-33 -33t-16 -18t-9.5 -19.5t-9.5 -33.5q-10 -25 -19 -54.5t-24.5 -55.5t-40 -42t-65.5 -16zM1044 -143q-4 0 -10 -2t-20 -2q10 -4 15 -9.5t11 -9.5q-16 -25 -29.5 -46 t-23.5 -44q-16 8 -26.5 13t-32.5 10q10 35 16 61.5t6 87.5q16 -14 29.5 -28.5t34.5 -30.5q10 39 16 59.5t11.5 32.5t12.5 20t19 19q-6 -35 -12.5 -65.5t-16.5 -65.5zM1317 -53q4 -16 4 -19q0 -12 -11.5 -25.5t-24.5 -25.5t-24.5 -22.5t-11.5 -18.5t9.5 -18.5t25.5 -28.5 q-16 0 -28.5 -14.5t-28.5 -14.5q-12 0 -19.5 18.5t-10.5 40t-3 39.5v19q16 35 50 49.5t73 20.5zM426 963q4 29 8 53t41 24q16 0 28.5 -5t12.5 -19q0 -35 -14.5 -61.5t-32.5 -26.5q-14 0 -23.5 15.5t-19.5 19.5zM1151 1223q29 14 43 14q16 0 31.5 -9t15.5 -40 q0 -16 -10 -29.5t-37 -32.5q-16 8 -24.5 14.5t-12.5 15.5t-5 24.5t-1 42.5zM373 -438q8 -8 19 -9.5t22.5 -3.5t18.5 -10t7 -31q-31 8 -57.5 11.5t-54.5 7.5q12 12 28.5 29.5t31.5 33t29.5 26.5t22.5 11q4 0 10.5 -1t12.5 -1q-10 -8 -18.5 -19.5t-16.5 -20.5t-18.5 -16 t-26.5 -7h-10zM418 -522q0 -66 -18.5 -85.5t-59.5 -23.5q-2 6 -2 17q0 18 8 29.5t20.5 20.5t27 18.5t24.5 23.5zM207 -1028q20 6 38.5 16.5t45.5 14.5q-16 6 -23.5 8t-17.5 6q16 16 24.5 22.5t20.5 6.5q10 0 21.5 -2t29.5 -7q-16 -8 -28.5 -20t-23.5 -24.5t-24.5 -20.5 t-29.5 -8q-17 0 -33 8zM412 -639q-23 -23 -39.5 -35t-16.5 -37v-2q0 -4 -11 -13t-21 -17q-6 31 -7 49q0 31 20 41t75 14zM1167 -315q20 4 36 5t30 7q0 -16 -7 -25.5t-18.5 -15.5t-24 -14.5t-22.5 -22.5q4 25 5 40.5t1 25.5zM270 -840q18 18 35 33.5t35 30.5q-2 -41 -8 -54.5 t-27 -13.5q-8 0 -16.5 1t-18.5 3zM1550 446q-8 6 -24 7q4 20 11 38.5t32 32.5q8 -20 8 -30q0 -28 -27 -48zM264 -1087q-18 -12 -37 -13q-25 0 -49 33q2 0 4 -1t4 -1q12 0 23.5 4t21.5 4q23 1 33 -26zM188 -1260q-10 -16 -24 -24t-14 -23q0 -12 10 -24q-4 -4 -12.5 -9.5 t-18.5 -9.5q0 4 -5 9.5t-5 7.5q0 14 18.5 39.5t22.5 33.5h28zM973 -1292q6 -18 6 -33q0 -18 -12.5 -30.5t-42.5 -22.5q14 23 28.5 45.5t20.5 40.5zM1053 733q-10 -16 -19.5 -30.5t-19.5 -30.5q0 10 -1 18t-1 19q0 25 20 26zM1311 -311q-12 -29 -18.5 -39t-14.5 -10 q-10 0 -25 12q14 10 26 18.5t32 18.5zM1292 -246q-6 -8 -10 -18t-10 -21q-4 0 -6 3t-6 3q4 10 8 19.5t4 19.5q8 -6 20 -6zM223 -1169q-10 -6 -17 -11.5t-18 -11.5q-2 6 -2 16q0 14 13 15q14 0 24 -8zM1153 78q-16 10 -16 24t16 33v-57zM207 -1208q0 -4 -3 -13.5t-3 -19.5 q-8 6 -13 6q0 4 2.5 14.5t2.5 20.5q6 0 8 -4t6 -4zM645 -1313l6 -15l6 -15q-12 0 -19 4t-7 22zM346 -891q-4 0 -10 -1t-10 -1h-8.5t-4.5 2q0 4 7.5 8t17.5 4l4 -4q4 -4 4 -8zM778 465q0 4 -1 7t-1 7q0 20 17 37q10 -14 10 -20q0 -10 -8.5 -15.5t-16.5 -15.5zM786 330 q-6 -4 -8 -7.5t-3 -5.5t-3 -3t-10 -1q6 8 8 13.5t6 9.5q2 0 10 -6zM631 285q0 -6 -1 -15.5t-9 -11.5v17.5t10 9.5z" />
<glyph unicode="se" horiz-adv-x="1327" d="M662 -47q-12 -14 -23.5 -24.5t-22.5 -20.5l13 -10q12 4 25.5 12t31.5 18q-10 -16 -15 -25t-11.5 -14.5t-16.5 -8.5t-27 -5q4 -16 13.5 -21.5t21.5 -5.5q8 0 15.5 1t15.5 1q14 0 27 -6q-16 -35 -22.5 -68.5t-35.5 -54.5q-59 8 -98 19q-6 -6 -6 -12q10 0 19 -4.5t20 -10.5 q-10 -4 -19.5 -12t-25.5 -18q23 -4 37 -9.5t34 -5.5q-10 -8 -20 -14t-27 -8q0 -10 1 -21.5t1 -21.5q0 -14 -7 -22.5t-15 -14.5t-15.5 -11.5t-7.5 -13.5q-29 -55 -67 -55q-29 0 -64 35q4 10 14.5 15t18.5 9q-12 14 -21 15q-10 0 -19 -9.5t-26 -9.5q-39 39 -65.5 69t-44 57.5 t-24.5 55t-7 62.5q0 41 12.5 88t34.5 102q20 29 35.5 68t30 79t30 75.5t37.5 60.5q25 20 37 43t21.5 46.5t19.5 45t31 39.5q14 20 14 35q0 27 -23.5 44t-45.5 17q-23 0 -43.5 -12t-42.5 -12q-66 0 -132.5 28.5t-105.5 88.5q-16 23 -24.5 52t-14.5 56t-12 47.5t-15 24.5 q10 53 14.5 103t26.5 85q4 14 19.5 19.5t30.5 13.5q-18 20 -19 43q0 12 18.5 40t48 60.5t63.5 62t65 46.5q27 14 55.5 24.5t56.5 10.5q23 0 60 -11.5t71.5 -31t60 -46t25.5 -55.5q0 -23 -9 -50.5t-21.5 -57t-21.5 -56t-9 -47.5q0 -23 3 -43t3 -41q0 -6 -1 -12t-1 -12 q-59 4 -89 41t-30 96q0 16 2 33.5t2 34.5q0 27 -2 54.5t-2 55.5q-72 -41 -136 -101.5t-91 -129.5q-14 -37 -35.5 -81t-21.5 -79q8 -37 10 -66.5t8 -51t21.5 -33t52.5 -11.5q29 0 58.5 7.5t64.5 7.5q37 0 71.5 -6.5t69.5 -24.5q10 -2 18.5 -4t18.5 -2q12 0 22 6 q25 16 53.5 28.5t57.5 12.5q27 0 55 -12q6 0 22.5 18t34 42t31 43t13.5 21q0 8 -8.5 17.5t-8.5 19.5q0 14 8 23q14 33 40 65.5t57.5 59t69.5 44t75 17.5q35 0 64.5 -13t62.5 -30q16 -10 30.5 -27.5t25 -38t16.5 -42t6 -35.5q0 -23 -15.5 -55.5t-38 -70.5t-49 -76t-51.5 -68 q-61 -78 -164 -82q-16 -37 -16 -82q0 -59 25.5 -124t66.5 -100q25 16 42.5 41t31.5 43q25 45 52.5 84t51.5 86q8 12 25.5 21.5t17.5 34.5v8q20 0 32.5 16.5t26 35t32 34.5t51.5 16q25 0 49 -15t24 -38q0 -12 -10 -20.5t-22.5 -18.5t-22.5 -24.5t-10 -36.5q-10 4 -16.5 6 t-12.5 2q-8 0 -19.5 -3t-11.5 -11q0 -4 5.5 -11.5t5.5 -15.5q0 -14 -11 -25q-18 -29 -23 -61.5t-15 -67.5q-4 6 -9.5 13.5t-15.5 17.5q-4 -20 -7 -35.5t-3 -36.5q0 -12 2 -31.5t2 -39.5q-20 0 -31.5 -3t-28.5 -3q0 -100 -108 -111q-14 0 -29.5 -4t-32.5 -4q-14 0 -19 10 t-8 22.5t-6 22.5t-14 10q-10 0 -19 -9t-15 -9q-16 0 -36 21.5t-20 37.5q0 10 3 20.5t14 24.5q-16 0 -32.5 -7t-29.5 -7q-8 0 -10 5t-3 11.5t-3 14.5t-8 14q-8 16 -19.5 26.5t-15.5 14.5q-10 33 -26.5 60.5t-16.5 58.5q0 10 4 18t4 17q0 18 -10 30.5t-27 22.5q12 27 12 47 q0 18 -12 37q-45 -20 -61.5 -43t-16.5 -66q4 -41 5 -80t1 -84q0 -8 -6 -25.5t-10 -33.5q-8 -2 -22.5 -4t-12.5 -14q14 -4 32.5 -9.5t37.5 -15.5q-12 -16 -29.5 -19.5t-36 -4.5t-37 -4t-32.5 -17q0 4 1 10t1 10q0 31 -9.5 60t-13.5 63q-16 -16 -26.5 -36.5t-22.5 -40 t-29.5 -34t-44.5 -18.5q0 -8 1 -14t1 -14q0 -47 -15 -94.5t-33.5 -92.5t-34 -89t-15.5 -83q0 -53 36 -79.5t89 -26.5q10 0 18.5 9t8.5 24q-6 18 -6 32q0 29 14 50.5t35 33.5q10 39 26.5 71t16.5 44q0 4 -7.5 10t-7.5 12q0 8 14.5 32t14.5 48q0 29 -18 49q35 14 64.5 28.5 t64.5 35.5q2 -8 3 -14.5t1 -14.5q0 -29 -14.5 -56.5t-43.5 -49.5q0 8 6.5 17t6.5 18q0 12 -17 14l-9 -22.5t-13 -22.5h33zM993 590q6 0 13 -8q12 10 31.5 22t38 24.5t32.5 24t14 19.5q-2 2 -2 8q0 10 10.5 24.5t23.5 32t23.5 36t10.5 36.5q0 33 -25 82q-27 0 -47 -21.5 t-36.5 -52.5t-28 -64.5t-19.5 -60.5q-10 -27 -19.5 -50t-19.5 -52zM662 -203q-27 10 -54 29q4 -25 7 -40t20 -15q15 -1 27 26z" />
<glyph unicode="ve" horiz-adv-x="1269" d="M104 1008q27 6 52 6q41 0 73.5 -17.5t56 -46t36 -64.5t12.5 -75q0 -20 -6 -37.5t-6 -28.5q0 -10 14 -16q0 -20 -10 -45q20 -20 20 -37q0 -23 -23.5 -42t-29.5 -44q10 -6 23.5 -10t25.5 -10q-8 -20 -13 -42t-10 -40q12 0 19.5 -8.5t7.5 -4.5h-4q-8 -10 -7 -28.5t-16 -18.5 q-4 0 -8 2q-4 0 -9 -12t-5 -16q10 -18 10 -37q0 -27 -17.5 -45.5t-17.5 -48.5q10 -51 20.5 -102.5t39.5 -96.5q2 0 2 -2t-1 -5t-1 -7q4 -2 6 -7.5t14 -11.5q6 25 20.5 54.5t14.5 60.5q0 8 -3 15t-3 16q0 10 13.5 26.5t13.5 30.5q10 51 25.5 97t29.5 93.5t25.5 96.5t17.5 106 q18 4 35.5 8t33.5 4q14 0 32 -4t34 -18q20 -16 54 -16t69 -7q18 0 27.5 32t16.5 74t12 81t14 51q18 12 28 29.5t18.5 35t17.5 35t24 31.5q14 14 31.5 32.5t38 34t43 27t46.5 11.5q37 0 73 -17.5t63.5 -46.5t45 -64.5t17.5 -72.5q0 -43 -18.5 -86t-50 -80t-74.5 -64.5 t-90 -42.5q-33 -16 -61 -28.5t-48 -34.5q0 -4 5 -13.5t5 -15.5q0 -14 -8 -27.5t-8 -29.5q0 -12 5 -25.5t5 -29.5q0 -27 -7 -51.5t-7 -47.5q0 -29 14 -58.5t14 -64.5q6 -37 39 -52t56 -15q10 0 32.5 21.5t49 54t54 68.5t48.5 65q16 20 24.5 45.5t20.5 44.5q45 51 63.5 108.5 t47.5 108.5q8 20 11 48t7 50.5t12.5 39t26.5 16.5h28.5t18.5 -35q-20 -33 -23.5 -74t-27.5 -74q-29 -37 -38 -77.5t-22 -59.5q-20 -10 -26 -27.5t-6 -33.5q0 -4 1 -6.5t1 -6.5q0 -18 -12.5 -30.5t-27 -24.5t-26.5 -28.5t-12 -43.5q-4 -16 -20.5 -34.5t-24.5 -34.5 q-10 -18 -20.5 -41t-22.5 -44.5t-24.5 -35.5t-24.5 -14q-4 0 -13 4h-12q-14 -23 -29.5 -32t-37.5 -9q-37 0 -83 7t-75 32q-12 10 -26.5 22t-28 24.5t-22.5 24t-9 17.5q0 10 5 21t9 24q-16 4 -27.5 9t-25.5 9q-14 55 -14 115q0 86 38 172q-29 27 -52 39t-47.5 16t-50.5 4 t-56 4q-14 -27 -29.5 -55.5t-15.5 -71.5q-6 -68 -20.5 -143.5t-14.5 -128.5q0 -6 1 -12t1 -11q0 -29 -18.5 -43t-18.5 -36q4 -18 12 -32.5t8 -29.5q0 -25 -37.5 -54.5t-89.5 -29.5q-63 0 -99 33t-57.5 81t-36.5 101.5t-36 96.5q-2 2 -5 9t-3 13t5 17.5t5 21.5q0 16 -4 34.5 t-4 37.5q0 12 2 18q0 20 -12.5 35.5t-12.5 32.5q0 12 9.5 26.5t9.5 34.5q0 16 -6 32.5t-6 33.5q0 47 10 105t24 118v8q0 12 -4 24.5t-8 26.5q-4 47 -10.5 92.5t-16.5 94.5zM1106 942q-20 -12 -30.5 -31.5t-16.5 -42t-12.5 -44t-18.5 -38.5q-23 -16 -32 -35.5t-12 -41t-5 -45 t-10 -48.5q86 29 136 75t81 114q-4 23 -7 44t-10.5 39.5t-21.5 33t-41 20.5z" />
<glyph unicode="tt" horiz-adv-x="1488" d="M1143 471q4 -6 12 -10t16 -4q-10 -20 -19 -39t-13 -35q-16 -4 -32.5 -8t-27.5 -31h8q16 0 25.5 7t17 16.5t16.5 19.5t25 16q8 -10 9 -22q0 -16 -12.5 -30.5t-12.5 -31.5q0 -8 4 -16t4 -14q0 -16 -14 -29.5t-14 -34.5q0 -10 4 -16q6 10 16 17t23 16q4 -8 4 -23 q0 -12 -9.5 -17t-20.5 -9.5t-20.5 -11.5t-9.5 -23q0 -6 4 -19q-4 0 -7 1t-7 1q-29 0 -45 -35q12 -4 14 -4q14 0 20.5 7.5t13.5 14.5t16.5 14t29.5 7q10 -16 14.5 -44.5t12.5 -39.5q16 -16 23.5 -24t7.5 -19q0 -12 -31 -38q10 -16 22.5 -31t21.5 -32t15 -37.5t6 -49.5 q4 -20 7.5 -32.5t8.5 -20.5t14 -16.5t28 -20.5q6 27 7 53.5t1 54.5q8 4 27.5 15.5t19.5 15.5q0 27 -47 41q0 10 3 19.5t3 23.5q14 -4 25.5 -9t31.5 -9q-4 20 -10 34.5t-6 24.5q0 16 -13.5 15t-27.5 4q0 10 4 19t4 26q8 -4 17.5 -5.5t19.5 -1.5q-2 33 -7 62t-5 57 q0 16 2 30.5t10 31.5q23 -18 30 -50t10 -70t8 -78t24 -73q-14 -20 -26.5 -35.5t-12.5 -27.5q0 -27 27 -66q10 4 14 9.5t8 9.5q68 -55 68 -105q0 -35 -33 -84q14 -37 14 -67q0 -41 -33.5 -62.5t-117.5 -42.5q4 10 11 16.5t17 20.5q-35 -8 -51 -15t-33 -7q-12 0 -30.5 10 t-36 27.5t-31.5 37t-18 37.5q18 10 23 28.5t5 37.5q-14 -10 -23 -21.5t-26 -21.5q4 -6 13.5 -11.5t13.5 -11.5q-35 6 -47.5 18.5t-18.5 35.5t-18.5 48t-24.5 49.5t-21.5 46t-9.5 36.5v30q0 16 -8 20.5t-41 8.5q4 16 5 28.5t8 22.5q29 10 50 19.5t46 19.5q33 4 38 12.5 t5 51.5q-12 -20 -22.5 -35.5t-20.5 -28.5q-12 4 -23.5 6t-21.5 2q-31 0 -60 -20q-20 0 -20 16q0 12 4 27.5t4 28.5q0 37 -18 61q-10 23 -12.5 46.5t-2.5 45.5q0 4 1 9.5t1 11.5q0 16 -3 34.5t-3 36.5q0 16 8.5 34t8.5 28q0 6 -4 6q-8 12 -13.5 34.5t-7.5 45t-3 43t-1 31.5 q0 18 4 35.5t8 39.5l-8 17q-4 6 -6 14q-2 0 -4 -1t-4 -1q-14 0 -21.5 12.5t-17.5 22.5q0 -4 -1 -5t-1 -3q-2 -2 -2 -4q6 -12 8 -25.5t2 -24.5q0 -39 -17.5 -75.5t-17.5 -71.5q0 -10 5 -21.5t5 -25.5q0 -10 -4 -23q-18 -33 -17 -73.5t-3 -81.5q-4 -29 -8 -65t-4 -64v-17 q0 -35 -16.5 -60.5t-20.5 -51.5q-16 -10 -32.5 -14.5t-31.5 -4.5q-23 0 -42 5l-38 10q-35 0 -72.5 48t-68.5 108.5t-51.5 115.5t-22.5 70q-8 78 -7 151.5t-1 151.5q6 78 15.5 155.5t13.5 155.5q0 16 6 33.5t6 40.5q0 35 -43 34h-8q-20 0 -25.5 14.5t-13.5 24.5q4 0 10 -1 t10 -1q23 0 27 23q-10 -8 -21.5 -12.5t-25.5 -8.5q-23 -29 -45.5 -30.5t-46.5 -1.5q-78 0 -140.5 42t-130.5 119q-18 25 -18 50q0 14 10 41q51 0 92 -35q70 -57 162 -58q53 0 110.5 1t117.5 1q6 49 13 99.5t17 92.5t23.5 67.5t34.5 25.5q100 0 100 -96q-6 -35 -8 -73t-6 -75 q68 4 131 14.5l123 20.5q37 0 47 13.5t16 54.5q6 82 9 166t7 168q0 6 5.5 8t9.5 10q31 -4 60.5 -7t54 -11.5t40 -22.5t15.5 -43q0 -18 -1 -34.5t-1 -33.5q0 -16 6 -37.5t6 -41.5q0 -33 -6 -70t-17 -66q8 -12 19.5 -16t23.5 -4q18 0 34 2t34 2q27 0 50.5 -2t45.5 -2h47 q16 0 30.5 -2t31.5 -10q12 12 33 12q20 0 40.5 -9t41.5 -9h14q45 0 85 -17.5t87 -17.5v-47q4 -2 10 -2q16 0 18.5 13t6.5 25q16 -4 23 -19t22 -15q4 0 7 1t7 1q8 0 12 -11.5t4 -27.5q0 -18 -9 -32.5t-21 -23.5q-53 6 -99.5 16.5t-95.5 33.5q14 12 15 24q0 8 -13.5 16.5 t-23.5 8.5t-32 -19.5t-52 -33.5q-4 14 -7.5 24t-13.5 25q-14 -23 -35.5 -33t-46 -14t-50 -3t-48.5 1q4 10 10 19t19 26q-23 0 -40.5 -4.5t-35.5 -4.5q4 -14 5 -20t1 -16q-18 0 -24.5 10t-22.5 10t-37.5 -14.5t-40 -36t-32 -47t-13.5 -47.5q0 -6 1 -13.5t1 -15.5 q0 -18 -5 -41t-5 -45q8 10 9 19.5t5 25.5q14 -10 24.5 -19.5t10.5 -19.5q0 -8 -6 -29.5t-6 -33.5v-35q0 -20 -6.5 -36.5t-34.5 -29.5q4 -14 12 -24.5t16 -18.5q-8 -12 -12 -25.5t-12 -19.5q12 -16 19.5 -26.5t7.5 -16.5q0 -8 -26 -28.5t-36 -47.5q35 -6 66 -20 q-12 -23 -18.5 -43.5t-16.5 -36.5h-6q-18 0 -39 -25l6 -10q10 8 19.5 18.5t19.5 16.5zM692 129q10 47 22.5 90t22.5 80q8 63 16.5 118.5t28.5 131.5q10 35 18.5 74t18.5 75q12 43 27.5 82t32.5 84q0 59 20.5 121t50.5 109q2 4 2 8q0 16 -13 25.5t-21 9.5q-4 0 -34 -13.5 t-59 -33.5q-4 16 -8 22t-4 23q-20 -10 -37.5 -23.5t-34 -28t-33 -23.5t-34.5 -9h-8q-8 -53 -13.5 -98.5t-5.5 -73.5q0 -29 1 -56.5t1 -56.5q0 -45 -12 -85t-12 -83q0 -33 9 -59.5t9 -55.5t-10 -55.5t-10 -56.5q0 -10 3 -24.5t3 -24.5q0 -27 -27 -37q27 -4 38 -11.5t14 -21.5 t1 -40t-2 -67q10 -4 16.5 -9t22.5 -7zM1034 268q16 -14 25.5 -22t19.5 -23q14 23 21.5 43.5t17.5 42.5h-8q-25 0 -37 -17.5t-39 -23.5zM1171 -98q-18 8 -20 25.5t-25 17.5q-4 0 -10 -7.5t-6 -13.5q0 -33 23 -33q11 1 38 11zM1751 1221l-8 16t-14 8q-8 0 -15.5 -6t-7.5 -14 q8 -14 20 -15q9 1 25 11zM1468 -313q14 12 15 20q0 6 -5 12.5t-10 12.5q-8 0 -10 -3t-6 -3q0 -19 16 -39zM1098 786q10 10 16 15.5t16 15.5q-4 0 -5 2t-7 2q-4 -4 -10 -11t-14 -17zM930 1221q0 6 2 8l4 4q-4 4 -11 8t-16 12q-4 0 -4 -6v-4zM1171 -152h-14v-25t21 -7z M1409 250q-4 10 -15.5 15t-15.5 16q-6 27 -6 51q0 20 11.5 40.5t11.5 41.5q0 14 -3 28.5t-3 28.5q10 0 17 -1t17 -7q0 31 -6 39t-6 24q0 12 4 22.5t8 18.5q14 53 29.5 105.5t46.5 101.5q4 10 5 15.5t1 15.5q16 121 131 121q8 0 20.5 1t24 -4t18.5 -20.5t7 -46.5 q-35 -20 -57.5 -38.5t-38 -36t-29.5 -34t-35 -28.5q4 -16 13.5 -27.5t9.5 -23.5q0 -14 -17 -25q-4 10 -14 20.5t-20 20.5q0 -18 -12.5 -32.5t-12.5 -33.5q0 -8 7 -16t7 -16q0 -16 -8 -25.5t-18.5 -15.5t-18.5 -12.5t-8 -20.5q0 -10 4 -31q-2 -2 -4 -6t-2 -12 q12 -4 21.5 -10.5t19.5 -10.5q0 -14 -26.5 -20t-43.5 -10q6 -23 7 -41q0 -33 -9.5 -62.5t-11.5 -58.5zM1475 -49q12 -12 12 -25q0 -10 -10.5 -17t-18.5 -15q0 14 6.5 25.5t10.5 31.5zM1409 250q27 0 43 -10.5t16 -30.5l-10 -4q-12 10 -22.5 22.5t-26.5 22.5zM1458 236 q12 27 21 26q6 0 20 -8q-16 -4 -22.5 -9t-18.5 -9z" />
<glyph unicode="rr" horiz-adv-x="1327" d="M1202 354q10 -8 15.5 -12t15.5 -10q-16 -16 -25.5 -42t-15.5 -51.5t-10 -45t-6 -21.5q-14 -12 -21.5 -30.5t-16 -37t-20.5 -36t-35 -25.5q-6 0 -12 -8t-13 -17.5t-15.5 -16.5t-20.5 -7q-14 0 -27 10q-16 10 -37.5 9t-46.5 3q-4 8 -13 21.5t-19 30.5q8 18 11 42.5t7 41.5 q0 4 -1 4t-1 2q-2 0 -2 2q-10 -6 -17.5 -11.5t-17.5 -9.5q-8 6 -8 15q0 12 11 26.5t11 24.5q0 12 -18 18q4 16 9 30.5t5 22.5q0 2 -2 5q-12 6 -17 17t-7 23.5t-3 25.5t-8 26q16 8 28.5 18t33.5 27q-4 14 -13.5 28.5t-13.5 28.5q10 49 39 85t64 71q-37 18 -64 24 q16 20 24.5 32.5t11.5 25t4 26t5 35.5q-14 0 -28.5 2t-24.5 2q-29 0 -53.5 -7t-42.5 -36q-35 -53 -81 -98t-81 -105q-16 -39 -46 -76.5t-50 -76.5q-23 -45 -28 -99.5t-26 -107.5q-6 -33 -13 -63.5t-22.5 -55t-38 -39t-59.5 -14.5q-29 0 -60.5 17.5t-49.5 56.5 q-12 16 -24.5 31.5t-12.5 33.5q0 16 8 27q-6 6 -7 13t-1 16v14q0 35 -13.5 68.5t-13.5 68.5q0 29 18.5 60.5t18.5 72.5q0 31 -14 62q10 6 25.5 7t15.5 9q0 20 -17.5 20.5t-31.5 12.5q33 27 43 26q0 14 -2 25.5t-2 22.5q0 33 16 76.5t27 80.5q-39 12 -77 32.5t-69 49.5 t-50.5 66t-19.5 82v22t4.5 22.5t14.5 17.5t33 7q25 0 43 -15t18 -36q0 -12 -3 -21.5t-3 -17.5q0 -18 14.5 -35.5t35 -33t44 -28.5t39.5 -20q45 -20 82 -37.5t68 -54.5q-14 -35 -22.5 -75.5t-31.5 -75.5q-14 -20 -17 -42t-7 -42q0 -23 -15.5 -41.5t-15.5 -40.5q0 -6 2 -12.5 t2 -14.5q0 -33 -17.5 -63.5t-27.5 -91.5q12 0 17.5 -4.5t5.5 -20.5q0 -6 -1 -14.5t-1 -18.5q0 -27 6 -55.5t14 -56.5q16 18 30.5 37.5t14.5 33.5q2 27 15.5 51.5t30 47t29.5 45t13 45.5q6 37 40 84t77 98t84 106.5t63 110.5q-20 27 -38.5 56.5t-18.5 68.5q0 23 8 45 q-14 10 -16 22.5t-2 34.5q0 29 10 62t28.5 60.5t47 46t65.5 18.5q66 0 96.5 -39t30.5 -86q0 -31 -7 -57.5t-17 -51t-19.5 -48t-15.5 -48.5q-4 -4 -5 -10t-9 -21q35 0 61.5 1t48.5 1q25 0 52.5 -7t54 -20.5t48 -33t32.5 -45.5q-27 -35 -39.5 -64.5t-19.5 -52t-13 -41 t-23 -31.5q2 -10 3 -18t1 -18q0 -29 -9 -64t-29 -92q-4 10 -5.5 19.5t-5.5 19.5q-41 -35 -41 -45q0 -14 45 -33q4 -18 9.5 -39.5t5.5 -38.5q-14 -10 -30.5 -22.5t-33.5 -22.5q10 -10 24.5 -10h27t21.5 -6t9 -29q12 6 9 17.5t1 15.5q-8 10 -8 20q0 18 19.5 31.5t29.5 38.5 q16 23 31.5 41t46.5 18zM809 936q37 41 53.5 78t16.5 71q0 39 -25 74q-29 -35 -39 -72.5t-10 -78.5q0 -16 1 -35t3 -37zM1020 344q-23 -14 -45.5 -27.5t-50.5 -31.5q16 -8 37 -9q37 0 55 11.5t18 23.5q0 10 -14 33zM995 514q0 -25 41 -43q0 43 -13.5 43h-27.5zM905 332 q-12 12 -16 12q-14 0 -23 -12q4 0 6 -3t7 -3q8 0 12 1t14 5zM1309 520q14 2 17 15.5t5 26.5t5 24.5t16 11.5q8 0 12 -2q18 29 35 57q14 25 25.5 52.5t11.5 50.5q0 16 22.5 38.5t44.5 22.5q16 0 33.5 -4t36.5 -8q-35 -53 -65.5 -102.5t-65.5 -96.5q-4 0 -14.5 3t-26.5 3 q0 -12 1 -20t9 -12q-25 -23 -50.5 -45.5t-51.5 -47.5v33zM1202 354q4 14 4 31.5v38.5q31 -43 31 -53q0 -13 -35 -17zM1253 436q6 4 13.5 8.5t11.5 12.5l8 -11q-6 -4 -13 -8t-11 -8z" />
<glyph unicode="ll" horiz-adv-x="1085" d="M1001 -322q0 -16 4.5 -30.5t4.5 -28.5q27 12 34 35.5t9 49.5t6 51.5t24 43.5q10 14 12.5 41t2.5 49q-4 14 -4 28.5v29.5q0 47 9 93t17 93q10 66 21.5 153t29 165.5t42 133t61.5 54.5q10 0 16 -2q-25 -45 -44 -96.5t-32 -98.5q10 -25 11 -43q0 -33 -12.5 -63.5 t-12.5 -61.5q0 -14 2 -20q4 -6 -9 -15.5t-13 -15.5q0 -2 4 -10t4 -14q0 -23 -15.5 -45.5t-15.5 -49.5q2 -6 2 -18q0 -33 -35 -47q6 -27 17 -27q8 0 15 9.5t11 9.5q6 -12 7 -19q0 -10 -11.5 -16t-19.5 -14q16 -39 16 -88q0 -35 -10 -68t-10 -68q0 -14 10 -28.5t10 -28.5 q0 -12 -15.5 -43t-15.5 -59q0 -4 1 -8.5t1 -8.5t-12 -14t-20 -12q2 -4 2 -9.5v-9.5q0 -23 -14.5 -39t-34 -28.5t-40 -18.5t-32.5 -6q-41 0 -65.5 16.5t-38 42t-18.5 58t-11 63.5q-8 4 -17.5 4t-18.5 4.5t-15.5 15.5t-6.5 36q0 29 6.5 53t6.5 47q0 14 -11.5 31.5t-25.5 34 t-25.5 30t-11.5 17.5q0 29 13.5 57.5t13.5 56.5q0 27 -12.5 45.5t-12.5 61.5v57.5t3 53t11.5 43t24.5 26.5q0 -4 5 -14.5t9 -20.5q27 29 37 56.5t10 56.5q0 8 -1 16t-1 17q-29 -12 -28 -23q0 -6 10 -31q-20 -10 -35.5 -17t-36.5 -17q12 45 15.5 72.5t3.5 51.5q0 20 -10.5 37 t-10.5 27q0 14 10.5 27.5t10.5 27.5q0 4 -1 5t-1 5q18 12 18 35q0 10 -2 21.5t-2 21.5q0 14 8 25q-12 14 -12 31q0 14 8 25t17.5 21.5t17.5 19.5t8 20q0 18 -27 39q-16 -20 -35.5 -39t-19.5 -45q0 -6 4 -19q0 -2 -6 -19.5t-17.5 -37t-24.5 -35.5t-25 -16q0 -10 5 -21.5 t5 -26.5q-10 -10 -23.5 -20t-29.5 -27q12 -16 20 -28q0 -8 -3 -9.5t-3 -3.5q-35 -31 -51.5 -69.5t-22.5 -87.5q0 -16 -16.5 -47t-16.5 -60q2 -6 2 -18q0 -37 -34 -62q14 -20 14 -39q0 -23 -17.5 -44t-17.5 -44q0 -18 3 -40.5t3 -43.5q0 -25 -7 -54.5t-19.5 -56t-32 -45 t-43.5 -18.5q-25 0 -49.5 20.5t-44 46t-30.5 49.5t-11 28q6 18 6 32q0 16 -9.5 27.5t-33.5 20.5q-10 33 -26.5 91t-33.5 128q6 20 22.5 36.5t35 32t33 31.5t14.5 39q0 39 -39 70q0 -18 -1 -40t-6 -40.5t-14.5 -30.5t-25.5 -12q-27 0 -43 30q4 10 12 19.5t12 25.5 q-10 12 -14 25.5t-4 26.5q0 23 12.5 47t12.5 33q0 8 -8.5 14t-22.5 27q4 10 5 21t1 22v20q0 20 5 37.5t28 32.5q0 35 2 47t18 28q-16 18 -16 39q0 16 8 43t8 62q0 12 -1 23.5t-1 23.5q0 39 10.5 77t22.5 76q4 8 8 19.5t4 23.5q0 8 -4 16.5t-4 12.5q0 25 4 44.5t4 43.5 q8 14 20.5 30.5t12.5 39.5q0 6 -4 22q0 6 9 20.5t22 43.5q4 0 17 1t28 5q-10 4 -21.5 6t-11.5 6q-4 14 -6 26.5t-2 25.5q0 20 7 45.5t18.5 51t22.5 51.5t19 46q10 25 18.5 53.5t18.5 55.5q18 -2 44 -7.5t48.5 -14.5t38 -23.5t15.5 -38.5q0 -10 -4.5 -32t-11.5 -45.5t-15 -45 t-16 -31.5q-2 -2 -3 -8q0 -4 1.5 -11.5t1.5 -13.5q-2 -14 -3.5 -29.5t-7.5 -29.5t-18 -24.5t-37 -12.5q16 -16 23.5 -22.5t21.5 -16.5q-14 -10 -28.5 -19.5t-28.5 -21.5q4 -12 16 -22.5t16 -26.5q0 -10 -10 -20.5t-10 -22.5q-4 -16 -9 -32.5t-9 -41.5q-20 -10 -47 -22.5 t-50 -26.5q8 -18 21 -18q10 0 23.5 10t25.5 12q-4 -20 -11.5 -32.5t-27.5 -12.5q-10 0 -18 -14q16 -10 23 -15.5t18 -5.5q10 0 19 3l24 8q-14 -27 -33 -32t-41 -16q-12 -14 -19.5 -33.5t-17.5 -35.5q12 -14 22 -14q12 0 22.5 8t20.5 12q0 -18 -12 -35.5t-27.5 -30t-31 -20.5 t-21.5 -8q-10 0 -26 43q-10 -16 -16.5 -31.5t-20.5 -38.5q29 4 49 8t41 9q-20 -35 -38.5 -68t-33.5 -64q16 -10 27 -10q10 0 23.5 12.5t41.5 45.5q-4 -29 -10 -45.5t-10 -36.5q-31 -8 -49.5 -14.5t-27.5 -15.5t-11 -22.5t-2 -33.5q25 10 46 16t44 16q-10 -29 -20.5 -59.5 t-45.5 -44.5q-41 -16 -43 -39q0 -2 4.5 -23.5t14.5 -21.5q12 0 16 7t6 16.5t4.5 17.5t10.5 12q10 -39 16 -76.5t6 -78.5q0 -66 -17.5 -127.5t-17.5 -126.5q16 0 22.5 25.5t12.5 47.5q18 -33 39 -65.5t21 -63.5q0 -25 -11.5 -36t-23.5 -23q20 -4 31.5 -9t25.5 -9q6 29 8 62.5 t33 51.5q0 10 -2 17.5t-2 15.5q0 20 11.5 46t25.5 51.5t25.5 48t11.5 40.5q0 23 8 43.5t18.5 37t18.5 29.5t8 21q0 31 16.5 47.5t22.5 38.5q0 29 18.5 51.5t18.5 51.5q6 29 21.5 50.5t25.5 43.5q10 39 27.5 75t38 70.5t41 72.5t34.5 81q20 59 56 109.5t55 103.5 q12 53 29.5 102.5t27.5 104.5q10 61 23.5 120.5t42.5 123.5q6 23 13 47t18.5 45.5t30 36t48.5 14.5q31 0 44.5 -8t13.5 -31q0 -35 -12.5 -87t-22.5 -99t-18.5 -91t-18.5 -90q-6 -16 -15.5 -27t-15.5 -28q0 -14 4 -28.5t4 -30.5q0 -33 -34 -49q20 -37 20 -68q0 -25 -8 -42 t-17.5 -28.5t-16.5 -18.5t-7 -13q0 -10 33 -23q-29 -37 -29 -82q0 -25 10 -59q0 -10 -1 -23.5t-5 -17.5q-23 -23 -28 -49.5t-5 -57.5v-37q-10 10 -16 18.5t-16 18.5q-14 -20 -28.5 -40.5t-31.5 -41.5q0 -8 12.5 -21t20.5 -34q10 29 12 44.5t15 15.5q20 0 20 -27 q-2 -4 -2 -12v-13q0 -10 -15.5 -29.5t-29.5 -35.5q-4 4 -12.5 5t-12.5 1q-18 -31 -37.5 -55.5t-39.5 -49.5q8 -2 20 -2q14 0 22.5 8.5t26.5 34.5q16 0 23.5 -10t10.5 -22.5t2 -24.5t-1 -14q0 -47 -45 -54q4 -16 5 -31.5t5 -31.5q-8 0 -14 3t-19 3q-4 -10 -6 -21.5t-12 -29.5 q23 4 35 9t28 16q-12 -47 -12 -89q0 -43 12 -79q12 10 18.5 18t16.5 18q-18 -43 -24 -88t-27 -84q-12 -35 -24.5 -68.5t-12.5 -58.5q0 -23 7.5 -42t17.5 -37q20 8 20 24q0 10 -4 19.5t-4 19.5q0 16 14.5 26.5t14.5 30.5q0 12 -13 29q23 -10 34.5 -14t11.5 -33 q0 -41 -16.5 -81t-29.5 -77q-6 -12 -6 -18q0 -8 4.5 -21.5t12.5 -48.5h6q12 0 20.5 7.5t15.5 16.5t15 17t18 12zM823 31q-16 -18 -27.5 -34.5t-27.5 -35.5h33q6 0 7 -4t5 -8q-10 -6 -16 -8t-12.5 -7.5t-13.5 -15.5t-21 -29q10 -8 19 -18t19 -21q29 29 35 69t11 93 q-1 9 -11 19zM860 874q12 -16 24.5 -29.5t30.5 -13.5q16 0 28.5 8.5t12.5 18.5q0 6 -2 12.5t-2 10.5q0 20 11.5 34.5t19.5 32.5q-18 -10 -38.5 -19t-38 -18.5t-31 -18t-15.5 -18.5zM834 770q-4 -23 -7.5 -41t-3.5 -35q0 -12 2 -18t2 -19q23 18 40.5 36t17.5 52q0 8 -4 25 h-47zM809 629v-94q23 0 31 10t10 24.5t2 30.5t8 29h-51zM846 238q-8 0 -17 4q-4 2 -6 6q-31 -23 -48 -41.5t-17 -26.5q0 -10 37 -37q10 23 23.5 47.5t27.5 47.5zM276 989q0 23 8.5 41.5t8.5 40.5q0 12 -2 21q-25 -16 -42.5 -30.5t-41.5 -33.5q18 -10 35.5 -19.5t33.5 -19.5z M989 971q4 18 9.5 37.5t11.5 40.5q-8 0 -15 4q-14 -10 -30.5 -22.5t-16.5 -29.5q0 -24 41 -30zM1018 1128q-16 8 -35 9q-23 0 -39 -19q0 -18 6 -26.5t13 -8.5q4 0 24.5 14.5t30.5 30.5zM213 893q45 39 72 78q-16 0 -24.5 -1t-15.5 -8.5t-13.5 -23.5t-18.5 -45zM881 12 q14 10 14 27q0 16 -7 30.5t-7 28.5h-13q-10 0 -16 6q-4 -4 -9 -6t-9 -8q25 -4 30.5 -12t5.5 -19v-20q1 -17 11 -27zM334 1473q4 0 8 1t8 1q6 0 12.5 -1t12.5 -1q10 0 19 3t20 13q-18 4 -38 4h-42v-20zM348 1202q6 -4 10 -5t4 -5q10 14 18.5 29.5t12.5 40.5q-23 0 -29 -7.5 t-6 -17.5v-19.5t-10 -15.5zM860 795q16 6 28.5 7t22.5 5q0 10 -8 13t-16 3q-10 0 -16.5 -5t-10.5 -23zM311 1206q4 0 6 5.5t7 5.5q-4 8 -9.5 15t-11.5 15l-12 -10q4 -8 9 -14.5t11 -16.5zM330 1171q0 10 -6 11q-4 0 -13.5 -2t-19.5 -2q0 -6 6 -15q4 0 13.5 4t19.5 4z M393 1325q-10 -14 -15 -21.5t-16 -23.5q35 0 35 20q0 5 -4 25zM866 -344q0 6 -4 12t-10 17q-6 -6 -12 -7q8 -20 20 -26zM866 954q-8 2 -7 -7t-7 -15h14v22zM834 881q-8 8 -11 8q-8 0 -11 -5t-3 -3q0 -4 3 -10.5t11 -6.5q0 2 2 6q3 5 9 11z" />
<glyph unicode="th" horiz-adv-x="1783" d="M1659 -219q-4 16 -16.5 20t-26.5 7.5t-29.5 8.5t-23.5 21q-35 35 -55.5 75t-20.5 81q0 35 -17.5 66.5t-17.5 41.5t7 18.5t7 16.5q0 10 -18 10q0 12 2 22.5t2 20.5t-6 17.5t-6 23.5q16 25 16 60q0 29 -16 65q6 8 17 20.5t11 29.5q0 23 -14 36t-14 23t11 24.5t11 36.5 q0 18 -8 26.5t-8 18.5q0 6 2 12.5t4 12.5q6 47 7 91t5 87q8 23 11.5 39t3.5 41q-6 0 -20.5 -14.5t-30 -34t-29 -36.5t-21.5 -24q-14 -18 -25.5 -43.5t-22.5 -51t-20.5 -46t-19.5 -29.5q-12 -45 -28.5 -98t-33 -102t-27.5 -89t-11 -59q-8 -27 -27 -26q-23 0 -47 14t-43 27 q-14 8 -36.5 12t-22.5 25q0 8 5 16t5 16q0 18 -18.5 26.5t-18.5 18.5q0 4 5 10.5t5 16.5q0 18 -20 18h-10q0 10 -1 23.5t1 26t8 20.5t20 8v15q0 18 -20 18q-4 0 -8 -1t-9 -1q-2 23 -5 41t-3 37q0 20 6.5 29.5t1.5 13.5q-10 8 -10 20q0 10 4 16.5t4 24.5q-14 0 -30.5 -18.5 t-31.5 -44t-28.5 -51t-19.5 -39.5q-18 -39 -34.5 -90.5t-29 -106.5t-19.5 -111.5t-7 -105.5q0 -16 -6.5 -37.5t-13.5 -43t-13 -36t-8 -14.5q-14 -12 -31.5 -17.5t-36.5 -5.5q-35 0 -61.5 16.5t-45 41t-27.5 54.5t-9 58q0 16 -11.5 27.5t-15.5 26.5q-18 127 -31.5 253.5 t-13.5 243.5q0 47 6 100.5t6 90.5q0 12 -4 22t-4 19q0 47 5 91t5 91q0 10 1.5 23.5t-2 25.5t-10.5 20.5t-21 8.5q-4 4 4 5t33 1q-33 23 -45.5 22.5t-28.5 -0.5q-18 0 -25.5 -6t-17.5 -22q-16 14 -37 14q-16 0 -32.5 -11t-33.5 -11q-12 0 -27.5 8t-29.5 18t-25.5 18.5 t-15.5 8.5q-57 10 -93 56t-36 95q0 6 2 10.5t2 8.5q0 10 -4 21.5t-4 23.5q0 23 10 45t33 41q12 -20 16 -38.5t11.5 -33t19.5 -25t39 -16.5q39 -8 83 -18t89 -8q8 -16 23 -17q16 0 32.5 11.5t28.5 11.5q6 0 15.5 -8.5t19.5 -8.5q20 0 29.5 23.5t12.5 55.5t1 67t-2 57 q0 23 -7.5 42.5t-27.5 35.5q16 8 37 8q57 0 90 -25.5t53.5 -63.5t33.5 -81t30 -76q29 4 57.5 6.5t63.5 2.5q12 0 11 -7.5t23 -7.5q6 0 7.5 6.5t5.5 14.5q35 0 72.5 -2t84.5 12q6 4 17.5 9t27.5 9q0 -4 4 -14q-4 -4 -12 -10t-12 -15q6 6 18 7q10 0 18.5 -3.5t16.5 -3.5 q16 0 23 21q-14 29 -15 55q0 29 12.5 50.5t27 40t26.5 33.5t12 30q0 14 -7 21.5t-7 35.5q23 6 49 21q-20 27 -20 49q0 16 17 35.5t17 27.5q4 23 11.5 47.5t40.5 24.5q-14 0 -21 -6q0 -8 8 -8q16 0 31.5 8t29 19.5t28 19.5t26.5 8q33 0 64.5 -7t64.5 -7q18 -16 36.5 -32 t32 -36t21.5 -48t8 -71q0 -61 -28.5 -121.5t-63.5 -111.5q8 -16 16 -17q4 0 6.5 2t8.5 5.5t18.5 6.5t36.5 3q20 0 37.5 -5t38.5 -14q-20 -6 -38.5 -11t-47.5 -9q0 -4 4 -4h6q10 0 28.5 -1t36 1t31 6t13.5 14q0 12 -15 27q16 16 25 16q10 0 18.5 -16.5t24.5 -16.5 q10 0 33.5 6.5t48.5 10.5q4 0 18.5 -14.5t14.5 -16.5q10 10 15 15.5t5 11.5q4 -6 10 -14.5t13 -18.5q12 -4 27.5 -5t27.5 -6t21.5 -17.5t9.5 -37.5q0 -20 -14.5 -34.5t-30.5 -18.5q-4 25 -19 25q-8 0 -22 -8v18q-6 6 -12.5 10t-10.5 8q-10 0 -12 -1t-8 -1q-16 0 -32 7.5 t-32 7.5q-10 0 -18.5 -7.5t-16.5 -7.5q-2 0 -4 1t-6 1q0 8 1 12.5t5 12.5q-33 -8 -63.5 -17.5t-61.5 -17.5v25q-16 0 -24.5 -17.5t-30.5 -17.5q-8 0 -14 2q-29 0 -42.5 -13.5t-23.5 -13.5q-72 -4 -113 -46t-73 -101q-31 -37 -59.5 -86t-57.5 -96q-10 -14 -23.5 -24.5 t-25.5 -27.5q6 -4 16 -6t21 -6q-4 -10 -10.5 -22.5t-10.5 -26.5q0 4 6 4q0 -8 2 -13t2 -9q0 -8 -6 -17.5t-6 -17.5t1 -14.5t1 -12.5q-10 -29 -16 -59.5t-23 -65.5q-12 -12 -12 -20q0 -14 27 -23q6 -20 7 -35.5t5 -35.5q14 8 25.5 22t19.5 30.5t15.5 33t15.5 28.5 q23 37 56.5 75t49.5 73q8 25 33 46t52.5 36.5t49 23.5t23.5 8q20 0 46 -9t49.5 -26.5t39.5 -43t16 -58.5q-10 -29 -18 -51q-6 -18 -11 -33.5t-1 -11.5q-6 -12 -6 -23q0 -16 14 -28.5t14 -24.5q0 -10 -21.5 -32.5t-37.5 -41.5q8 4 13 5.5t16 1.5q0 -14 -9.5 -27.5t-9.5 -28.5 q0 -14 12 -26q0 -18 -5 -32.5t-5 -33.5q0 -12 3 -20.5t3 -18.5q0 -55 -12 -88t-29 -80q16 4 23 4q16 0 16 -14q0 -6 -2 -15.5t-2 -19.5t1 -21.5t1 -23.5q0 -14 -14 -27.5t-37 -29.5q33 -6 44 -11.5t11 -25.5q0 -8 -1 -17.5t-3 -23.5h23q4 -41 10 -77t47 -66q6 31 9 57.5 t7.5 44.5t11.5 29.5t21 11.5q-6 10 -12 27.5t-6 48.5q0 10 8 10t16 -8q10 10 11 16q0 8 -7.5 12.5t-11.5 8.5q2 20 3 37.5t5 33.5q0 29 -3 58.5t-3 58.5q4 4 9.5 11t5.5 16q-2 4 -2 16q0 18 10 38.5t6 27.5q0 35 6 39t6 14q0 4 -8 7t-8 9t2 15.5t2 19.5q10 -4 12 -9t6 -9 q14 33 25.5 67.5t25 62t32 46t46.5 18.5q18 0 46 -12t28 -35q0 -10 -8 -20q-35 -39 -56.5 -85t-35.5 -98q-8 -18 -15.5 -36.5t-7.5 -40.5q0 -8 3 -16.5t3 -16.5q0 -10 -5 -21.5t-5 -21.5q-4 -31 -9 -62.5t-5 -46.5q0 -23 5 -40t5 -40q-6 -25 -8 -48t-6 -52q0 -29 -9.5 -64.5 t-17.5 -52.5q-4 -12 -9 -33.5t-12.5 -42t-20.5 -36t-32 -15.5q-6 0 -19 2t-15 8l-19 -26h-8zM1051 1145q-29 29 -29 53q0 16 9 31.5t9 30.5q4 23 4 37v36q-37 -14 -71.5 -28.5t-75.5 -30.5q0 4 1 5t1 5q0 10 -6 17.5t-14 13.5q-23 0 -43.5 -10.5t-38 -23.5t-33.5 -23.5 t-31 -10.5h-18q0 -4 -8.5 -11t-17.5 -15.5t-16 -18.5t-7 -18q2 -8 3 -14.5t1 -14.5q0 -43 -39 -76q20 0 28.5 -8t8.5 -14q0 -8 -4.5 -27.5t-8.5 -39t-7 -34.5l-3 -16q0 -47 -7 -62.5t-7 -37.5q16 0 16 -13q0 -6 -1 -12t-1 -14v-27q0 -23 -5 -43t-28 -39q-4 -8 10.5 -23.5 t14.5 -35.5q0 -18 -12.5 -30.5t-12.5 -29.5q0 -20 14.5 -38.5t14.5 -38.5t-8 -40t-8 -40q12 -16 12 -31q0 -16 -12 -29q4 -20 10 -42.5t10 -41.5q0 -20 -3 -43.5t-3 -46.5q0 -10 1 -25.5t3 -29.5t7 -24.5t16 -10.5q4 12 11 24.5t7 24.5q16 94 23.5 188.5t48.5 180.5 q25 70 56.5 122t64 95t58.5 83t38 83q0 8 5 18.5t9 18.5q-4 23 -8 43t-4 41q0 18 8 36.5t31 34.5q-10 4 -12.5 5.5t-6.5 1.5q14 14 28 26.5t28 26.5zM1266 1507h59.5t48.5 4q25 6 40.5 21.5t25.5 34t19 39t20 36.5q8 14 13 37t7 45.5t2 42v29.5q0 23 -16.5 50.5t-36.5 27.5 q-10 -4 -22.5 -11.5t-12.5 -15.5q-4 -35 -20.5 -52t-51.5 -26q0 -6 1 -13t1 -13t-2 -8q-10 -8 -19 -32t-18.5 -48.5t-14.5 -42t-5 -15.5q0 -35 -6 -49t-12 -41zM1253 1333q-35 -16 -34 -39q0 -12 6 -20q8 12 20 19t12 22q0 4 -1 8t-3 10zM1040 752q-20 -20 -20 -29 q0 -10 24 -25q0 8 4.5 16.5t4.5 18.5q-1 9 -13 19zM1014 1350q0 -2 2 -4q4 -4 4 -9q10 4 27.5 7.5t17.5 19.5q0 6 -4 9t-8 3q-8 0 -18.5 -9t-20.5 -17zM1104 801q-10 -4 -19.5 -5t-19.5 -5q6 -12 10 -18.5t10 -16.5q2 8 3.5 12t3.5 6t5 6t11 17zM885 1337q2 -8 9 -11t17 -3 q23 0 39 14h-65zM1090 469q-10 -4 -22.5 -4t-23.5 -4q4 -6 6.5 -10.5t8.5 -4.5q10 4 18 6.5t13 8.5v8z" />
<glyph horiz-adv-x="0" />
<glyph horiz-adv-x="0" />
<glyph unicode="&#xd;" horiz-adv-x="0" />
<glyph unicode=" "  horiz-adv-x="552" />
<glyph unicode="&#x09;" horiz-adv-x="552" />
<glyph unicode="&#xa0;" horiz-adv-x="552" />
<glyph unicode="!" horiz-adv-x="630" d="M227 319q0 35 -3 72t-3 72q0 23 1 43t1 41q0 49 -2 99t-2 99q0 2 1 4.5t1 4.5q16 53 18.5 108.5t6.5 110.5q4 41 11 80t7 73q0 10 -2 20.5t-2 24.5q6 37 5 84.5t5 87t27.5 67.5t75.5 28q23 0 38 -20.5t15 -45.5q0 -51 -11.5 -98t-11.5 -94q0 -10 2.5 -21.5t2.5 -23.5 q0 -10 -5 -27q-14 -35 -17 -87t-3 -97q0 -12 4 -24.5t4 -25.5q0 -14 -1 -27t-1 -28q2 -23 2 -42v-42q0 -39 -3 -76.5t-3 -72.5q0 -14 1 -26.5t1 -24.5q0 -16 -5 -32t-5 -32q0 -23 8 -44t8 -46q0 -35 -28 -41q-31 -8 -57.5 -27.5t-41.5 -19.5q-12 -1 -39 26zM410 70 q-4 -33 -17.5 -61.5t-52.5 -28.5q-14 2 -37.5 10t-45 21.5t-37 35t-15.5 51.5q0 14 8 25q18 18 29.5 28.5t22.5 16.5t23.5 7t33.5 1q49 0 63.5 -26.5t24.5 -79.5z" />
<glyph unicode="&#x22;" horiz-adv-x="745" d="M201 1092q0 4 -1 9t-1 9q0 45 13 82t13 65q0 8 -9 24.5t-21.5 37t-21.5 44t-9 44.5q0 27 26 27q86 0 145.5 -39t59.5 -117q0 -23 -17.5 -62.5t-33.5 -60.5q-6 -6 -16.5 -23.5t-25.5 -38t-35.5 -36t-45.5 -15.5q-14 0 -17 13.5t-3 36.5zM518 1174q0 35 13.5 80.5 t13.5 84.5q0 18 -1 39t-1 33q2 16 13 26.5t26 10.5q27 0 49 -12.5t38.5 -32t26 -42t9.5 -40.5q0 -29 -6.5 -70t-24 -78.5t-48 -65.5t-79.5 -28q-25 0 -27 30t-2 65z" />
<glyph unicode="#" horiz-adv-x="1165" d="M483 1233q12 10 35 10q14 0 31.5 -6t17.5 -27q0 -45 -13 -97t-24 -99q-6 -29 -17 -61.5t-11 -80.5q0 -10 12 -15t23 -7q14 0 27.5 1t27.5 1q16 0 41.5 -10.5t54.5 -10.5q45 0 62.5 39t21.5 82q2 27 12.5 54.5t10.5 56.5q0 6 -2 11t-2 9q0 10 5 35t12 51.5t15 46t17 19.5 q29 0 57.5 -7t32.5 -36q0 -29 -1 -57.5t-11 -55.5q0 -31 -13.5 -56.5t-13.5 -53.5q0 -29 -15.5 -55.5t-15.5 -47.5q0 -25 32 -28.5t69.5 -7t69.5 -11.5t32 -39q0 -16 -22.5 -36.5t-47.5 -20.5q-29 0 -55.5 3t-60.5 9q-8 -4 -21.5 -7t-26 -8t-21.5 -13.5t-9 -20.5 q0 -16 -7.5 -35.5t-7.5 -34.5q0 -25 22.5 -34t41.5 -9q16 0 33.5 5.5t36.5 5.5q12 0 29.5 -1t32.5 -6.5t26.5 -14.5t11.5 -27q0 -23 -26.5 -43.5t-61.5 -20.5q-8 0 -14.5 5t-14.5 5q-16 0 -32.5 -6t-32.5 -6q-6 0 -12.5 1t-10.5 1q-23 0 -53.5 -19.5t-30.5 -48.5 q0 -31 -8 -60.5t-17.5 -61t-16.5 -64.5t-7 -67q0 -12 3 -28t3 -30q0 -61 -41 -61q-23 0 -34 7t-11 30q8 51 21.5 96t13.5 98q0 29 13.5 64.5t13.5 97.5q0 16 -4.5 30.5t-22.5 14.5q-31 0 -69 -12.5t-64 -12.5q-10 0 -20.5 3.5t-20.5 3.5q-25 0 -49.5 -12.5t-24.5 -53.5 t-11 -67.5t-11 -47.5v-28q0 -18 -12.5 -29.5t-65.5 -24.5q-12 8 -23.5 15.5t-11.5 23.5q8 35 17.5 69t9.5 71q0 14 -1.5 35.5t-19.5 21.5q-10 0 -17.5 -2t-15.5 -2q-47 0 -85 20.5t-38 77.5q0 23 10.5 38t32.5 15q12 0 18.5 -5t12.5 -11t13.5 -11t19.5 -5q43 0 69.5 7 t41 25.5t21.5 49t13 77.5q0 8 -6 14.5t-12 6.5q-10 0 -20.5 -6t-20.5 -6q-27 0 -58.5 12t-59 33.5t-46 51.5t-18.5 62q0 14 7 33t21 19q4 0 13 -5q39 -27 94 -44t123 -17q10 0 25.5 47t31.5 110.5t30.5 127t24.5 96.5zM410 610q10 -18 24.5 -35.5t36.5 -17.5q14 0 28.5 2 t28.5 2q10 0 21.5 -1t21.5 -1q78 0 113 28.5t35 94.5q0 2 -1 12.5t-3 21.5t-6 20t-11 9q-6 0 -12 -7t-10 -7q-8 0 -15.5 8.5t-15.5 8.5q-14 0 -26.5 -4.5t-26.5 -4.5t-21 2q-8 -6 -29.5 -8t-43 -6t-39 -11t-17.5 -24q0 -8 -1 -22.5t-5 -27.5t-10 -23.5t-18 -10.5q6 -4 6 -6 l-2 -4q-6 0 -6 6q0 2 4 6z" />
<glyph unicode="$" horiz-adv-x="1044" d="M164 797q-10 6 -24.5 12t-30.5 12q-6 33 -7 68q0 47 16.5 89t57.5 77q12 4 12 22q8 47 30 85t51.5 69t66.5 56.5t74 49.5q35 23 43 64q4 68 11 133t15 131q55 12 86 12q37 0 54.5 -17.5t17.5 -57.5q0 -33 -8 -80t-8 -88q0 -55 24.5 -100.5t102.5 -71.5q8 -2 18 -17.5 t18.5 -34t13.5 -36t5 -25.5q0 -25 -18.5 -37t-30.5 -12q-23 0 -48.5 23.5t-43.5 31.5q-31 -2 -44.5 -16.5t-18.5 -34t-7 -41t-10 -35.5q-10 -16 -15.5 -38.5t-8.5 -44t-4 -39t-1 -25.5q0 -41 21.5 -63.5t68.5 -37.5q63 -18 127 -45.5t116 -67.5t85 -94.5t33 -123.5 q0 -29 -6.5 -48.5t-34.5 -38.5q-18 -12 -21.5 -46.5t-3.5 -63.5q-31 -16 -63.5 -32.5t-67.5 -35.5q2 -8 2 -22q0 -20 -16.5 -44t-39 -44.5t-47 -33.5t-40.5 -13q-23 0 -45 22q-51 -49 -52 -115q-4 -37 9.5 -85t13.5 -95q0 -23 -20.5 -33t-32.5 -10q-23 0 -45.5 9.5 t-44.5 9.5q-25 0 -33 18.5t-10 40.5q-6 63 -13.5 125.5t-13.5 126.5q-20 4 -33.5 11t-23.5 7q-16 0 -29.5 -5t-28.5 -5q-16 0 -43.5 18.5t-53.5 46t-45.5 56.5t-19.5 51q0 43 39 43q18 0 46 -13t56.5 -31.5t58.5 -38t52 -31.5q27 27 49.5 53t22.5 63q0 25 -14 51 q16 16 16 35q0 16 -7 33.5t-7 36.5q0 16 2 30.5t2 30.5q0 18 -1 37t-1 35q-37 6 -73 8t-60 19q-14 8 -37 27.5t-44.5 42t-36.5 44t-15 35.5q0 12 5 31t9 35zM590 573q0 -12 -1 -25t-1 -24q0 -18 3 -36.5t3 -38.5t-8 -39t-8 -37q0 -20 3 -42t8 -40.5t13 -30.5t19 -12 q12 0 28 10q61 37 106.5 97.5t45.5 133.5q0 39 -34 69t-87 30q-20 0 -41.5 -4.5t-48.5 -10.5zM303 815q25 -18 42 -23.5t32 -5.5q27 0 33 30t6 93v105q-66 -37 -84.5 -90.5t-28.5 -108.5zM692 86q2 6 2 11t2 12h-75q0 -20 25.5 -20.5t45.5 -2.5z" />
<glyph unicode="%" horiz-adv-x="997" d="M295 920h-45t-45.5 7t-34.5 23.5t-14 48.5q0 -2 3 30t15 74t34.5 82t61.5 54q8 4 19.5 15.5t25 24.5t27.5 26.5t31 21.5q2 0 27.5 -7t56 -19.5t55.5 -30t25 -39.5q0 -29 -26 -71t-62.5 -87t-78.5 -85.5t-75 -67.5zM358 1221q-35 -53 -64.5 -98.5t-33.5 -106.5q0 -4 6 -6 t10 -2q12 2 41 22.5t57.5 48t51.5 59t23 56.5q0 14 -6.5 29.5t-22.5 15.5q-12 0 -30 -7t-32 -11zM723 621q18 0 35.5 2t34.5 2q31 0 46 -10.5t23 -27t9 -37t1 -38.5q0 -12 -5 -40t-14 -60.5t-23.5 -61t-34.5 -41.5q-14 -10 -25.5 -26.5l-23 -33t-24.5 -28.5t-34 -12 q-14 0 -42 5t-55.5 15.5t-48 24.5t-20.5 35q0 39 22.5 80t50.5 76.5t53.5 66.5t33.5 49q6 16 17.5 30t23.5 30zM772 520q-2 6 -10 15q-14 0 -41 -25t-52.5 -57.5t-45 -65.5t-19.5 -51q0 -14 7 -33.5t26 -19.5q20 0 44 19.5t44 52t33.5 75.5t13.5 92v-2zM516 817 q23 -8 28 -12t21 -21q-29 -20 -46 -21t-44 -3q-10 0 -19.5 10t-9.5 21q2 16 8.5 30.5t22.5 22.5q-4 -10 -7 -18.5t-3 -18.5t8 -10q10 0 12 9t7 15q0 10 -7.5 12.5t-11.5 10.5q6 27 20.5 56.5t36.5 55.5q18 20 29.5 42t23 41.5t22.5 38t28 36.5l7 18q7 17 19.5 44.5t30 59.5 t37.5 58q12 16 25.5 43t26 52.5t23.5 44t19 18.5q12 0 27.5 -4t30 -12.5t24.5 -19.5t10 -25q-2 0 -13 -22.5t-26.5 -50.5t-31 -52.5t-21.5 -26.5q-14 -6 -22 -17.5t-15.5 -23.5t-14.5 -24.5t-19 -20.5q-8 -4 -12.5 -13.5t-10.5 -17.5q0 -27 -20.5 -49t-45 -43.5t-45 -43 t-20.5 -44.5q0 -6 4 -11t4 -11t-4 -13.5t-14 -7.5q-8 2 -12.5 3t-8.5 1q-8 0 -18 -16h4q-10 0 -10 -8q0 -4 10 -9l-4 2q-6 -16 -12.5 -32.5t-22.5 -24.5l2 -2q0 -2 2 -2zM160 264q16 23 34.5 57.5t49.5 57.5l-2 -2h18l-2 2q4 -12 17.5 -14.5t21.5 -12.5q-4 -10 -8 -19 t-8 -20l-11 -5q-10 -5 -21 -11t-20.5 -13.5t-9.5 -11.5q0 -8 4 -8q10 0 12.5 6t4.5 13.5t5 15.5t13 12l21 4l8 -4t4 -4q-10 -23 -21.5 -47t-21.5 -49q-2 -4 -9.5 -10t-15.5 -17.5t-14 -28t-6 -40.5q0 -18 -6.5 -35t-16.5 -33q-4 0 -5 1t-3 1q-12 0 -21.5 -8t-19.5 -8 q-4 0 -10 2t-10 2q-12 0 -24.5 -6t-23.5 -6q-23 0 -22 30q0 20 6 35.5t13.5 29t13.5 27t6 29.5q0 4 15.5 14.5t25.5 18.5l-2 -2q4 4 10 6t10 6q-4 2 -10 3t-10 3h2q0 20 9 24.5t36 18.5zM182 225q-2 -4 -4 -5t-4 -5q4 0 6 -1t6 -1t4 4q0 8 -8 8zM244 379q-23 0 -28 5t-5 22 q2 14 10 21t17.5 10t16.5 7.5t7 14.5q0 27 14.5 36t34.5 21q23 -12 23 -20q0 -10 -11.5 -17.5t-11.5 -15.5q0 -10 14.5 -9t14.5 -5q0 -14 -12.5 -23.5t-24.5 -9.5q-4 0 -8 2t-8 2q-12 0 -17.5 -9.5t-11.5 -17.5l2 2zM473 639q-4 -4 -9 -8t-9 -4q-16 0 -28.5 -8.5t-23 -17.5 t-17.5 -16t-15 -7q-4 0 -8.5 2t-4.5 8q10 20 21.5 38.5t36.5 26.5q6 2 12 11.5t10 19.5t9.5 18.5t11.5 8.5q8 0 16 -5.5t19 -11.5l2 2q0 -6 1 -11t1 -9q0 -10 -9 -19l3 -2q-10 10 -19 11q-4 0 -10 -5.5t-6 -9.5q0 -2 16 -12zM571 874q14 -12 15 -14q0 -8 -4 -11t-9 -7 q-2 4 -5 6t-3 6q2 6 3 11t3 12v-3zM455 586q-2 -2 -4 -2h-5q-2 0 -2 2l2 2q4 4 5 4q4 0 4 -6zM387 520q2 -4 4 -9t2 -11q0 -8 -6 -8t-6 8q2 6 4 11t2 9zM635 958q2 -2 3 -1t3 -1v-6t-4 -4t-4 6q0 2 1 3t1 3zM492 700l2 -6zM387 520q10 4 27 8v-2l-25 -6h-2zM414 532v-6v6z M121 209q-2 4 -2 16h2q0 -2 -1 -3t-1 -3q0 -4 1 -5t1 -5z" />
<glyph unicode="&#x26;" horiz-adv-x="1193" d="M332 1341q6 4 37.5 22.5t73.5 39t85 37t72 16.5q14 0 31.5 -8t34.5 -8q12 0 23 2t22 2q25 0 48 -6t42 -27q4 -6 13 -14t13 -8q6 0 9.5 6t4.5 14t4 14.5t11 6.5q14 0 25.5 -13.5t18.5 -31t10 -36t3 -28.5q0 -16 -2 -32.5t-2 -33.5q0 -16 2 -34.5t2 -36.5q0 -20 -7 -45 t-32 -25q-23 0 -28.5 16.5t-16 36t-36 36t-82.5 16.5q-53 0 -118 -20.5t-121 -59.5t-94 -93.5t-38 -123.5q0 -18 10 -41t33 -23q10 0 44 17.5t62 27.5h-2q0 -4 30 -19.5t68 -40t72.5 -56t42.5 -64.5q0 -12 -17 -27.5t-42 -29t-50.5 -21.5t-41.5 -8q-37 0 -64.5 -11.5 t-49 -25.5t-37 -27.5t-29.5 -15.5q-25 -6 -49.5 -31.5t-46 -59.5t-35 -67.5t-13.5 -54.5q0 -23 5.5 -42t15.5 -42q16 -37 27.5 -60.5t24.5 -41t31.5 -31.5t51.5 -35q41 -27 78 -43t76 -16q47 0 105 23.5t108.5 66.5t85 103.5t34.5 133.5v33t-3 36t-10 28.5t-19 11.5t-15 -4 q-14 -29 -36.5 -58.5t-49 -54t-57.5 -41t-62 -16.5q-35 0 -74.5 23.5t-43.5 62.5q0 6 6 10t12 4q4 0 10 -1t11 -1q31 0 53 15.5t43 37.5q45 47 76.5 93.5t62.5 100.5t64.5 118.5t83.5 148.5q10 18 36.5 44t60.5 50.5t70.5 41t67.5 16.5q16 0 37.5 -4t21.5 -29q0 -35 -26 -47 q-29 -12 -60.5 -30.5t-60.5 -45t-51.5 -61.5t-34.5 -76q-4 -16 -16.5 -30.5t-12.5 -30.5q0 -27 -17 -46.5t-17 -46.5q0 -12 8 -20q25 -25 40 -45.5t22 -42t9 -46t2 -57.5q0 -29 -21.5 -66.5t-31.5 -74.5q-12 -43 -38.5 -76.5t-49.5 -74.5q-12 -23 -48 -51.5t-82 -54.5 t-97 -43t-96 -17q-27 0 -61 5t-69.5 14t-69.5 23.5t-59 34.5q-29 25 -61 31q-4 0 -13 13.5t-19.5 31t-23 36t-22.5 30.5q-2 2 -14 23.5t-25.5 53t-25 67.5t-11.5 69q0 16 11.5 28.5t11.5 28.5q0 14 -4 26.5t-4 24.5q0 16 11 24.5t11 18.5q0 4 -1 8.5t-1 8.5q0 6 10.5 27.5 t23.5 46t27.5 44t22.5 19.5q12 2 23.5 14.5t19.5 29.5t13.5 32.5t5.5 23.5q0 6 -4 19q-27 53 -42.5 105t-15.5 110q0 39 5 69.5t14.5 55t20.5 45t24 43.5q12 23 26.5 36t28.5 24t23.5 22.5t9.5 31.5z" />
<glyph unicode="'" horiz-adv-x="393" d="M166 1174q0 35 13.5 80.5t13.5 84.5q0 18 -1.5 39t-1.5 33q2 16 13.5 26.5t25.5 10.5q27 0 49.5 -12.5t39 -32t25.5 -42t9 -40.5q0 -29 -6 -70t-23.5 -78.5t-48 -65.5t-79.5 -28q-25 0 -27 30t-2 65z" />
<glyph unicode="(" horiz-adv-x="827" d="M754 -526q-72 6 -121 23.5t-88 58.5q-37 39 -80 74.5t-70 82.5q-25 41 -50.5 84t-45.5 88q-16 35 -27.5 71t-48.5 56q-8 8 -9 14.5t-1 16.5q0 47 -21.5 94t-21.5 94q0 23 9 46.5t32 48.5q-31 16 -39 36.5t-8 43.5q0 123 16.5 231t40.5 221q2 4 2 19q2 20 12.5 35.5 t21.5 30.5t21.5 31.5t12.5 39.5q2 39 22.5 73.5t40.5 69.5q23 39 57.5 87t75.5 98.5t86 97.5t86 84t75 59.5t57 22.5q16 0 40.5 -9.5t52 -25t56.5 -32.5t51 -34q-2 -41 -20.5 -51t-40.5 -14q-57 -10 -101.5 -39t-78.5 -70q-25 -29 -54.5 -55.5t-59.5 -54t-55.5 -55 t-41.5 -58.5q-29 -53 -65 -104.5t-54 -110.5q-12 -39 -29.5 -77t-33 -76t-25.5 -77.5t-10 -82.5q0 -55 -10.5 -111.5t-10.5 -112.5v-26.5t2 -26.5q25 -186 86.5 -356t192.5 -312q20 -23 37.5 -37t37 -30.5t43 -37.5t54.5 -56z" />
<glyph unicode=")" horiz-adv-x="761" d="M70 1614q16 6 31.5 8t31.5 2q39 0 82 -16q119 -45 207 -123t139 -195q8 -20 16.5 -39.5t8.5 -42.5q0 -18 -11.5 -34.5t-11.5 -38.5q0 -18 6 -31q29 -63 29 -137q0 -53 -12.5 -108.5t-12.5 -110.5q0 -31 -5 -51.5t-10 -38t-10 -33t-5 -33.5q0 -23 1 -46.5t1 -45.5 q0 -41 -9.5 -79t-46.5 -67q-18 -16 -27 -42.5t-14.5 -58.5t-11.5 -64.5t-18 -59.5q-16 -35 -42 -65.5t-50 -63.5q18 -23 18 -41q0 -10 -8 -22.5t-27 -16.5q-33 -10 -51 -46t-33.5 -81t-33 -93t-48.5 -83q-23 -25 -39 -53.5t-33.5 -52t-39 -40t-51.5 -16.5q-41 0 -72 28 t-72 93q68 31 128.5 77t82.5 120q10 37 31.5 70.5t44.5 68.5q-12 27 -12 53q0 80 96 148q-16 23 -17 47q0 18 8.5 33.5t19.5 31t21.5 31.5t16.5 33q12 41 39 73.5t49 67.5q-14 16 -23.5 28.5t-15.5 18.5q20 61 47 123t27 117q0 27 -4 52.5t-4 53.5q0 45 2 90t2 93 q0 160 -57.5 295t-182.5 219q-25 16 -43 36.5t-22 57.5zM467 537q-23 6 -35 6q-10 0 -13 -6.5t-11 -10.5l8 -12q24 9 51 23z" />
<glyph unicode="*" horiz-adv-x="610" d="M252 1018q0 4 -1 10t-1 12q-4 4 -12 9q-4 0 -7 -2q-2 -2 -13 -13.5t-24.5 -25t-28.5 -23.5t-26 -10q-4 0 -7 6t-3 10q4 25 24.5 57.5t44 65.5t42 62.5t18.5 52.5q0 14 -21.5 32.5t-46 38t-46 40t-21.5 38.5q0 2 5 5t9 3q20 -4 29 -8q2 0 13 -9t26.5 -20.5t32 -19.5 t26.5 -8q12 0 16.5 25.5t8.5 56.5t9 56.5t21 25.5q20 0 36 -13.5t26 -31t15 -30.5l5 -13q12 0 19.5 7t13.5 14t11.5 14.5t15.5 7.5q20 0 44.5 -22.5t24.5 -43.5q0 -16 -19 -33.5t-42 -36t-42 -35t-19 -28.5q0 -6 4 -10q20 -14 43.5 -27.5t46 -28t40 -32t27.5 -39.5 q0 -20 -18 -21q-16 0 -35.5 11.5t-38 23.5t-37 23.5t-32.5 11.5q-6 0 -13.5 -5t-9.5 -9l-7 -39t-19.5 -85t-30 -85t-39.5 -39q-25 0 -31 20.5t-6 51.5v47v8z" />
<glyph unicode="+" horiz-adv-x="985" d="M164 649q12 8 26.5 15.5t24.5 7.5q37 0 75 -15.5t77 -15.5q14 0 22 18.5t12.5 44t5.5 54t1 47.5q0 33 -7 67q0 10 10.5 12.5t16.5 2.5q61 0 91 -43t30 -135q0 -37 13 -45.5t50 -8.5q45 0 66.5 10.5t54.5 10.5q6 0 20.5 -5t30 -14.5t26.5 -20.5t11 -22q0 -12 -16.5 -19 t-34.5 -7q-72 0 -119 -3t-75.5 -20.5t-43 -52.5t-16.5 -98q-2 -43 -2 -71t-6 -45t-22.5 -26.5t-49.5 -15.5q-31 0 -46 13.5t-17 47.5q0 16 1 32t1 32q0 12 -3 24.5t-3 24.5t5 23.5t5 21.5q0 23 -8.5 50.5t-36.5 27.5q-6 0 -12.5 -1t-12.5 -1q-45 0 -91 23.5t-54 74.5z" />
<glyph unicode="," horiz-adv-x="497" d="M176 -170q-12 12 -14 17.5t-2 17.5q0 35 3 68.5t5 68.5q-20 33 -32.5 51.5t-12.5 44.5q0 18 8 48t29 30q29 0 56.5 -12t49 -30.5t34.5 -43t13 -49.5q0 -31 -13 -60.5t-32.5 -57t-44 -51.5t-47.5 -42z" />
<glyph unicode="-" horiz-adv-x="864" d="M649 549q-35 12 -67 12q-18 0 -38 -4t-38 -4q-16 0 -33.5 2t-34.5 2q-25 0 -47 -9t-39 -9q-4 0 -8 1t-8 1q-12 0 -24.5 -8.5t-24.5 -8.5q-16 0 -38 14.5t-40.5 38t-31.5 51t-13 52.5q0 10 4 19.5t16 9.5q16 0 28.5 -14.5t31.5 -14.5q23 -2 43 -2h43q63 0 127.5 2t132.5 2 q18 0 37.5 -8t36 -20.5t26.5 -29t10 -32.5t-14 -30.5t-29 -14.5q-4 0 -5 1t-3 1z" />
<glyph unicode="." horiz-adv-x="485" d="M123 96q2 6 2 18.5t4 24t14.5 19.5t30.5 8t43 -6t41 -18.5t30.5 -31t12.5 -42.5q0 -33 -26.5 -66t-61.5 -33q-47 0 -68.5 42t-21.5 85z" />
<glyph unicode="/" horiz-adv-x="780" d="M780 1235q-12 -25 -21 -51.5t-20.5 -50t-25 -42t-31.5 -30.5q-2 -35 -18.5 -77t-37 -80t-39 -65.5t-24.5 -33.5q-41 -43 -60.5 -92t-49.5 -88q-12 -12 -20.5 -48t-33.5 -61q-8 -23 -23.5 -45t-31.5 -42.5t-28.5 -36t-12.5 -21.5q0 -4 2 -9.5t2 -9.5q0 -25 -19.5 -46 t-37.5 -32l-10 -14q-9 -14 -20 -35.5t-20.5 -43t-9.5 -34.5q0 -4 -11 -18t-27.5 -31.5t-36 -33t-33.5 -19.5q-20 8 -51 28.5t-31 43.5q0 35 10 64.5t25.5 57t33 54t29.5 57.5q10 27 21.5 52.5t25.5 50.5q10 20 30 37.5t20 27.5q0 23 14 52.5t35.5 62.5t46 67.5t43.5 67.5 q20 37 43.5 69.5t47.5 66.5t47.5 71t45.5 82q31 49 60.5 98t58.5 98q8 14 14 34t12.5 38t15.5 30.5t21 12.5q25 0 40.5 -16.5t24.5 -38t12 -44t3 -34.5zM365 492q0 2 -3 4q-6 0 -6 -9q2 -2 4 -2q5 1 5 7z" />
<glyph unicode="0" horiz-adv-x="1013" d="M305 477q0 -23 -3 -42t-3 -42q0 -4 6 -39t15.5 -74.5t20.5 -73.5t21 -34q8 0 13.5 9t9.5 9l4 -6q6 -31 45 -48t70 -17q59 0 106 47t81 113.5t56.5 140.5t32.5 127q8 4 16.5 7t8.5 13q-2 16 -6 29.5t-15 26.5l2 -5q29 23 29 54q0 16 -4 30.5t-4 28.5q0 20 2 41t2 43 q0 37 -6 68.5t-13.5 64.5t-13.5 67t-6 70q0 2 4 4.5t8 2.5q14 -4 20.5 -20.5t12.5 -36t13.5 -38t21.5 -26.5q6 -4 10 -18.5t7 -33t5.5 -37t2.5 -28.5q0 -39 7 -74t7 -73q0 -23 -9.5 -49.5t-13.5 -49.5l2 2q-23 -29 -22 -61q0 -10 3 -22.5t3 -24.5t-4 -24.5t-4 -22.5 q0 -20 6 -35q-10 -10 -19.5 -16.5t-9.5 -20.5q0 -25 -10 -50.5t-24.5 -53l-29 -55t-26.5 -52.5q-10 -23 -26.5 -34t-20.5 -23q-4 -25 -24.5 -34t-30.5 -28q-2 -4 -19.5 -12t-39 -17.5t-43 -16.5t-29.5 -7q-23 0 -48.5 4t-50.5 8q-8 2 -11 8.5t-13 8.5q-2 0 -24.5 16 t-49.5 38.5t-49.5 46.5t-22.5 40q0 4 1 6t1 4q0 4 -13 43t-30.5 93.5t-31 115t-13.5 109.5q0 16 2.5 31.5t8.5 29.5q-2 23 -17.5 29t-15.5 18q2 6 2 19q0 8 -1 14t-1 14q0 10 10 20.5t10 24.5q0 10 -4 21.5t-4 21.5q0 6 2 13.5t2 15.5q0 10 -4 19.5t-4 19.5q0 20 8 38.5 t8 37.5q0 41 9.5 73.5t19.5 67.5q8 35 18.5 76t23.5 78t33.5 64.5t49.5 35.5q12 2 24.5 13.5t26 24.5t29.5 23.5t35 10.5q10 0 13 -14.5t7 -14.5q6 0 11.5 11.5t21.5 11.5q31 0 63.5 -7.5t61.5 -7.5q4 0 8 1t8 1q14 0 21.5 -10t17.5 -10t24.5 -5t27 -14.5t21.5 -19.5t9 -23 q0 -12 7 -30.5t16.5 -38t16.5 -39t7 -35.5q0 -20 -4 -25q-2 0 -12 8.5t-21.5 18.5t-22.5 22.5t-18 22.5q-8 14 -23 32.5t-39 35t-53.5 29t-68.5 12.5q-45 0 -81 -30t-61.5 -73t-38.5 -92t-13 -86q0 -6 1 -12t1 -13q0 -16 -13.5 -47.5t-17.5 -60.5q-4 -37 -15.5 -77 t-11.5 -75q0 -27 6.5 -55.5t10.5 -56.5q-10 -16 -12.5 -41t-2.5 -47q0 -29 6 -41.5t31 -22.5zM236 424l-3 -4q4 -2 5.5 -3t5.5 -3q-4 0 -8 4v6zM219 512q2 14 2 25.5v21.5q0 4 -8 8q-4 -4 -4 -14v-20.5t10 -20.5zM854 868q-2 6 -5 14.5t-7 8.5q-8 0 -8 -6q0 -16 16 -25z M201 897q-2 -2 -4 -2q-4 -4 -4 -6q0 -4 2 -8t4 -9q2 4 4 6.5t2 6.5t-4 12zM258 852q0 -2 4 -2v4q0 2 -4 2v-4zM215 774q0 -6 2 -6q4 0 4 6h-6zM868 608q23 -2 23 -10q0 -4 -3 -10t-14 -10q-4 6 -4 14t-2 16zM774 1278q6 -6 11.5 -10t5.5 -13q0 -8 -5 -8q-6 0 -7 10.5 t-5 20.5zM846 1040l2 -8l-4 2zM797 1165l2 -6zM369 238l2 4zM786 618v7q2 0 2 -4q0 2 -4 2zM774 1278q4 -6 2 -6t-2 1t-2 1q2 2 6 2zM236 418q4 -4 8 -4z" />
<glyph unicode="1" horiz-adv-x="831" d="M614 864q-8 -16 -8 -28q0 -8 2 -14.5t4 -16.5q-18 -18 -29.5 -27.5t-11.5 -29.5q0 -10 2 -17l2 2q-10 0 -25 -2t-15 -12q0 -20 14 -23.5t26 -11.5l-2 2q2 -4 2 -16q0 -14 -6 -21.5t-13 -13.5t-13 -11.5t-6 -13.5q0 -6 3 -15t13 -9q4 0 10 1t10 1q12 0 13 -13v-29t-8 -28 q-2 4 -5.5 10.5t-7.5 6.5q-8 0 -8 -9q0 -6 6 -8q4 0 8 1t9 1q-6 -10 -17.5 -20.5t-23 -20.5t-18.5 -18t-7 -10q0 -12 10 -13q12 0 13.5 11.5t5.5 21.5q20 -4 20 -18q0 -6 -1 -13.5t-1 -13.5q0 -20 5 -42t7 -44v-36.5t-8 -37.5q0 -4 2 -6t2 -6q0 -25 -14 -32t-14 -27 q0 -16 5 -39t11 -44.5t11 -40t5 -26.5q0 -16 -14 -35.5t-57 -48.5q-16 0 -26.5 -11t-26.5 -11q-8 0 -17.5 11t-16.5 25.5t-11.5 27.5t-4.5 17q0 10 8.5 40t8.5 61q0 12 -7.5 25.5t-7.5 25.5q0 39 6.5 68.5t20.5 68.5q0 2 6 3t14.5 3t14.5 5.5t6 11.5q0 12 -10 32.5t-17 34.5 q14 27 28.5 50.5t14.5 48.5q0 10 -14 28.5t-14 38.5q0 4 1 17.5t4 29t6 31.5t7 29q6 20 8 42.5t2 45t2 42t9 36.5q8 18 11 39.5t5 42t4 42t10 39.5q8 25 12.5 50.5t7.5 52t7 54.5t14 54q0 2 1 4.5t1 4.5q0 10 -7 22t-21 12q-27 0 -48.5 -26.5t-42 -60t-41 -66.5t-42.5 -47 q-4 -2 -18.5 -18.5t-32 -41t-34 -50t-24.5 -46.5q-6 -14 -35.5 -55t-65.5 -85t-68 -79t-40 -35q-29 0 -29 27q0 8 5 12q63 98 131.5 192.5t146.5 180.5q8 8 16.5 22.5t17.5 27.5t18.5 24.5t15.5 15.5q43 41 73.5 90t75.5 82q27 20 37 45t19.5 46.5t28 38.5t63.5 21 q45 0 53 -15t8 -38q0 -18 -7 -35.5t-16.5 -41t-19.5 -57.5t-18 -85q0 -49 -19.5 -88t-19.5 -61q0 -4 2 -9.5t2 -9.5q0 -12 -11.5 -29.5t-11.5 -39.5l-4 2h2q4 2 6 5t7 3q10 0 10 -17q0 -14 -9.5 -25t-9.5 -22q0 -6 4.5 -13t4.5 -15q0 -6 -3.5 -9.5t-5.5 -7.5q-6 2 -11 2 t-9 2q-2 0 -2 -1t-2 -1l-2 -2q0 -8 4 -8q6 0 13 4t11 6zM485 412q0 -4 1 -6.5t1 -6.5q0 2 2 4l-6 7zM526 520q-2 4 -3 8t-3 4q-6 0 -10 -4t-4 -8q0 -10 8 -10t12 10zM573 731q10 -4 13.5 -14t3.5 -21q0 -2 -6 -4t-11 -6l2 -2q-8 16 -8 25q0 6 6 22z" />
<glyph unicode="2" horiz-adv-x="794" d="M496 780q-12 -10 -13 -22q0 -10 4.5 -16.5t4.5 -16.5t-9.5 -21.5t-20.5 -23.5t-20.5 -27.5t-9.5 -36.5q0 -20 -8 -35.5t-18.5 -26.5t-18.5 -19.5t-8 -14.5q0 -18 7 -25.5t24 -15.5q82 -10 134 -49t105 -98q10 -12 24.5 -18.5t28 -13.5t22.5 -17.5t9 -28.5 q0 -23 -22.5 -40t-51.5 -17q-37 0 -67.5 27.5t-60 61t-59.5 61.5t-60 28q-14 0 -26.5 -7.5t-29.5 -11.5q10 -14 15.5 -19t5.5 -11q0 -8 -14.5 -13.5t-14.5 -11.5q0 -10 6 -17.5t6 -17.5q0 -20 -8 -27.5t-17 -9.5t-17.5 -4t-8.5 -12q0 -8 4 -19.5t9 -21.5q-16 -29 -43 -55.5 t-35 -48.5q-4 -18 -24.5 -33t-31.5 -37q-2 -18 -18 -33.5t-37.5 -28t-47.5 -19.5t-46 -7q-4 0 -15.5 7t-25.5 16.5t-28.5 19.5t-26.5 16q0 18 -1 37t-3 35q0 27 4 53.5t16 50.5q10 16 13 37t14 35l11 27q11 28 40 65t77 75t122 60q16 4 33.5 11.5t33.5 26t32.5 55 t31.5 100.5q8 39 23.5 69.5t15.5 65.5q0 45 12 104.5t26.5 127t26.5 139t12 137.5q0 4 -4 10t-8 6q-25 0 -49.5 -36.5t-40.5 -67.5q-6 -8 -6 -35t-5 -55.5t-16.5 -51t-38.5 -22.5q-37 0 -70.5 22.5t-33.5 82.5q0 55 33 102q6 8 12 14t8 17q6 20 19.5 33.5t28 24.5t28.5 20.5 t22 25.5q16 29 54.5 36t66.5 7q86 0 118 -45t32 -149q0 -20 -4 -29q-12 -31 -18.5 -65.5t-13.5 -67.5t-17.5 -61.5t-28.5 -47.5q2 -18 2 -35.5v-33.5q0 -35 -14 -52.5t-43 -46.5zM268 266q-2 10 -4 19.5t-2 19.5q0 14 10 35q-4 4 -5 7t-5 3q-16 0 -22 -4 q-86 -53 -134.5 -128t-48.5 -171q0 -6 8.5 -12t14.5 -6q16 2 39.5 23.5t45 51t39 62.5t23.5 57q2 14 15.5 22.5t25.5 20.5zM461 715q4 8 4 12l-4 2l-4 -4q-2 -2 -4 -2q2 -2 4 -3t4 -5zM289 178q-4 0 -4 -4q0 -2 1 -3t1 -3q4 4 4 6t-2 4zM555 1012q-2 2 -2 3t-2 3 q-4 -4 -6 -4q0 -8 4 -8q6 0 6 6zM494 778l2 2z" />
<glyph unicode="3" horiz-adv-x="825" d="M350 147q10 16 23.5 33t23.5 35q20 35 52 66.5t49 76.5q12 33 36.5 66t24.5 49q10 57 31.5 106.5t21.5 108.5v35.5t-5 37t-15 29t-29 11.5q-18 0 -37.5 -3t-40.5 -7q-20 -16 -44.5 -41t-51.5 -29q-14 -4 -34.5 -29.5t-41 -63.5t-39 -82t-28.5 -81q-29 -23 -56 -41 q-43 16 -61 54t-18 77q0 18 8 33q18 39 43.5 69.5t52.5 58t50.5 57.5t39.5 65q4 10 17.5 31.5t28 46t25.5 50t11 44.5q0 47 23.5 93t33.5 97q6 35 19.5 66.5t19.5 72.5q0 14 -16 15q-20 0 -48 -21.5t-48 -29.5q-18 -29 -47 -45.5t-41 -49.5l-19 -26q-18 -25 -41.5 -55.5 t-45 -56.5t-27.5 -26t-18.5 10.5t-23 24t-18.5 28.5t-8 28q0 14 17.5 39.5t41 53t49 51.5t41.5 32q20 8 41 31.5t48.5 47t65.5 42t91 18.5q55 0 91 -33t36 -82q0 -55 -29.5 -112.5t-52.5 -114.5q-6 -20 -18 -37.5t-25.5 -35t-25 -36t-13.5 -43.5q-4 -12 -15 -28.5t-11 -24.5 t11 -13t21 -5q8 2 16.5 2h16.5q10 0 19.5 -1t19.5 -1q14 0 28.5 2t31.5 2q59 0 98 -32t43 -85q0 -23 12 -35t12 -28q0 -20 -15 -54t-38 -51q-4 -2 -4 -8q0 -2 6 -10t17 -13q-4 -18 -22.5 -31.5t-22.5 -33.5v6q8 -8 9 -18.5t1 -22.5q0 -33 -12.5 -53.5t-24.5 -36.5 q-8 -12 -10 -26.5t-4 -27t-7.5 -23.5t-19.5 -17q-4 -2 -8 -15q-12 -25 -18.5 -39t-13.5 -24t-16.5 -20.5t-25.5 -26.5q-8 -8 -8 -14q-23 -39 -45 -68q-18 -27 -35.5 -47.5t-26.5 -20.5q-16 0 -27.5 -9t-20.5 -19.5t-18 -19.5t-22 -9q4 0 -26.5 9t-77.5 40q-6 6 -17.5 18.5 t-20.5 27t-16.5 27.5t-7.5 19q0 4 3.5 14.5t8.5 20.5t13 18.5t18 8.5q6 0 18.5 -8.5t25 -19.5t22.5 -19.5t16 -8.5q16 0 36 18.5t46 24.5q2 -2 6 -2t6.5 1t6.5 1t12 -4q-6 6 -6 4q0 4 4 5l4 -2q0 -2 -2 -5h-16.5t-16.5 2z" />
<glyph unicode="4" horiz-adv-x="890" d="M631 35q-8 8 -12.5 14t-8.5 6q-10 0 -12 -13t-5 -28.5t-11.5 -28t-28.5 -12.5q-16 0 -32.5 2t-33.5 5q-8 12 -6 24t-2 23q-4 12 -10 28.5t-6 28.5t2 24.5t2 26.5q0 12 -3 23.5t-3 23.5t6 22.5t6 24.5q0 8 -1 15.5t-1 15.5q0 27 5 52.5t20 49.5q0 14 -1 26.5t-1 27.5 q0 41 13 80t13 77q0 45 -16 99q-45 -4 -82 -20.5t-74 -33.5q-18 -8 -34.5 -22t-35 -29.5t-40 -31t-48.5 -25.5q-14 2 -32.5 9t-36 17.5t-28.5 22.5t-11 25q0 12 8 23t8 28q0 4 -1 10t-1 10q0 18 9.5 42t19.5 46.5t19.5 44t9.5 35.5q0 4 -1 5t-1 6q10 20 22 43.5t12 40.5 q0 8 -5 15t-5 15q0 20 13.5 42t13.5 46q0 6 -1 11.5t-1 11.5q0 14 6 26q18 59 27.5 120t27.5 120q6 18 6 37q0 8 -1 16t-1 17q0 16 18.5 19t28.5 7q66 0 66 -73q0 -23 -9.5 -50.5t-20.5 -55.5t-20.5 -51.5t-9.5 -37.5q0 -18 -6 -40.5t-12 -46.5t-12 -45.5t-6 -35.5 q0 -10 5 -18.5t5 -20.5q0 -18 -4 -42.5t-9.5 -49.5t-9.5 -45.5t-4 -26.5q0 -16 3 -30.5t22 -14.5q53 16 110.5 28.5t114.5 22.5q25 4 38 36t21.5 78t13.5 98.5t12 96.5t18.5 73.5t33.5 29.5q16 0 36 -2t37 -9t29.5 -19.5t12.5 -32.5q0 -37 -5 -76t-9 -76q0 -23 -12.5 -40 t-12.5 -40q0 -10 1 -17t1 -16q0 -49 -5 -108t-30 -115q-10 -20 -15 -39.5t-5 -42.5q0 -33 -21.5 -57.5t-21.5 -50.5q0 -10 6 -21.5t6 -19.5q0 -6 -6 -19.5t-6 -25.5q0 -16 7 -33.5t7 -36.5q0 -16 -5 -33.5t-5 -33.5q0 -35 12.5 -50.5t12.5 -42.5q0 -6 -3 -8q-20 -23 -21 -47 t-7 -53zM610 498q-4 -4 -9 -5t-5 -10q0 -10 12 -10q2 0 4 2q4 4 4 10q0 4 -2 6.5t-4 6.5z" />
<glyph unicode="5" horiz-adv-x="821" d="M174 61q-8 10 -17.5 19.5t-9.5 19.5q0 4 7.5 14.5t16.5 19.5t19.5 16.5t16.5 7.5q20 -18 43 -33q18 -12 39.5 -22.5t44.5 -10.5q35 0 61.5 17.5t44 40t26.5 42t11 23.5q33 41 53.5 96.5t26.5 108.5q0 23 -3 47.5t-3 50.5q0 8 -9.5 50t-25.5 88t-38.5 83t-51.5 37 q-27 0 -49.5 -11t-40 -27.5t-28.5 -35t-13 -30.5q-6 -25 -20.5 -50.5t-14.5 -43.5q0 -8 6 -15.5t6 -13.5q0 -14 -16 -19.5t-27 -7.5q-8 0 -12 8.5t-7 18.5t-7 18t-15 8q-12 0 -27.5 -4t-31.5 -8q-16 10 -25.5 24.5t-21.5 26.5q2 6 2 17q0 61 33 106q25 35 40 93.5t26.5 125 t22.5 135t27.5 123t40 89t62.5 34.5q10 0 20.5 -1t20.5 -1q29 0 55.5 7.5t54.5 17.5q18 6 42 20.5t48.5 27.5t48 23.5t42.5 10.5q2 0 19.5 -7.5t37.5 -19.5t37.5 -28.5t17.5 -36.5q0 -10 -6 -19.5t-20 -11.5q-29 -4 -60.5 -15.5t-62.5 -22.5t-59.5 -19.5t-55.5 -8.5 q-6 0 -11 2t-11 2q-59 0 -83 -23.5t-33 -60t-14.5 -80.5t-27.5 -83q2 -6 2 -15q0 -16 -8 -31.5t-8 -31.5q0 -20 18 -24.5t35 -4.5q6 0 12 1t14 1q39 0 83 -14t79 -39t58.5 -58.5t23.5 -72.5q0 -8 -2 -15.5t-2 -13.5q0 -33 15.5 -71.5t15.5 -110.5q0 -35 -15.5 -61.5 t-15.5 -57.5q0 -10 5 -22.5t5 -24.5q-2 -25 -15 -61.5t-33.5 -77.5t-46.5 -83t-54 -77q-12 0 -26.5 -12.5t-33 -26.5t-41 -26.5t-51.5 -12.5q-27 6 -53.5 6t-48.5 21q-10 10 -31.5 14t-21.5 25q0 8 3 17t3 24q-10 -2 -16.5 -3.5t-10.5 -9.5zM606 344q-4 -2 -9 -3t-5 -7 q0 -10 10 -10q16 0 16 12q0 4 -5 5t-7 3zM172 61l-4 5q2 -2 3 -2.5t3 -2.5h-2z" />
<glyph unicode="6" horiz-adv-x="909" d="M307 829q0 -31 -8 -58.5t-17.5 -55t-17.5 -56t-8 -59.5q0 -23 -14.5 -52.5t-14.5 -62.5q0 -6 3 -16t14 -10q14 0 27.5 15t19.5 30q6 12 19.5 19t31.5 11.5t37.5 6.5t36.5 2q10 0 18 -4t19 -4q4 0 10 2t10 2q12 0 37 -5.5t53.5 -15.5t56 -26.5t46.5 -38.5q2 -2 12 -13.5 t22.5 -26t21.5 -28.5t9 -23q-2 -33 -2 -64.5t-2 -64.5q-16 -23 -30.5 -53t-30 -60t-33 -54.5t-37.5 -34.5q-16 -8 -38.5 -22.5t-46.5 -28t-44.5 -22.5t-32.5 -9q-6 0 -10 2q-51 10 -80 13t-47 10.5t-29.5 22.5t-29.5 50q-2 6 -15.5 20.5t-29 32t-28.5 35t-13 29.5q0 6 3 13 t7 13q-4 6 -10.5 17.5t-12.5 26t-11 28.5t-5 25q0 12 2 23.5t4 23.5q0 14 -3 26.5t-3 22.5t5 18.5t5 16.5t-5 11t-10 4t-10.5 4t-5.5 12q0 14 19.5 19t19.5 15q0 6 -5 11.5t-15 15.5q0 29 6 43t12 22.5t12.5 12.5t6.5 14q0 4 -7.5 8t-14.5 10.5t-14 15.5t-7 26q4 10 14 14 t12 20q0 16 9.5 29.5t19.5 24t18.5 19.5t8.5 15t-4.5 18.5t-4.5 24.5q0 6 1 20.5t7.5 34t19.5 42t36 43.5q12 10 23.5 32.5t25.5 49t29.5 53t38.5 49.5q37 66 91 113t118 88q31 20 62.5 45.5t72.5 25.5q16 0 40.5 -15t51 -37.5t49.5 -49.5t35 -49q0 -14 -14.5 -19.5 t-24.5 -5.5q-25 0 -37 13.5t-35 13.5q-18 0 -34.5 -8.5t-32.5 -8.5q-4 -2 -26.5 -12t-48.5 -23.5t-46.5 -27.5t-20.5 -23q0 -10 -14 -28.5t-34.5 -38t-45 -34.5t-45.5 -21q2 -4 4 -10.5t2 -4.5l-6 15h8q6 0 13 4q4 4 10 7t10 13q8 -12 8 -18l-5 -7q-5 -8 -13 -18 t-16.5 -21.5t-16.5 -17.5q-37 -29 -48 -57.5t-17.5 -52t-15.5 -39t-42 -15.5q-10 10 -14 23.5t-8 28.5q4 -4 6 -7.5t6 -7.5l4 4l-6 -2q6 8 6 21q0 8 -4 24q2 6 6 7q4 0 7 -2.5t7 -2.5q2 0 2 5q-2 -4 -6 -7q-8 -4 -10 -4t-6 4q0 -29 -17.5 -44t-17.5 -40q0 -12 12 -12 q8 4 16.5 7t18.5 7zM549 319q-10 10 -23.5 30t-28 39.5t-29.5 33.5t-32 14q-25 0 -53.5 -19.5t-53 -48t-41 -61.5t-16.5 -59q0 -37 23.5 -77t77.5 -108h51.5t44.5 21q4 4 16.5 18.5t25.5 34t23.5 39t10.5 31.5q0 6 -1 13t-1 13q0 23 3 43t3 43zM229 688q12 2 12.5 20.5 t16.5 26.5q0 4 -1 9.5t-7 5.5q-10 0 -17.5 -8.5t-7.5 -16.5q0 -10 1 -18.5t3 -18.5zM371 1024q-6 -4 -12.5 -8t-6.5 -12t4 -9q4 0 10.5 8.5t10.5 14.5zM260 786q-2 0 -2 2l-2 3l-6 -3q-2 0 -2 -2q0 -4 6 -4q2 0 6 4zM143 545q0 2 -1 2t-1 2v2q-2 0 -4 -2v-2q0 -4 2 -4 q0 2 4 2z" />
<glyph unicode="7" horiz-adv-x="927" d="M584 522q-6 -10 -9 -22q-6 -14 -16 -14.5t-10 -22.5q0 -4 1 -10.5t1 -10.5q0 -23 -10.5 -39t-10.5 -32q0 -6 4.5 -12.5t12.5 -6.5q6 0 15 4t16 6q8 0 10 -8t2 -12q0 -10 -8.5 -15t-17.5 -8.5t-16 -7.5t-7 -10q0 -12 6 -16t12 -4t12.5 -1t6.5 -8q0 -18 -10.5 -25 t-23 -12.5t-22.5 -13.5t-10 -31q0 -10 2 -27.5t10 -17.5q14 0 19.5 12.5t9.5 22.5q4 0 6 -13t2 -28q0 -47 -3 -70.5t-11 -34.5t-22.5 -13.5t-35.5 -4.5q-6 -10 -12 -17t-16 -7q-20 0 -44 11t-24 38q0 68 19 135q12 51 17 106.5t9 112.5q0 29 15.5 53.5t15.5 40.5 q0 10 -1 17.5t-1 15.5q0 29 14.5 54.5t14.5 48.5q0 10 -13.5 18t-19.5 8q-16 0 -34.5 -11t-37.5 -11q-57 0 -103 30.5t-61 85.5q0 8 7.5 17.5t21.5 9.5t34.5 -9t41.5 -9q37 0 79 10t78 18q4 0 14.5 16.5t21 39t17.5 45t7 35.5q0 4 -1 9t-1 9q2 37 11 70.5t15 68.5 q10 53 21.5 108.5t21.5 108.5q2 4 1 5t1 3q0 31 -30 31q-16 0 -29.5 -5t-30.5 -5q-4 0 -5 1t-5 1q-4 -2 -18.5 -7t-31.5 -11.5t-35.5 -10.5t-31.5 -4q-33 0 -62.5 -9t-59.5 -9q-14 0 -26.5 1t-25.5 1q-16 2 -44.5 9t-55.5 21.5t-46.5 36t-19.5 56.5q0 16 21 16q18 0 33.5 -7 t31 -14.5t31 -14.5t35.5 -7q39 0 82 7t84 12q31 8 61.5 6t61.5 6q23 6 48 8l50 4t51.5 15.5t42.5 13.5q18 0 35 -12q41 -33 69.5 -52.5t28.5 -54.5q0 -23 -13 -52.5t-29.5 -60t-30 -58.5t-13.5 -48q0 -25 -8 -49.5t-17 -51t-16.5 -52t-7.5 -50.5q0 -4 1 -9t1 -9 q0 -14 -3 -24.5t-7 -20.5q0 -16 12.5 -20.5t24.5 -4.5q16 0 33.5 3t33.5 3q20 0 49 -5t29 -26q0 -23 -21.5 -34t-52 -18t-62.5 -11t-50 -8q-6 0 -18.5 -9.5t-24.5 -23.5t-21.5 -29.5t-9.5 -27.5q0 -23 -9 -32t-19.5 -14.5t-19.5 -7.5t-9 -8t19.5 -12t31.5 -10 q0 -10 -7 -13.5t-11 -9.5q-4 0 -6.5 2t-6.5 2l-2 -2l2 -2q0 -2 2 -2q5 0 13 4zM487 283q8 0 15 -2q10 0 10 8q0 14 -8 14q-10 0 -12.5 -3t-3.5 -7t-2 -7t-9 -3q2 -2 4 -2t3 1t3 1zM678 934q0 2 -1 3t-1 3q-10 -6 -10 -10l2 -4q4 2 5 4t5 4zM578 631q-4 4 -5 4q-2 0 -3 -1 t-3 -1q4 -4 6 -4t2.5 1t2.5 1zM596 436q-4 -2 -5 -7t-7 -5q0 6 4 7t8 5zM598 434q-2 4 -4 6t-2 6q0 6 6 7q6 0 6 -7q-6 -6 -8 -10z" />
<glyph unicode="8" horiz-adv-x="890" d="M514 889q0 -4 1 -7t1 -8q0 -25 -9 -45t-22 -38q-2 -2 -10 -13.5t-16 -26t-15.5 -29.5t-7.5 -26q0 -27 37 -51t87 -45.5t100.5 -41t76.5 -36.5q8 -6 24.5 -22.5t31 -38t25.5 -44t11 -38.5t-9 -39t-11 -43q-2 -39 -23.5 -75t-44.5 -58q-6 -4 -18 -18.5t-27.5 -32t-33 -34 t-33.5 -24.5q-63 -33 -120.5 -63.5t-133.5 -30.5q-94 0 -177 50t-135 139q-14 0 -27 -8.5t-25.5 -17.5t-24 -16.5t-21.5 -7.5q-4 0 -14 3t-22.5 7.5t-21.5 11.5t-9 17q0 -2 19.5 11.5t44 36t49 51t36.5 57.5q4 16 20.5 25.5t20.5 27.5q41 41 73 89t72 85q-2 0 9.5 15.5 t25 36t24.5 40t11 25.5q-4 6 -12 27.5t-18.5 46t-21.5 46t-20 27.5q-8 29 -15 56.5t-7 58.5q0 53 19.5 100.5t23.5 96.5q4 33 18.5 59.5t18.5 56.5q12 12 20 27.5t15.5 31t15.5 30t22 26.5q10 8 15.5 18.5t9.5 20.5q8 14 25.5 29.5t37 28t35 19.5t19.5 7q20 0 38.5 -9 t36 -20.5t33 -21.5t29.5 -15q29 -8 43 -38.5t14 -67.5q0 -23 -22 -33q-33 -92 -48.5 -141t-21.5 -90q-27 0 -35 -15.5t-10 -37t-5 -46t-17 -43.5q-8 4 -17.5 7.5t-9.5 15.5l-2 -4zM219 348q-10 -6 -25.5 -18.5t-29.5 -27.5t-23.5 -33.5t-9.5 -37.5q0 -10 6 -20t10 -23 q8 -41 31 -67.5t54.5 -42t68.5 -21.5t74 -6q12 0 39.5 7.5t58.5 20.5t60.5 31.5t50.5 41.5q10 14 25.5 17t25.5 24q14 31 26.5 51t21.5 38.5t14 37t5 47.5q0 20 -17 40.5t-45 39t-65.5 34t-76.5 27.5q-16 4 -34 14t-34 20.5t-31.5 18.5t-27.5 8q-25 0 -40.5 -20.5t-27.5 -46 t-24.5 -49t-30.5 -29.5q-14 -4 -19.5 -30t-9.5 -46zM489 942q27 0 27 8q0 4 -1 11.5t-1 11.5q0 -2 6 20.5t15.5 50t21.5 53t23 31.5q14 10 16 50.5t2 66.5q0 29 -8 54.5t-41 25.5q-12 0 -37 -17.5t-49.5 -42t-43 -52t-18.5 -48.5q0 -25 -16 -47q-18 -35 -27.5 -95t-9.5 -112 q0 -33 7 -79t30 -68q10 0 15.5 8t8.5 19.5t7 22.5t14 17q12 8 18.5 22.5t10.5 30t10 31t20 27.5z" />
<glyph unicode="9" horiz-adv-x="1009" d="M582 178q16 -20 16 -39q0 -20 -9 -30.5t-20.5 -17.5t-20.5 -14t-9 -24q0 -18 -21.5 -31.5t-48.5 -20.5t-51.5 -11t-30.5 -4q-41 0 -77 35.5t-58 68.5q12 16 23.5 28.5t29.5 12.5t33.5 -10t34.5 -10q18 0 32.5 12t26.5 28.5t24.5 32t24.5 21.5q27 4 43.5 55t26.5 125 q4 16 17.5 27.5t13.5 31.5q0 23 12 38.5t12 29.5q0 4 -1 5t-1 5q0 25 18.5 43.5t18.5 38.5q0 10 -4 17.5t-4 17.5q0 12 6 32.5t13 43t13.5 45t6.5 41.5q0 4 -1 7t-1 7v11.5t4 11.5q27 43 34 102t7 100q0 6 -5 13.5t-16 7.5q-10 -2 -34.5 -28.5t-47.5 -41.5 q-10 -8 -34.5 -30.5t-51 -52t-51 -62.5t-33.5 -62q-41 -23 -83 -46t-80 -23q-10 2 -21.5 3t-26.5 1q-86 59 -117.5 130t-31.5 124q0 29 20.5 79t63.5 93q12 12 26.5 30.5t30 35t29.5 28.5t29 14q12 2 34.5 22.5t54 44t72.5 43t93 19.5q8 0 33.5 -8t53 -22.5t49 -34 t21.5 -41.5q0 -6 -5 -12.5t-9 -6.5q-29 0 -53.5 6.5t-49.5 6.5q-49 0 -115.5 -28t-128 -76t-103.5 -113.5t-42 -139.5q0 -29 10.5 -57.5t49.5 -28.5t75.5 23.5t73.5 54.5t74 59.5t72 39.5q4 0 10 17t12 17q16 0 33.5 14.5t36 35t38 42t42.5 35.5t36 39t23 48.5t18.5 41 t22.5 17.5q18 0 42 -5.5t44.5 -15.5t34.5 -24.5t14 -32.5t-6 -46t-14 -56.5t-18.5 -52t-18.5 -29.5q-4 -20 -15.5 -55.5t-26.5 -72t-33.5 -69.5t-35.5 -49q0 -10 3 -17.5t3 -11.5q0 -12 -15 -20.5t-30 -16.5q4 4 8.5 12.5t4.5 12.5q-2 2 -2 3t-2 3q-8 -20 -9 -31 q-2 -4 -9 -15t-14 -22.5t-12 -19.5l-6 -8q0 -4 11.5 -11.5t21.5 -13.5q-6 -8 -12 -15t-14 -16q0 -2 2 -10t2 -14q0 -12 -6 -19q-27 -27 -42.5 -47t-19.5 -51q10 -10 16.5 -9t6.5 -9q0 -6 -7.5 -12.5t-7.5 -12.5t6.5 -10t6.5 -10q0 -12 -5.5 -15.5t-11.5 -5.5t-11 -3t-5 -7 q0 -12 4 -32.5t4 -31.5q0 -14 -12.5 -28.5t-12.5 -18.5t8.5 -16t8.5 -18q0 -8 -17 -25l2 -2l-10 6q-2 0 -8 -6l2 2l-18 -18l2 2q0 -13 -2 -17zM569 254q6 0 9.5 7t3.5 13t-7 7q-14 0 -14 -15q0 -4 8 -12zM614 211q-2 -16 -12 -22.5t-20 -10.5l2 -2v19l-2 -2l18 18l-2 -2 q12 0 16 2z" />
<glyph unicode=":" horiz-adv-x="536" d="M123 96q2 6 2 18.5t4 24t14.5 19.5t30.5 8t43 -6t41 -18.5t30.5 -31t12.5 -42.5q0 -33 -26.5 -66t-61.5 -33q-47 0 -68.5 42t-21.5 85zM174 934q2 6 2 18.5t4 23.5t14.5 19.5t30.5 8.5t43 -6.5t41.5 -18.5t30.5 -30.5t12 -43.5q0 -33 -26.5 -65.5t-61.5 -32.5 q-47 0 -68.5 42t-21.5 85z" />
<glyph unicode=";" horiz-adv-x="546" d="M184 934q2 6 2 18.5t4.5 23.5t14.5 19.5t31 8.5q20 0 42.5 -6.5t41 -18.5t30.5 -30.5t12 -43.5q0 -33 -26.5 -65.5t-61.5 -32.5q-47 0 -68.5 42t-21.5 85zM176 -170q-12 12 -14 17.5t-2 17.5q0 35 3 68.5t5 68.5q-20 33 -32.5 51.5t-12.5 44.5q0 18 8 48t29 30 q29 0 56.5 -12t49 -30.5t34.5 -43t13 -49.5q0 -31 -13 -60.5t-32.5 -57t-44 -51.5t-47.5 -42z" />
<glyph unicode="&#x3c;" horiz-adv-x="849" d="M633 250q-16 0 -39 11t-50.5 26.5t-58 31t-61.5 25.5q-59 16 -107.5 33.5t-82 41t-52 55.5t-18.5 77q0 31 20.5 50.5t48 32.5t57 23.5t48.5 22.5q18 10 50 34.5t68 50.5t70.5 45t57.5 19q6 0 18 -8t24.5 -19t21.5 -25.5t9 -26.5q0 -20 -20.5 -34t-47 -26t-52 -25.5 t-35.5 -33.5q-10 -12 -42 -24.5t-52 -28.5q-2 0 -18.5 -5.5t-35 -14.5t-34 -21.5t-15.5 -26.5q0 -6 11.5 -13.5t26.5 -13.5t30.5 -11t25.5 -9q27 -10 76 -32.5t95 -49.5t81 -52.5t35 -43.5q0 -29 -17.5 -30t-35.5 -5z" />
<glyph unicode="=" horiz-adv-x="1009" d="M772 385q-35 12 -67 12q-18 0 -58.5 -4t-58.5 -4q-16 0 -33.5 2t-34.5 2q-12 0 -36.5 -3t-51 -6t-49.5 -6t-31 -3q-4 0 -8 1t-8 1q-12 0 -24.5 -8.5t-24.5 -8.5q-16 0 -38 14.5t-40.5 38t-31.5 51.5t-13 52h56h97.5t118 1t118.5 1h99h60q18 0 37.5 -8t36 -20.5t26.5 -29 t10 -32.5t-14 -30.5t-29 -14.5q-4 0 -5 1t-3 1zM795 709q-35 12 -68 12q-18 0 -58 -4t-59 -4q-16 0 -33.5 2t-33.5 2q-12 0 -37 -3t-51.5 -6t-49 -6.5t-30.5 -3.5q-4 0 -8.5 1t-8.5 1q-12 0 -24 -8t-25 -8q-18 0 -38.5 11.5t-38 27.5t-30 35.5t-12.5 38.5q0 18 17.5 30.5 t58.5 12.5q23 0 49.5 -1t55.5 -1q45 0 95 1t98 1t92 1t79 1q18 0 38 -8.5t36 -20.5t26.5 -28.5t10.5 -32.5t-14.5 -30.5t-28.5 -14.5q-4 0 -5 1t-3 1z" />
<glyph unicode="&#x3e;" horiz-adv-x="823" d="M659 539q0 -35 -33.5 -71t-72.5 -50q-16 -6 -30.5 -17.5t-28 -23.5t-27.5 -24.5t-31 -20.5q-37 -16 -62.5 -47t-58.5 -45q-23 -10 -43 -33t-49 -23q-14 0 -36.5 11.5t-22.5 33.5q0 20 7 35t17.5 25t22.5 21.5t25 29.5q16 25 62 51.5t79 63.5q12 12 31.5 27.5t39 30.5 t33 27.5t13.5 22.5q0 18 -24 30.5t-58.5 24t-75.5 24.5t-76 33.5t-58.5 52.5t-23.5 81q0 16 3 31.5t20 15.5q8 0 11 -5t7 -9q16 -29 48 -50.5t70 -40t79 -35t76 -36.5q12 -6 39.5 -19.5t56 -32t50 -40.5t21.5 -49z" />
<glyph unicode="?" horiz-adv-x="907" d="M143 1083q6 31 15.5 53.5t22 43t27.5 42t36 50.5q43 66 120.5 116t190.5 50q37 0 77 -13.5t73.5 -40t56 -66.5t22.5 -93q0 -25 -7 -46.5t-15 -41t-15.5 -40t-7.5 -42.5q0 -8 1 -15.5t1 -15.5q0 -45 -22 -70q-27 -33 -37 -68.5t-27 -68.5q-10 -20 -24.5 -35.5t-24.5 -33.5 q-8 -16 -14 -34t-19 -34q-14 -18 -34.5 -48t-39 -62.5t-30.5 -68.5t-12 -67q0 -18 2 -28q0 -29 -10.5 -50.5t-24.5 -36t-30.5 -21.5t-31.5 -7q-29 0 -45 22.5t-25 52t-12.5 59.5t-3.5 42q0 41 20.5 80t37.5 80q16 41 48 86t56 82l70 106t62.5 110.5t44 118t16.5 125.5 q0 49 -24.5 71t-59.5 22q-29 0 -39 -12.5t-41 -26.5q-37 -16 -54.5 -52t-39.5 -65q-2 -4 -11.5 -18.5t-19.5 -33t-18.5 -37t-8.5 -30.5q0 -4 1 -9t1 -9q0 -12 -11 -27.5t-21 -15.5q-37 0 -75 18t-67 53zM721 1083q-2 4 -5 10.5t-7 6.5q-6 0 -9.5 -6.5t-3.5 -12.5q0 -4 2 -8 t9 -4q12 0 14 14zM385 29q-4 2 -10 1t-15 3q-25 12 -37 40.5t-12 57.5q0 25 12.5 37t32 18.5t41 7.5t39.5 1q20 0 33.5 -16.5t13.5 -37.5q-4 -55 -23.5 -83.5t-74.5 -28.5z" />
<glyph unicode="@" horiz-adv-x="974" d="M276 236q23 -8 34.5 -23.5t17.5 -34.5q39 -18 75.5 -36.5t77.5 -18.5q27 0 62 15.5t71.5 41t69.5 57t55 66.5q20 20 33.5 29.5t32.5 9.5q10 0 28.5 -4t18.5 -19q0 -12 -14.5 -30.5t-35 -37t-40 -32.5t-29.5 -16q-6 -20 -20.5 -32.5t-30.5 -23.5q-12 -25 -34.5 -47 t-53.5 -40.5t-65.5 -30t-69.5 -11.5q-18 0 -44 4.5t-51.5 11.5t-46 19.5t-28.5 30.5q-6 14 -23.5 25.5t-37 23.5t-38 27.5t-26.5 38.5q-10 16 -15.5 42.5t-19.5 41.5q-8 8 -15.5 22t-12.5 28.5t-8 28t-3 19.5q2 8 2 22q0 16 -5 34t-5 34q0 29 12 55.5t12 53.5q0 10 -11 19 t-11 30q0 4 2 6q10 33 21.5 64.5t11.5 68.5q12 20 15 33.5t6 31t12.5 43t33.5 68.5q23 55 63 95t88 68t98 41t93 13q35 0 90.5 -18.5t98.5 -36.5q8 -4 25.5 -21.5t33 -39t27.5 -44t12 -34.5q0 -8 -2 -14.5t-2 -14.5q0 -16 6 -33.5t6 -34.5q0 -12 -6 -26q2 -10 3 -21.5 t1 -21.5q0 -31 -4 -60.5t-4 -60.5q0 -10 1 -20.5t1 -20.5t-4 -23q-12 -23 -15 -49t-8.5 -49.5t-16.5 -40t-42 -16.5q-16 0 -31 12q-45 23 -61 40t-20.5 38.5t-7.5 53.5t-23 83q-16 0 -37 -23.5t-40.5 -57.5t-32.5 -72.5t-13 -71.5q0 -4 1 -6t1 -6q0 -29 -8 -52.5t-35 -23.5 q-80 0 -103.5 45t-23.5 112q0 47 3 79t13 71q0 2 10.5 32.5t25.5 64.5t35.5 62.5t41.5 28.5q6 0 18 -4q59 -23 109.5 -40t112.5 -21q27 0 38 21.5t11 23.5q0 6 -5.5 23.5t-12.5 40t-12 49t-5 49.5q-29 29 -56.5 51t-62.5 22q-14 0 -20 -2q-4 0 -25.5 -4t-50.5 -14 t-57.5 -27.5t-43.5 -48.5q-20 -31 -38.5 -56.5t-35 -56t-29.5 -73.5t-21 -111q-4 -35 -11.5 -69.5t-19.5 -65.5q-6 -10 -6 -22q0 -14 1 -38t4 -47.5t8 -45t15 -33.5q12 -16 12.5 -36t10.5 -38q10 -14 14 -30.5t13 -33.5q-23 -10 -23 -18q0 -4 7 -10t11 -6q2 0 4.5 6t2.5 10 t-2.5 10.5t-2.5 10.5zM403 637q0 -16 9 -16q6 0 21.5 17t32.5 40.5t32.5 45t21.5 32.5q2 2 2 4t2 4q0 12 -10 12q-18 0 -37.5 -15.5t-36 -37t-27 -46t-10.5 -40.5z" />
<glyph unicode="A" horiz-adv-x="1069" d="M180 543q6 66 7 104.5t30 81.5q8 12 13.5 37t11.5 53.5t14 58t20 54.5q6 16 14.5 30.5t10.5 32.5t15.5 30.5t15.5 31.5q2 16 4 37.5t10 35.5q29 45 51.5 110t49 124t61.5 101t90 42h35q43 0 67.5 -32.5t37 -79.5t15.5 -97.5t3 -87.5v-39t-4 -26q23 -35 26.5 -94.5 t7.5 -106.5q6 -33 14.5 -62.5t8.5 -64.5q0 -16 -1 -32.5t-1 -32.5q0 -59 19.5 -110.5t58.5 -111.5q-6 -16 -12.5 -32.5t-12.5 -32.5q6 -23 11.5 -54.5t11.5 -61.5t12 -53.5t12 -31.5q8 -10 12.5 -31.5t9.5 -48t9 -55.5t12 -49q10 -31 13.5 -62.5t3.5 -66.5 q-8 -6 -16.5 -11.5t-16.5 -9.5q-23 -16 -50.5 -44.5t-49.5 -28.5q-14 0 -22.5 15t-18.5 22q-39 23 -51.5 58.5t-18.5 72.5q-6 33 -17.5 62.5t-11.5 68.5q0 6 1 12t1 12q0 16 -4 62.5t-13 94.5t-24.5 86t-36.5 38q-16 0 -43.5 -9.5t-50.5 -15.5q-16 -16 -37.5 -16t-37.5 -12 q-10 -6 -17 -7q-6 0 -11 1t-11 4q-8 0 -37 -16.5t-60 -16.5q-29 0 -50 -42t-36.5 -97.5t-29 -108.5t-25.5 -76q-4 -8 -13 -31.5t-24.5 -49t-35 -46t-44.5 -20.5q-18 0 -36.5 15t-18.5 32q0 6 2 10q16 41 32.5 91t26.5 100q6 29 17.5 65.5t23 75.5t19.5 78t8 71q0 20 -9 41 t-9 41q0 18 16 19q8 0 15.5 -1t15.5 -1q6 0 22 4zM420 887v-27.5t-4 -25.5q-2 -10 -13.5 -33t-24.5 -51.5t-23.5 -62.5t-10.5 -69q0 -14 1 -31.5t17 -17.5q53 0 111.5 12.5t112.5 20.5q23 10 26.5 25.5t3.5 34.5q0 37 -7 80.5t-14 91t-14.5 94.5t-7.5 92q0 8 2 14v-2l-4 16 q-4 17 -9 36.5t-11 36t-10 16.5t-14.5 -18.5t-21.5 -43t-19.5 -49.5t-8.5 -37q0 -35 -15 -60.5t-42 -41.5z" />
<glyph unicode="B" horiz-adv-x="1316" d="M408 809q2 -10 2 -31q0 -31 -14.5 -55.5t-14.5 -50.5q0 -10 2 -20.5t2 -20.5q0 -20 -4 -40t-4 -40q0 -14 2 -21l-4 -7t-10.5 -20.5t-10.5 -29.5t-4 -33q0 -25 3 -50t3 -50q0 -6 -3 -19.5t-6 -30t-8 -33.5t-7 -30q0 -6 1 -11t1 -11q0 -20 -4 -54t-14.5 -66t-30 -54.5 t-49.5 -22.5q-37 0 -57.5 4t-32 12.5t-14.5 20.5t-7 29q-6 31 -11 67.5t-7.5 76.5t-3.5 78t-1 71q0 23 15.5 38t15.5 41q0 4 -1 10.5t-1 10.5q0 10 8 19.5t8 19.5q0 14 -15 34.5t-15 43.5q0 78 21.5 140t31.5 134q8 43 17.5 88t18.5 91t15 90t6 83q0 18 -14 32.5t-14 29.5 q0 25 21.5 36t45.5 11q29 0 46.5 -20.5t26.5 -52.5t13 -70.5t6 -75.5q-10 -29 -12 -68t-2 -67q0 -6 2 -18.5t12 -12.5q14 0 17.5 12t3.5 25q0 27 9 41t19.5 24.5t20.5 19.5t12 27q0 10 -2 19.5t-2 19.5q0 6 6.5 21.5t15.5 32t20 32t22 25.5q8 8 11 20.5t6 24.5t9 21.5 t23 11.5q6 2 10 12q12 31 33.5 57.5t52.5 44.5q12 8 22.5 19.5t20.5 22t22.5 17.5t28.5 7q8 0 11 2q12 20 39.5 24.5t44.5 4.5q4 0 19 -3t31.5 -9.5t29 -14.5t12.5 -16q0 -4 -1 -9.5t-1 -9.5q0 -14 18 -16q8 -4 13.5 -23.5t10.5 -44t8 -51.5t5 -43q-2 -23 -12.5 -43 t-14.5 -43q-6 -35 -29.5 -57.5t-23.5 -40.5t-17.5 -29.5t-17.5 -36.5q0 -12 -7 -17t-16.5 -8t-16.5 -8.5t-7 -17.5q0 -10 10.5 -15t20.5 -5t20.5 4t20.5 4q53 0 91 -6.5t77 -36.5q10 -8 22.5 -23.5t26.5 -31t29.5 -26.5t31.5 -11q6 0 21.5 5t32 11t33 11t24.5 5 q16 0 27.5 -16t11.5 -33q0 -29 -12.5 -42t-32 -21.5t-42 -20.5t-42 -38.5t-31.5 -75t-12 -130.5q0 -4 1 -10t1 -10q0 -25 -16.5 -47.5t-16.5 -44.5q0 -43 -16.5 -75t-22.5 -71q-27 -27 -36 -55.5t-23 -58.5q-14 -29 -31.5 -52.5t-32.5 -50.5q0 -2 -15 -22.5t-35.5 -44 t-41 -44t-31.5 -22.5q-6 0 -15 -9t-24.5 -19.5t-34 -19.5t-42.5 -9q-23 0 -46.5 14.5t-48.5 24.5q-20 8 -33.5 25.5t-22.5 40t-13 48t-4 50.5q0 18 6 36q27 86 55.5 167t79.5 157q125 184 293 324q18 16 39.5 26.5t21.5 38.5q0 59 -42 83t-97 24q-31 0 -55 -9 q-37 -12 -59.5 -23t-44 -29.5t-50 -47.5t-74.5 -74q-12 -14 -31.5 -38.5t-42 -48t-43 -41t-32.5 -17.5q-29 0 -51.5 26.5t-24.5 55.5v22.5t2 22.5q35 35 83 81t102 71q23 20 44 41.5t42 44.5q14 16 37.5 39.5t47 50t41 51t17.5 41.5q0 16 -5 30.5t-5 30.5q0 20 14 35 q10 35 20.5 70t10.5 69q0 35 -6.5 54.5t-28.5 19.5q-14 0 -33.5 -6t-39 -14.5t-39 -16.5t-33.5 -12l2 -2q-4 -10 -7.5 -21.5t-17.5 -13.5q-12 -2 -19.5 -10t-14.5 -16.5t-14 -15.5t-20 -7q-14 0 -22 4q-2 -35 -3 -63.5t-20 -55.5l7 13q0 6 -5 6q-6 0 -6 -2q0 -10 6 -17 q-12 -14 -22 -27.5t-10 -31.5q0 -4 1 -8t1 -9q0 -6 -10.5 -21t-23.5 -33.5t-26.5 -35t-19.5 -24.5q0 2 -1 2t-1 2t4 6q-2 -4 -2 -5t-2 -5v-26.5t2 -24.5q0 -4 -1 -8.5t-1 -8.5q0 -10 5 -19.5t5 -19.5q0 -16 -6 -29.5t-14 -27.5q0 2 1 4t1 4q0 4 -4 8l-3 -2q-2 0 -2 -2 q2 -4 3.5 -5t3.5 -5zM1022 584q-10 -2 -17.5 -8.5t-13.5 -12.5q-14 -12 -65.5 -61t-109.5 -125t-105 -173.5t-54 -203.5q0 -14 4.5 -30.5t22.5 -16.5q20 0 36.5 6t37.5 12q25 23 47 43q16 16 31.5 32.5t15.5 23.5q0 4 -1 9t-1 9q0 14 9 23.5t20.5 17.5t20.5 19.5t9 29.5 q0 23 20.5 38t20.5 32q0 8 -7 17t-11 18q10 27 28.5 55.5t36 58t30.5 58t13 53.5q0 16 -7 31.5t-11 44.5zM664 1362q4 0 4 -2q-4 0 -4 2z" />
<glyph unicode="C" horiz-adv-x="843" d="M614 104q-6 -18 -21 -40.5t-35.5 -42t-44.5 -34t-48 -14.5q-2 0 -4 2q-18 0 -29.5 -7t-28.5 -11q-29 23 -61 23q-6 0 -12 -1.5t-13 -1.5q-33 0 -35.5 9.5t-7.5 27.5q-2 6 -18 20.5t-35.5 32t-35 37t-15.5 35.5q0 33 -14.5 63.5t-14.5 61.5q0 12 6.5 25.5t6.5 27.5 q0 18 -12.5 29.5t-12.5 26.5q0 6 3 12t3 14t-6 16.5t-6 18.5t4 17.5t4 15.5q0 14 -4 31.5t-4 36.5q0 10 1 21t1 22q0 10 -1 21t-1 24q0 18 6 30.5t14.5 27.5t14.5 39.5t6 67.5q0 16 8 31t8 31q0 37 13.5 63.5t13.5 57.5q0 16 -4 30.5t-4 32.5q0 16 10 26.5t10 20.5 q-2 4 -2 13q0 14 12.5 24t25.5 23.5t25.5 33t12.5 52.5q0 -2 5 16.5t17.5 45t33 55t50.5 49.5q4 2 14.5 30.5t27 60.5t40 58.5t56.5 26.5q33 -4 64.5 -6t62.5 -21q18 -12 40.5 -15t42 -7t33 -14.5t13.5 -35.5q0 -41 -14.5 -79.5t-28.5 -79.5q0 -10 -4.5 -33t-12.5 -46.5 t-18 -42t-25 -20.5q-14 0 -21 14.5t-11.5 36t-5.5 46t-1 43.5q0 16 2 27.5t2 25.5q0 6 -2 17.5t-12 11.5q-25 0 -47.5 -20.5t-43 -48.5t-36.5 -58.5t-29 -49.5q2 -4 2 -10q0 -12 -19 -38.5t-32 -49.5q-4 -8 -14 -22.5t-20.5 -27.5t-18.5 -24l-8 -12q0 -4 3 -10t3 -10l-8 -16 q-8 -17 -16.5 -44.5t-15.5 -62.5t-7 -70q0 -76 -16.5 -137.5t-16.5 -116.5q0 -12 1 -23.5t1 -23.5q0 -10 -2 -20.5t-2 -20.5q0 -53 11.5 -107.5t15.5 -107.5q2 -20 9 -43.5t22.5 -45t37 -36t51.5 -14.5q12 0 24.5 2t23.5 12q12 8 32.5 21.5t40 26t33.5 21.5l14 9q0 4 -2 10 t-2 13q0 10 13 22q14 8 29.5 29.5t29.5 43t26.5 39t18.5 17.5q8 0 15.5 -9t13.5 -18v2q-6 -10 -11.5 -20t-5.5 -23q0 -59 -35.5 -120.5t-91.5 -96.5v8.5t-6 4.5l-2 -4q8 -5 10 -7zM305 786q0 4 -6 5q0 -5 6 -5zM641 147q0 6 -4 7q-2 0 -4 -2v-2q0 -2 2 -5q2 0 3 1t3 1z M1049 774q0 -14 -7.5 -25.5t-21.5 -13.5q-18 -2 -21.5 -16t-6.5 -30.5t-13 -30t-41 -13.5q-20 0 -20 17q0 2 1 2t1 2q14 16 22 37.5t17.5 41t23.5 36t43 20.5q23 0 23 -27zM756 360q-6 18 -6 35q0 20 11 49t27 29q4 0 7.5 -11t6.5 -26.5t4 -32t1 -28.5q0 -6 -3 -21.5 t-11 -15.5q-6 0 -7.5 19.5t-11.5 35.5q-6 -14 -11 -18.5t-7 -14.5zM834 434q-18 20 -19 49q0 47 35 76q8 -14 8 -31q0 -18 -4 -24t-8 -8t-8 -4.5t-4 -8.5q2 -10 5 -19t3 -20q0 -2 -8 -10zM920 545q0 -2 -2.5 -17.5t-18.5 -15.5q-4 0 -9 7t-5 13q2 14 8 36t18 22q6 0 7.5 -5 t1.5 -42v2z" />
<glyph unicode="D" horiz-adv-x="1320" d="M662 1278q0 39 27.5 61.5t49.5 53.5q14 20 41 43.5t56.5 42t58.5 31t51 12.5q55 0 89 -18.5t52.5 -41t25.5 -42t13 -21.5q18 -2 28.5 -17.5t17 -36t10.5 -43t8 -40.5q4 -16 10 -25.5t11.5 -13.5t9.5 -8.5t4 -10.5q0 -10 -3 -19t-8 -20q0 -23 9.5 -30t9.5 -19q0 -4 -2 -7 t-2 -5q0 -10 5 -19.5t5 -19.5q0 -47 -10 -90t-10 -90q0 -16 -15.5 -45t-15.5 -56q0 -16 8 -25t21 -22q-10 -20 -21.5 -38.5t-34.5 -30.5q-4 4 -3 8t-5 4q-4 0 -4 -4t5 -4t9 -2q-2 -16 -4 -30.5t-2 -31.5q-4 -14 -16.5 -15t-12.5 -11q0 -4 1 -11.5t1 -15.5t-12 -12 q-23 0 -38 -29t-29 -51v-29q0 -18 -2 -35.5t-13 -21.5l2 -2q-4 6 -4 15t-4 20q-2 0 -4 -1t-6 -1q-2 0 -2 1t-2 1q-6 0 -18.5 -9.5t-24.5 -26t-21.5 -38t-9.5 -45.5q2 -4 2 -15q0 -12 -10 -25t-10 -30q0 -12 -10.5 -17t-21.5 -8t-21.5 -9.5t-10.5 -18.5q0 -6 2 -14.5t2 -16.5 q0 -20 -13 -26.5t-28.5 -8.5t-29 -5t-13.5 -19q0 -6 2 -11.5t2 -15.5q0 -8 -10 -10q-18 -2 -33.5 -11.5t-33 -20.5t-39 -19t-50.5 -8q-6 0 -18 4q-10 -2 -29 -2q-37 0 -71.5 18t-73.5 39q-12 -23 -27.5 -51.5t-32 -56t-33 -46t-30.5 -18.5q-10 0 -15 4t-14 4q-16 0 -34.5 -6 t-34.5 -6q-27 0 -41 37t-21.5 84t-9.5 91t-2 58t9.5 31.5t9.5 36.5q0 25 -12.5 48t-12.5 48t1 52.5t15 49.5q0 4 -1 6.5t-1 6.5q0 14 9.5 22t9.5 23q0 10 -5.5 18t-5.5 19q0 8 3.5 16t3.5 16q0 10 -2 18.5t-2 12.5q4 18 5 36.5t1 35.5q0 35 4 54.5t10 31.5t10 21.5t4 23.5 q0 4 -3 15t-7 22.5t-7 21.5t-3 13q0 8 8 37.5t12 48.5q-2 6 -2 16q0 29 13.5 55.5t13.5 48.5q0 16 -10.5 39t-10.5 45q0 18 2.5 44t2.5 49q0 29 -10.5 55t-10.5 51q0 29 20.5 39t49.5 10q51 0 88 -25.5t58.5 -65.5t31.5 -87t10 -92q0 -29 -18.5 -59.5t-18.5 -55.5 q0 -8 4 -17t4 -20q0 -20 -9 -41.5t-19.5 -46t-19.5 -55.5t-9 -68q0 -23 8 -53.5t13 -58.5q0 -10 -10.5 -17.5t-10.5 -17.5t10.5 -13.5t24.5 -3.5q10 0 22.5 1.5t12.5 7.5q0 4 -10.5 11t-10.5 11q0 6 13.5 10.5t13.5 12.5q-10 16 -11 42.5t-1 35.5q0 27 20.5 42t20.5 31 q0 4 -1.5 9.5t-1.5 9.5v-2q6 8 12.5 16t6.5 21q0 4 -1 8t-1 8q0 12 10 22q8 -10 12 -17t19 -7q-2 -6 -2 -14q0 4 1 6t1 6q-6 12 -6 24q0 14 9 31t9 37q0 12 -4 25.5t-4 27.5q0 33 22 66l-2 -2v-16.5t-2 -18.5q0 -18 13.5 -25.5t13.5 -15.5t-5 -20.5t-5 -22.5q0 -25 8 -50.5 t8 -47.5q0 -25 -24 -39q-25 -14 -29 -31.5t-4 -36.5q0 -10 2 -18t2 -19q0 -12 -4 -25.5t-4 -27.5q0 -31 6 -58.5t8 -54.5q0 -10 -16 -14q-8 0 -8.5 3t-6.5 11l4 4l-2 -6q-4 2 -16 2q-4 6 -4 7q0 -4 6 -5q-4 -16 -4 -24q0 -16 8 -30.5t8 -33.5q0 -12 -13 -11t-22 -3 q0 8 1.5 16.5t1.5 18.5q0 6 -5 6q-4 0 -4 -12q0 -16 6.5 -36t6.5 -38q0 -14 -7.5 -28.5t-7.5 -28.5q0 -4 2 -10.5t2 -12.5q0 -16 -10 -27.5t-10 -27.5q0 -27 8 -38t18.5 -15.5t21.5 -8.5t19 -16q27 -41 46.5 -56.5t62.5 -15.5q31 0 60.5 2t60.5 11q16 4 22.5 20t22.5 29 q8 6 23.5 24.5t29.5 37t26.5 32.5t16.5 14q8 0 14.5 -3t16.5 -7q10 16 21.5 30.5t11.5 35.5q0 23 13 33t13 28q0 12 6.5 22.5t14.5 20.5t14 22.5t6 28.5q0 6 -1 12.5t-1 12.5q0 16 13.5 28.5t13.5 22.5q0 12 -6 24.5t-6 22.5q0 23 5 39t11 31.5t12 32t8 34.5q0 20 13.5 29.5 t31 14.5t30.5 10.5t13 15.5q0 4 -19 14.5t-42 14.5l2 -2q8 25 10 38t4 23t5.5 18.5t11.5 20.5q-6 6 -11.5 14t-5.5 17q0 16 13.5 32.5t13.5 32.5q0 8 -14.5 26.5t-14.5 47.5q0 35 -8 68q-6 20 -18.5 60t-30.5 79t-42 67.5t-52 28.5q-6 0 -27.5 -8t-45 -20.5t-43 -25 t-19.5 -20.5q0 -6 2 -10q-10 -10 -17.5 -20.5t-11.5 -22.5q-14 -2 -23 -6q-20 -8 -20 -29q0 -16 -8 -26.5t-18.5 -18.5t-18.5 -12t-8 -8q0 -8 8 -16.5t8 -14.5t-8 -7t-17.5 -1t-16.5 -2t-7 -11q0 -12 6 -30.5t6 -30.5q0 -16 -10 -20q-18 -10 -25.5 -29t-10.5 -36t-6 -30.5 t-15 -13.5q-10 0 -20.5 10.5t-16.5 18.5q6 -2 13 -3t13 -3l-2 -2q2 4 2 14t-1 18t-1 19q0 27 2 53.5t7 52.5l-2 -2q8 -2 15 -2h13t12 6q0 14 -13 17.5t-13 19.5q0 29 22.5 66t44.5 55q0 -2 2.5 -4t2.5 -4t-5 -2q-6 0 -6 2q1 8 9 8zM1100 666q4 8 8 12q-8 0 -8 -4q0 -2 1 -4 t1 -4q-2 0 -4 1t-4 1q-6 0 -7 -9l5 -2q4 2 5 4.5t3 4.5zM274 336q8 4 15.5 10t7.5 16t-8 19l-6 -6t-2 -8q0 -4 1 -9.5t1 -9.5q0 -8 -6.5 -15t-6.5 -14q0 -4 4 -4q8 0 9 4q-7 9 -9 17zM449 694q0 2 1 4t1 4t-5 11l-4 -4l7 -13q-2 -6 -4.5 -11l-4.5 -9q0 -10 15 -10q4 0 6 5 t2 7q0 12 -14 16zM1040 567q0 -18 -2 -26.5t-20 -38.5q0 -8 8 -8q6 0 14.5 10t14.5 23.5t10 26.5t4 21q0 6 -4 12.5t-8 6.5q-6 -2 -12.5 -6t-6.5 -8t1 -6.5t1 -6.5zM379 428q4 12 6 19.5t2 15.5q0 12 -5 27.5t-15 44.5q-8 -6 -9 -27q10 -29 11.5 -50.5t9.5 -29.5zM352 408 l4 8t2 8q0 6 -6 6q-2 -2 -2 -4q-2 -2 -2 -6t4 -12zM326 543q-4 4 -4 6l-5 -10q0 -2 1 -3t1 -4q5 9 7 11zM1087 752q-4 2 -5 4t-5 2q-6 0 -6 -4q2 -4 3 -5t3 -6q6 7 10 9zM1141 1343q0 8 -2 9q-2 0 -4 -2t-2 -4l4 -5zM1196 1092q-4 -4 -4 -7l6 -12q4 4 4 6v8.5t-6 4.5z M332 643q2 0 3 -2t3 -2q4 4 4 8t-4 8zM1106 586l4 4q0 2 -4 6v-10zM729 59l-2 4v3q-8 0 -8 -7q0 -4 6 -4l2 2zM434 530q0 8 -6 13l-4 -4l6 -13zM231 500q-6 0 -6 -2l4 -4q0 2 1 3t1 3zM446 797v2v-2zM528 1055q0 2 2 2zM1036 377q0 -12 -6 -12q-2 0 -2 2t-2 4q0 6 10 6z M1004 352q-4 -4 -7 -4q-4 0 -4 4t6 4zM580 1118q-4 -2 -9 -2q-6 0 -6 6l4 2q2 -2 3 -4t6 -4zM573 963l-2 -2zM1067 838q0 -4 -4 -13q-4 8 -4 9q0 4 4 4t6 -2z" />
<glyph unicode="E" horiz-adv-x="956" d="M385 242q12 -10 23.5 -16.5t11.5 -22.5q0 -12 -9.5 -30.5t-9.5 -35.5q0 -10 17.5 -13t38.5 -3q47 0 113.5 7t125.5 7q8 0 14.5 -1t14.5 -1q16 0 31 8q23 -2 49 -4t50 -8t40 -17.5t16 -29.5q0 -59 -27.5 -71.5t-68.5 -12.5q-43 0 -87 4t-87 4q-92 0 -184 -6t-187 -10 q-41 0 -64.5 25.5t-34.5 65.5t-14 91t-3 102l1 10q1 9 4 23.5t7 26.5t10 18q0 14 -7 26.5t-7 29.5q0 4 1 9t1 9q0 49 -2 98t-2 99q0 10 8 23t8 24q0 20 -16.5 45.5t-16.5 48.5q0 12 10.5 24.5t10.5 28.5q-2 12 -3 25.5t-1 25.5q0 14 3 26.5t3 25.5q0 10 -1 17t-1 15t4 15.5 t4 15.5q0 16 -5 31.5t-5 32.5q0 27 4 64.5t4 70.5q0 10 -1 22.5t-1 22.5q0 20 2 61t7 81t15.5 70.5t26.5 30.5q2 0 3 -1t3 -1q18 -8 43 -13t48.5 -8t44 -5t30.5 -2t19.5 1t19.5 1q16 0 32.5 -5t35.5 -5q10 0 21 1t22 1q59 0 115.5 -5.5t115.5 -5.5q10 0 19.5 2t19.5 2 q18 0 43 -2t46.5 -9t35.5 -20.5t14 -35.5q0 -8 -1 -14.5t-1 -14.5t4 -17t4 -18q0 -18 -55 -28q-127 0 -253 7t-253 25q-10 0 -20 -8t-10 -18q0 -84 5 -165t5 -163q0 -16 -2 -34.5t-2 -37.5q0 -49 9 -64t50 -15q20 0 54 2t75 2q57 0 105.5 -10.5t48.5 -47.5q0 -41 -24.5 -58 t-61.5 -23.5t-79 -6.5t-79 -4t-61.5 -18.5t-24.5 -48.5q0 -23 3 -43.5t3 -40.5q0 -10 -6 -18.5t-6 -18.5q0 -6 5 -13.5t5 -15.5q0 -6 -1 -12t-1 -10q0 -12 5 -24.5t5 -25.5q0 -20 -8 -41.5t-8 -31.5t1 -19.5t5 -25.5zM270 322q-6 -12 -6 -23q0 -16 10 -37q4 10 7.5 16.5 t3.5 12.5q0 4 -3 16t-12 12q6 12 6 25q0 4 -3 14.5t-11 10.5t-10 -8.5t-2 -12.5q0 -20 20 -26zM340 461q8 25 8 35q0 6 -1 13t-9 15q-8 -10 -10 -18t-2 -12q0 -13 14 -33zM264 813q2 16 2 30.5t2 28.5q0 2 -4 4.5t-6 2.5q-4 0 -5 -9.5t-1 -13.5q0 -18 12 -43zM324 903 q8 8 8 19q0 14 -10 14q-4 0 -5.5 -5t-1.5 -7q1 -9 9 -21zM248 575q-2 0 -6 -4q0 -8 4 -8t3 2t3 6zM328 815q0 6 -6 10l-5 -4q4 -8 7 -10zM217 334q0 6 -4 6l-2 -2q0 -4 6 -4z" />
<glyph unicode="F" horiz-adv-x="860" d="M182 561q-25 35 -24 49l3 10q3 11 6 23t6 23.5t3 15.5q0 23 -3 47.5t-3 46.5q0 12 5 23.5t5 21.5q0 25 -8 52.5t-8 60.5q0 23 1 44t1 44q0 31 -6 71t-6 85q0 29 1 58.5t1 57.5q0 23 -6.5 45.5t-6.5 46.5q0 29 40 42.5t98 13.5q18 0 31.5 -3t29.5 -3q78 0 159 17t156 17 q45 0 80 -8h-2q0 2 15 2q12 0 31.5 -2t37 -7t29.5 -13t12 -23q0 -25 -9 -45t-54 -20q-25 0 -49.5 6t-49.5 6l-24 -2q-23 -2 -58.5 -6t-76.5 -9.5t-77 -13.5t-59.5 -18t-23.5 -23q2 -16 7 -35.5t5 -39.5q0 -16 -4 -32t-4 -32q0 -6 1 -13t1 -14q0 -14 -3 -26t-3 -27 q0 -10 2 -19t2 -20q0 -16 -7 -39.5t-7 -46.5v-70.5t4 -39t11 -16.5t24 -3q39 0 62.5 2t41.5 4t35.5 4.5t42.5 2.5q23 0 49.5 -3.5t49 -14.5t36.5 -30.5t14 -52.5q0 -29 -26.5 -37t-48.5 -8h-18.5t-18 1t-22.5 1h-34q-27 0 -57.5 -1t-58 -6t-48 -13t-22.5 -23 q0 -47 -13.5 -94t-13.5 -76q0 -4 2 -10t7 -6q8 0 14 2t12 2q4 0 10.5 -3t6.5 -7q0 -6 -1 -11.5t-1 -9.5q0 -47 6 -91t6 -91q0 -20 -1 -38.5t-1 -39.5q0 -25 7 -47.5t7 -40.5q0 -16 -5 -39.5t-20.5 -47.5t-45 -40t-80.5 -16q-10 0 -18.5 8t-18.5 8q-8 0 -18.5 -3t-20.5 -7 q-2 0 -6 4q0 12 6 16t6 19q-14 35 -24.5 64.5t-10.5 64.5q0 10 1 21.5t1 21.5q0 16 -8 33.5t-8 37.5q0 35 2 71t2 73q0 25 -3 49.5t-3 50.5q-1 47 22 86zM356 588q-2 16 -2 28.5t-10 22.5q-10 0 -12 -16.5t-2 -26.5q0 -23 12 -47q10 6 11 18.5t3 20.5zM293 594q0 6 -3 16.5 t-7 10.5q-8 0 -11.5 -7.5t-3.5 -15.5t3 -15.5t14 -7.5q4 0 5 6.5t3 12.5zM287 424q8 10 8 25q0 12 -6 24q-4 -8 -6 -14t-2 -15q0 -12 6 -20zM285 831q-4 -8 -6 -10q0 -2 4 -6q8 0 8 8q0 2 -2 3t-4 5z" />
<glyph unicode="G" horiz-adv-x="1222" d="M639 -74q-16 -31 -26.5 -42t-19.5 -13t-18.5 -3t-21.5 -13q-25 -27 -58.5 -31t-64.5 -4q-12 0 -35.5 2t-48 11t-42 26.5t-17.5 48.5q0 33 13 70.5t34.5 75.5t47.5 73t48 61q49 55 92 97.5t87 75t92.5 59t107.5 53.5q18 35 31.5 83t13.5 73q0 12 -2 25.5t-2 27.5 q0 18 6 37.5t6 38.5q0 35 -11 57.5t-22 44.5q-16 -16 -36.5 -40.5t-30.5 -24.5q-4 0 -10.5 5t-10.5 5t-13 -7t-21.5 -17.5t-22.5 -23t-14 -24.5q-6 -12 -23.5 -16t-30.5 -21q-6 -10 -22 -28.5t-35.5 -39t-40 -34.5t-35.5 -14q-6 0 -18 -7.5t-27.5 -15.5t-34 -15t-36.5 -7 q-6 0 -19 4q-8 -8 -16 -9q-8 0 -14.5 10.5t-16.5 10.5q-12 0 -24.5 -4t-26.5 -4t-42 10t-42 31l-20 9q-19 9 -42.5 27.5t-43 46t-19.5 64.5q0 10 6 20.5t6 22.5q0 4 -1 8t-1 9q0 20 7.5 38.5t13.5 36.5q8 27 12 54.5t10 53t19.5 52.5t38.5 51q0 12 -4.5 20.5t-4.5 18.5 q0 23 21.5 42.5t42.5 35.5q4 16 2 31.5t18 23.5q16 4 17 25q2 12 7 17t11 9.5t12.5 9.5t12.5 17q4 8 21.5 20.5t38 25.5t37.5 26.5t22 25.5q4 18 29.5 24.5t41.5 14.5q8 4 13.5 11.5t9.5 14.5t11 12t21 5q18 0 27.5 4.5t16 8.5t11.5 8t13 4t16.5 -7t18.5 -7 q41 -2 73.5 -20.5t67.5 -35.5q20 -10 47 -21t51.5 -24.5t42 -33t17.5 -48.5q0 -16 -19.5 -24t-33.5 -8q-16 0 -36 10t-41.5 23.5t-45 23.5t-47.5 10q-55 0 -118 -44t-110 -95q-20 -20 -45.5 -51t-48 -66t-40 -70.5t-19.5 -66.5q-4 -12 -9.5 -19.5t-10.5 -15.5t-9 -19.5 t-4 -29.5q0 -31 -17.5 -70t-17.5 -69q0 -14 10.5 -33t24.5 -19q55 12 114.5 44t122 72t127 84t125.5 83q12 8 27.5 23.5t33 32t33 28.5t27.5 12q4 0 8.5 -1t8.5 -1q14 0 29.5 6.5t29.5 6.5q55 0 89 -41t34 -136l-5 -23q-5 -22 -11.5 -54.5t-15.5 -72.5t-17 -76t-15.5 -61.5 t-11.5 -29.5q-10 -14 -12 -34.5t-6 -39.5q14 -8 30 -8t34 1t40 1q25 0 45.5 -5t20.5 -28q0 -10 -17.5 -25.5t-27.5 -25.5q-47 -4 -89 -4t-83 -20q-16 -33 -39 -77t-44.5 -84t-36 -66.5t-11.5 -26.5q-23 -16 -34.5 -39t-23.5 -47.5t-27.5 -48t-46.5 -37.5q-12 -6 -15 -16.5 t-5 -19.5t-7 -16.5t-20 -7.5q-4 0 -8 1t-8 1zM596 -45q0 2 -1 2t-1 2t2 2t4 -2q-2 -2 -6 -2q16 23 30.5 35t37.5 28q29 100 100 160q0 10 -1 19.5t-1 19.5q0 45 26 70q2 -6 5 -6q0 4 -7 4q4 12 7.5 24.5t7.5 26.5q0 20 -21 20q-16 0 -41.5 -18t-44.5 -35 q-27 -23 -70.5 -61.5t-86.5 -89t-76 -108.5t-37 -120q4 -6 15.5 -7t19.5 -1q35 0 67.5 18.5t71.5 18.5zM827 346q0 2 -1 3t-1 3q-4 -4 -4 -6l2 -4z" />
<glyph unicode="H" horiz-adv-x="1198" d="M1040 1051q-25 -29 -30.5 -55.5t-5.5 -61.5t24 -35q33 0 44 17.5t22 17.5q12 0 17 -16.5t5 -22.5q0 -25 -26.5 -64.5t-57.5 -58.5q-47 -29 -59 -75t-23 -97q-14 25 -16 25q-23 0 -30 -14.5t-7 -37.5q0 -18 2 -39.5t2 -44.5q0 -25 -4 -48t-18 -44q-4 -4 -5 -12 q0 -4 1.5 -7t1.5 -7q0 -20 -10.5 -31.5t-10.5 -34.5q4 -4 12.5 -6t8.5 -16q0 -12 -13.5 -28.5t-13.5 -33.5q0 -16 14.5 -47t14.5 -59q0 -6 -10.5 -35t-26 -60.5t-36 -57t-38.5 -25.5q-16 0 -28.5 16t-14.5 33q-4 78 -17.5 144.5t-13.5 141.5q0 12 9.5 28.5t15.5 37.5 q6 -10 10 -16.5t8 -12.5q8 6 19.5 12.5t11.5 16.5q0 6 -11.5 19.5t-24.5 31t-24.5 34.5t-11.5 30q0 27 9.5 47t9.5 43q0 8 -4 20q-6 10 -10.5 30.5t-8.5 40t-11 35t-15 15.5q-20 0 -56.5 -13.5t-76 -29.5t-76.5 -29.5t-62 -13.5q-20 0 -37.5 -12.5t-30 -25.5t-21.5 -25.5 t-15 -12.5q-4 0 -8 10.5t-9 10.5q-8 0 -11 -9.5t-3 -19.5q0 -4 1 -7t1 -7q0 -8 -4 -8q-6 0 -8 6t-5 14t-10.5 14t-23.5 6q-4 0 -4 -6q0 -4 2 -6q0 -2 2 -4q10 4 17.5 6t17.5 6q-10 -14 -19.5 -27.5t-19.5 -29.5q2 -23 3 -46.5t1 -45.5q4 -14 17.5 -18.5t13.5 -18.5 q0 -10 -11.5 -21.5t-11.5 -25.5q0 -41 4 -60.5t10.5 -28.5t10.5 -16.5t4 -23.5v-8v-17.5t2 -16.5t8 -7q16 0 19.5 12t13.5 23q4 -39 12 -76t8 -76q0 -27 9.5 -49.5t9.5 -44.5q0 -18 -7.5 -42t-17.5 -45.5t-23.5 -36.5t-27.5 -15q-6 0 -18.5 7t-24.5 17t-21.5 23.5t-9.5 25.5 q0 4 1 6t1 7q0 35 -14 64.5t-14 64.5q0 33 -10.5 59.5t-10.5 54.5q0 16 4 27q-2 41 -6 81t-4 81q0 10 1 19t1 20q0 14 -2 27.5t-2 27.5q0 20 3 39.5t3 42.5q0 39 -4 80t-4 75q0 35 22 60q6 8 9.5 26.5t5.5 41t5 46t9 41.5q8 23 8 68q0 16 -1 33.5t-1 36.5q0 39 5 75.5 t26 65.5q4 4 4 12q0 12 -14.5 21.5t-14.5 30.5q0 20 3.5 38.5t3.5 38.5q0 14 -2.5 26.5t-2.5 27.5q0 4 1 5t1 3q10 33 11.5 64.5t5.5 66.5q23 10 65.5 19.5t75.5 9.5q27 0 34 -27t7 -60q0 -35 -2 -63.5t-8 -56.5q0 -10 6 -12.5t13.5 -3.5t13.5 -2t6 -9q0 -14 -7.5 -31.5 t-15.5 -36t-15 -39t-7 -38.5q0 -10 6 -19.5t6 -19.5t-6 -18.5t-6 -18.5q0 -6 2 -12.5t2 -10.5q0 -16 -15.5 -32.5t-15.5 -36.5q0 -12 5 -24.5t5 -22.5q0 -8 -5 -16.5t-5 -18.5q0 -4 2 -10.5t2 -10.5q0 -16 -8 -25.5t-17.5 -18.5t-17.5 -18t-8 -26q0 -14 8 -14q14 0 16.5 11 t16.5 11q8 0 14 -3t15 -3q53 4 86.5 23.5t70.5 30.5q33 8 75 17t69 28q25 16 42 21t26.5 7t13.5 7.5t4 23.5q0 8 -1 18.5t-1 20.5q0 39 16 78t16 84q2 31 13.5 71.5t25 84.5t23.5 86t10 71q0 27 12.5 43t32 24.5t43 10.5t47.5 2q61 0 88 -17.5t27 -78.5q0 -20 -17.5 -78 t-31.5 -160q-4 -16 -21.5 -15t-17.5 -12q0 -6 3 -14t3 -12t-1 -7t-1 -8q0 -10 6 -18t10 -18zM887 922l2 4h-4l2 2v-6zM840 432q-2 -6 -4 -14t-2 -17q0 -10 8 -10q12 6 12 15q0 8 -6 13t-10 13q2 4 4 10.5t2 10.5t-8 12q-4 0 -7.5 -6t-3.5 -8q4 -4 7.5 -9.5t7.5 -9.5z M262 707q10 0 12 15t2 26q0 10 -2 25t-14 15q-27 -8 -27 -26q0 -14 9.5 -30.5t21.5 -26.5q-2 -2 -4 -3.5t-4 -5.5q2 0 3 -1t3 -1q2 2 2 6q0 5 -2 7zM184 170q0 10 8.5 25.5t8.5 29.5q0 18 -11.5 36t-11.5 32q0 4 2 8t2 8q0 6 -6 6q-12 -8 -15 -23.5t-3 -31.5q0 -29 3 -49.5 t25 -42.5h-2v2zM834 223q-4 16 -4.5 28.5t-10.5 12.5q-12 0 -18 -18.5t-6 -28.5t2 -21.5t18 -11.5q12 6 14.5 19.5t4.5 19.5zM195 113q-20 -6 -21 -15q0 -8 3 -23.5t8 -29.5t9.5 -25.5t6.5 -11.5q0 8 2 16.5t2 18.5q0 33 -10 70zM186 526q-2 8 -3 18.5t-13 16.5q-2 0 -2 -1 t-2 -1l-2 -2q0 -4 1 -22.5t11 -18.5zM770 164q-25 0 -25 -21q0 -4 4.5 -13t14.5 -9q8 0 9 10t1 21q0 12 -4 12zM305 895q-4 -10 -4 -15.5v-9.5q0 -10 4 -18q4 12 4 18q0 9 -4 25zM313 1057q14 4 15 16q0 4 -2 9t-9 5q-4 -2 -8 -6q-8 -8 -8 -14q0 -10 12 -10zM739 465 q0 4 -4 12q-8 -8 -8 -10q0 -4 2 -6t2 -6q8 8 8 10zM846 569q0 6 -6 6q-12 0 -13 -12q0 -8 9 -8q6 0 10 14zM840 494q0 2 2 4q-2 2 -4 2t-4 -2l-3 -2l3 -4q2 0 3 1t3 1zM985 1004q0 8 -6 8q0 -2 -1 -4t-1 -7l4 -2q0 1 4 5zM305 958q0 4 -2 7q0 -2 -1 -3t-1 -4q0 -2 1 -3t1 -3 q2 2 2 6zM272 899q2 4 4.5 6t2.5 6t-2.5 6.5t-4.5 6.5q-2 -4 -4 -6.5t-2 -6.5t2 -6t4 -6zM225 35q-2 -2 -2 -6l4 -2q0 2 1 3t1 3zM827 326q-4 -8 -4 -13q0 -4 4 -4t4 4q0 5 -4 13zM236 412q0 6 -1.5 11t-1.5 9t5.5 5t9.5 1q2 0 4 -2l-5 -15t-11 -9zM1042 1049q-6 8 -6 18 q0 6 3 15.5t14 9.5q4 0 4 -5q0 -6 -6.5 -17t-10.5 -19zM246 233q-4 -8 -6 -8q-6 0 -7 8l7 13q6 -7 6 -13zM182 229q0 -2 -1 -2t-1 -2l-4 4q0 2 4 7q0 -2 1 -3.5t1 -3.5z" />
<glyph unicode="I" d="M1196 92q-18 6 -22 6q-6 0 -25 -15t-41 -15q-16 0 -29.5 8t-34.5 8q-29 0 -58.5 -12.5t-57.5 -12.5q-4 0 -8.5 1t-8.5 1q-12 -10 -25.5 -10h-27.5q-8 0 -23.5 -4t-34 -10t-37 -10t-30.5 -4q-10 0 -15 9t-13 9q-4 0 -5.5 -1t-5.5 -1t-10 1t-12 1q-20 0 -43 -16.5 t-47 -16.5q-23 0 -42.5 -10t-41.5 -10q-6 0 -12.5 2t-12.5 2q-16 0 -32.5 -15.5t-41.5 -15.5q-6 0 -13 1t-15 1q-6 0 -33 -6t-59.5 -14.5t-62.5 -18.5t-40 -16q-25 -16 -54.5 -19.5t-55.5 -9.5q-14 0 -43 6t-39 13q-25 25 -43 47q-16 18 -29.5 35.5t-13.5 27.5t12 18.5 t28.5 14.5t36 13t33.5 14q33 14 68 20t68.5 11t66.5 13.5t63 26.5q0 68 6.5 152t16.5 168q4 33 17.5 70.5t13.5 54.5q0 10 -5.5 26.5t-5.5 34.5q0 20 15.5 35.5t15.5 28.5q0 10 -6 20t-6 21q0 16 11 33.5t26 33.5q-8 16 -13.5 33.5t-5.5 34.5q0 20 4 39.5t4 40.5q0 10 -3 20 t-3 21q0 16 12.5 29.5t12.5 31.5q0 37 -3 58.5t-11.5 32.5t-22.5 14.5t-39 5.5q-66 4 -106.5 5t-68.5 8t-47.5 22.5t-39.5 46.5l-5 13t-11.5 29.5t-10.5 33t-4 24.5q0 10 4 22.5t21 12.5q39 0 76 -3t75 -8q16 4 27 5q29 0 55.5 -8.5t51.5 -8.5q10 0 20 4t20 4t22.5 -4 t23.5 -4q23 0 44 4t44 4q35 0 69.5 -5t69.5 -5q16 0 33.5 5t33.5 5q18 0 36 -9t36 -9q16 0 30.5 2t29.5 2q41 0 75.5 -8t69.5 -8q4 0 9 1t11 1q39 0 60.5 -10.5t34.5 -38.5q0 -35 -20.5 -66t-59.5 -31q-16 0 -43 3t-39 3q-4 0 -6 -5t-6.5 -10t-13.5 -10t-25 -5q-39 0 -74 8 q-14 4 -21.5 17.5t-13.5 13.5q-4 0 -15.5 -7.5t-27.5 -16.5t-35.5 -16t-42.5 -7q-18 0 -26 2q-6 0 -9.5 -7.5t-3.5 -17.5q0 -51 4.5 -100.5t4.5 -110.5q0 -35 -4.5 -66.5t-16.5 -50.5l-3 -10q-3 -10 -6 -23.5t-6 -27.5t-3 -23q0 -10 6 -18q0 -2 -2 -5t-4 -7q2 2 -8.5 -9.5 t-23.5 -26t-24.5 -25.5t-11.5 -9q0 -8 9 -16.5t9 -12.5q0 -6 -10 -17t-10 -26q0 -10 9 -31.5t16 -35.5q-14 -23 -24.5 -43.5t-14.5 -46.5q-4 -16 -17.5 -40t-13.5 -28q0 -35 -6 -55v4q20 -10 20 -33q0 -4 -1 -10t-1 -10q0 -10 11.5 -12.5t17.5 -2.5q4 0 10 1t10 1 q16 0 28.5 -9t31.5 -9l82 8t82 14q70 16 143.5 20.5t144.5 8.5q27 0 52.5 5t50.5 5q4 0 14 -3t20.5 -9t19.5 -15.5t11 -21.5q0 -4 8.5 -7t17.5 -6t17.5 -8t8.5 -12q0 -10 -9.5 -18t-19.5 -14.5t-19.5 -10.5t-9.5 -8q0 -6 6 -11t14.5 -9t14.5 -9.5t6 -13.5q0 -10 -8 -13 t-16 -3q-16 0 -25 14h4q0 2 -2 2zM899 1204q-8 4 -15 8.5t-14 4.5q-6 0 -6 -11q4 -4 6 -4q8 0 15.5 1t13.5 1q0 2 -2 4q0 -4 2 -4zM489 629q-6 16 -10 16q-12 0 -12 -10q0 -6 9 -6h13z" />
<glyph unicode="J" horiz-adv-x="1009" d="M758 594q18 -6 18 -12q0 -23 -12 -63t-35 -64q0 4 -2 17t-10 13q-2 -2 -2 -4q0 -6 7 -10t7 -14q0 -4 -2 -10.5t-2 -10.5q0 -16 9 -17t20 -20q-4 -18 -4 -39.5t-2.5 -43t-7.5 -41t-15 -31.5q-2 -2 -2 -8q0 -41 -17.5 -75t-31.5 -69q-2 -2 -2 -6q4 -8 6 -14t6 -15 q-4 -16 -15.5 -30.5t-13.5 -32.5q0 -6 -8 -15.5t-19.5 -20.5t-23.5 -21.5t-20 -18.5q-8 0 -15.5 1t-17.5 1q-29 -29 -43 -50.5t-47 -25.5q-37 -6 -78 -20t-74 -14q-8 0 -19 11t-22.5 24.5t-19.5 24.5l-8 11q-16 0 -31.5 11.5t-20.5 11.5q-4 0 -12 -12.5t-16 -12.5 q-6 0 -10.5 9.5t-10.5 19.5t-18 19.5t-37 9.5l-10 6q-11 6 -22 16t-21.5 23.5t-10.5 29.5q0 4 4.5 14.5t10.5 21.5t15 19.5t20 8.5q14 0 26.5 -8.5t28.5 -10.5q16 0 34.5 -17t39 -38.5t42 -39t44.5 -17.5q4 0 23.5 -10.5t45.5 -14.5q8 4 24.5 9t34 12.5t30 15.5t12.5 20 q0 25 21.5 52.5t31.5 56.5q20 8 22 26.5t13 30.5q14 14 19 43t9 61t11.5 58.5t25.5 36.5q10 6 14.5 18.5t4.5 24.5v22.5t4 10.5q0 -2 -2 -2q-6 12 -11.5 18t-5.5 15q0 10 11.5 22t11.5 25q0 8 -4 16t-4 16q0 4 1 5.5t1 3.5q14 29 13 56.5t1 55.5q-4 12 -4 15q0 16 11.5 27 t11.5 28q-8 27 -9 61q0 35 5.5 69t5.5 69q0 18 -7 36q2 14 3.5 27.5t3.5 26.5q-4 8 -12.5 13t-8.5 17q2 20 3 41t1 41q0 8 -1 15.5t-1 15.5q0 16 1 30.5t1 30.5q0 12 -3 28.5t-13 16.5t-15.5 -6t-13.5 -6q-23 -4 -35 -9t-22 -11t-19.5 -10.5t-21.5 -6.5q-2 0 -16.5 -11 t-35 -25.5t-45 -25.5t-49.5 -11q-23 0 -54.5 -10.5t-66 -24t-71.5 -23.5t-68 -10q-10 0 -26.5 2t-32.5 9t-27.5 19.5t-11.5 32.5q0 8 3 18.5t13 10.5q12 0 21.5 -14.5t23.5 -14.5q16 0 44 9.5t58 23t58.5 29.5t46.5 31q20 2 44 17t50.5 33.5t56.5 36t64 27.5q45 10 82 37 t80 49q20 10 44 30t42 20q8 0 21 -7q23 -14 50 -26.5t51 -26.5t39 -32.5t15 -43.5q0 -35 -18.5 -69.5t-18.5 -77.5q0 -31 -8 -56.5t-10 -56.5q0 -18 6 -34.5t6 -34.5q0 -41 -14 -77t-14 -77q0 -14 -2.5 -26.5t-22.5 -16.5q-12 -6 -21.5 -32.5t-14.5 -60.5t-9 -69t-6 -55 q-6 -4 -13.5 -11.5t-7.5 -13.5q0 2 2 4v-2q4 4 8.5 10.5t8.5 12.5zM541 70q-2 -4 -2 -9q4 0 4 5zM246 -78l2 2q-6 0 -6 -4q0 8 -1 14.5t-10 10.5q-4 0 -7 -1t-7 -1q8 -16 10 -16.5t15 -4.5h4zM811 965q2 10 2 16t2 12q0 8 -4 8q-6 0 -6 -8q0 -3 6 -28zM678 461l-7 -7t-3 -10 q0 -4 4 -4q10 4 10 11q0 4 -2 5t-2 5zM82 27q-4 4 -6 4q-4 -4 -4 -6q0 -8 6 -9q4 9 4 11zM739 633l2 6h-6z" />
<glyph unicode="K" horiz-adv-x="1040" d="M823 1233q14 6 26.5 21.5t24 35t19.5 39t14 31.5q6 14 12.5 21.5t14.5 12.5t20.5 11t28.5 16q23 -12 41 -20t30.5 -19.5t19.5 -27t7 -39.5q0 -27 -28.5 -54.5t-40.5 -60.5q-8 -16 -27.5 -25.5t-19.5 -19.5q-16 -51 -37 -92q-18 -35 -43 -66.5t-60 -42.5q-18 -4 -29.5 -18 t-22.5 -29.5t-24.5 -31t-31.5 -23.5q2 0 -14.5 -18.5t-38 -42t-39 -44t-19.5 -26.5q-6 -18 -19.5 -32.5t-26.5 -28t-24.5 -26.5t-11.5 -30q0 -6 4 -14q37 -84 87.5 -175t123.5 -151q4 -4 23.5 -18.5t44 -29.5t52.5 -27.5t48 -12.5q25 0 32 -9t7 -30q0 -35 -33.5 -46 t-68.5 -11q-37 0 -81 15.5t-87 41t-83 57t-71 64.5q-18 18 -40.5 49t-44 59.5t-40 49t-26.5 20.5q-4 0 -7.5 -9t-7.5 -22.5t-6 -26.5t-2 -20q0 -23 6 -51t6 -63q0 -10 -3 -21.5t-3 -21.5q0 -4 1 -10.5t1 -10.5h2q-10 -6 -10 -14t10 -19h-2q8 -20 10.5 -34.5t2.5 -40.5 q0 -18 -2 -37t-13 -27q-10 -10 -11 -20.5t-2 -21.5t-4 -20t-15 -18q-10 -6 -8.5 -20t-14.5 -29q-10 4 -20.5 6t-20.5 6q-14 4 -29.5 20.5t-28 37t-19.5 42t-7 36.5q0 160 -10 315.5t-10 314.5q0 86 3 170t3 170q0 23 -8.5 42.5t-8.5 47.5q0 35 13.5 69t13.5 65 q0 72 17.5 142.5t17.5 141.5q0 51 26 97q117 -8 166 -52.5t49 -134.5q0 -35 -14 -67.5t-14 -59.5q0 -16 -4 -31.5t-9.5 -36t-9.5 -47t-4 -65.5q0 -12 -4 -28.5t-10 -35t-10.5 -34t-4.5 -23.5q0 -6 1.5 -13t1.5 -13q0 -33 -5.5 -67t-5.5 -54t9.5 -43t48.5 -23q25 0 47 20.5 t42.5 47t40 51.5t36.5 33q8 4 24 25.5t39 50t48.5 60.5t51.5 56q27 25 46.5 55.5t35.5 59.5zM248 1130q2 0 3 1.5t3 1.5q4 0 8 -2.5t8 -4.5q4 0 4 11q0 8 -4 8t-11 -5.5t-11 -9.5zM330 821h-10.5t-6.5 -8q0 -6 5.5 -10t7.5 -4q6 2 6 6q0 6 -1 10t-3 8q12 8 12 25q0 8 -4 12 q-4 -6 -5 -17.5t-1 -21.5zM242 283q0 4 1 6t1 6q0 8 -11 12q-6 0 -9 -5t-3 -9q0 -12 10 -12q4 0 6.5 1t6.5 1h-2zM252 457q0 6 -1 22.5t-3 33.5t-4 30.5t-4 13.5q-10 0 -16.5 -7t-6.5 -18q0 -10 6 -20t6 -20q0 -16 -6 -36t-6 -36q0 -6 8 -30.5t21 -24.5q4 4 5 17t1 30v45z M344 471q0 4 -2 16.5t-6 25.5t-10.5 23.5t-14.5 10.5q-8 -8 -8 -21v4l2 -10t5 -24.5t9.5 -26.5t14.5 -16q6 0 6 7t4 11zM270 737q6 6 6 17q0 16 -1 17t-5 9q-4 -4 -5 -11t-1 -13q0 -11 6 -19zM229 848l-4 4q-16 0 -16 -4q0 -6 8 -6zM246 739l-4 4q-6 0 -6 -4q0 -8 4 -8 q6 0 6 8zM242 225l2 4l-4 2zM317 219q0 -2 -2 -4q0 -6 4 -6h3l2 4q-1 6 -7 6zM291 150q0 4 -6 4q0 -2 1 -3t1 -4q2 1 4 3zM334 410l2 4l-4 2zM240 899h4l-2 6z" />
<glyph unicode="L" horiz-adv-x="1007" d="M999 276q8 -18 9 -38q0 -37 -23.5 -55.5t-57.5 -28t-73 -11.5t-70 -4q-6 -2 -12 -7t-14 -5q-6 0 -13.5 3t-15.5 3q-10 0 -24.5 -7t-33 -14.5t-39 -14.5t-38.5 -7q-35 0 -72 -10t-73.5 -24.5t-74.5 -27t-75 -14.5q-18 0 -45 7.5t-51.5 19.5t-42 26.5t-17.5 30.5t15.5 24.5 t15.5 27.5q0 37 -7 75.5t-7 79.5q0 16 3 30.5t3 31.5q0 35 -3 68.5t-3 68.5q0 20 1 40.5t1 41.5q0 29 -9.5 57.5t-9.5 52.5q0 41 5.5 83t5.5 83q0 35 -5.5 71t-5.5 71q0 18 2 48.5t5.5 67.5t7.5 75t8 67q0 14 -4 26t-4 27q0 33 5 64.5t5 64.5q0 16 17.5 30.5t42 23.5 t52 14.5t50.5 5.5t41 -17.5t18 -50.5q-2 -10 -2 -17.5v-15.5q0 -49 8 -96t8 -92q0 -84 -7 -170t-7 -166q0 -14 2 -24.5t2 -22.5q0 -16 -5 -33.5t-5 -34.5q0 -12 4 -23.5t4 -25.5q0 -16 -3 -32.5t-3 -32.5t-13.5 -31t-13.5 -33q0 -12 16.5 -40t16.5 -89q0 -31 -1 -54.5 t-1 -49.5v-36t3 -47.5t10.5 -42t19.5 -18.5q80 14 160 35t161 39q37 8 74 18.5t76 10.5q18 0 30.5 -4.5t22.5 -10.5t22.5 -15.5t30.5 -19.5zM332 500q6 8 6 18q-4 16 -6 17q-10 0 -15 -13q1 -22 15 -22zM340 692q4 20 6 27q-4 8 -4 16t-6 8q-12 0 -15.5 -9t-3.5 -17 q0 -10 4.5 -20.5t14.5 -10.5q4 0 4 6z" />
<glyph unicode="M" horiz-adv-x="1425" d="M1278 -8q2 -39 3 -74t1 -70q0 -8 -6 -10q-14 -6 -21.5 -22.5t-14.5 -32.5t-16.5 -28.5t-25.5 -12.5t-35.5 19.5t-25.5 37.5l2 2v-2q0 8 -5.5 29.5t-9.5 32.5q2 8 2 24q0 33 -13 62.5t-13 60.5q0 10 9 22.5t9 26.5q0 8 -2 15.5t-2 15.5q0 37 14.5 61.5t14.5 47.5 q0 14 -13.5 44.5t-13.5 88.5q0 10 11.5 32.5t11.5 49.5q0 2 -19.5 17t-19.5 56q0 43 -10.5 80t-10.5 78q0 10 2 21.5t2 21.5q0 51 -6 105.5t-12 103.5q-10 63 -11 125.5t-7 126.5q0 6 -5.5 36.5t-13.5 65.5t-19.5 62.5t-23.5 27.5t-16 -9t-8 -17q-8 -16 -23.5 -19.5 t-26.5 -11.5q-10 -23 -11 -45.5t-15 -40.5q-2 -12 -2 -25.5t-1 -27t-6.5 -24.5t-15.5 -15q-12 -6 -22.5 -33t-18.5 -57.5t-12 -56t-4 -27.5q0 -8 2 -12q-18 -61 -33.5 -114.5t-36 -93.5t-52.5 -62.5t-85 -22.5q-33 0 -55 14q-14 6 -36 25.5t-42.5 46t-35.5 52t-15 44.5 q0 4 1 9t1 9q0 12 -5 21.5t-14 19.5q-29 -29 -36 -81t-7 -99q0 -12 1 -25.5t1 -25.5q0 -16 -1 -34.5t-1 -35.5q0 -27 -8 -38t-17.5 -17t-16.5 -12t-7 -25q0 -12 8.5 -20.5t18.5 -16.5t18 -20.5t8 -32.5q0 -8 -5 -16.5t-5 -16.5q0 -10 5 -19t5 -18q0 -10 -5 -19t-11 -20l2 -2 l-4 4q4 -8 10 -11t6 -13q0 -6 -6 -12.5t-6 -12.5t4 -13t6 -15q-6 -10 -6 -19q0 -8 8.5 -16t8.5 -12q0 -16 -8.5 -19.5t-8.5 -13.5q0 -6 3 -13.5t3 -13.5q0 -16 -8 -29.5t-10 -27.5q-12 -4 -20.5 -15.5t-15.5 -22.5t-16.5 -20.5t-21.5 -9.5q-20 0 -30.5 13.5t-16.5 32 t-12 34.5t-15 23q-8 8 -10 21t-2 30q0 72 -16.5 145.5t-16.5 132.5q0 16 11 37q0 4 -1 6t-1 7q0 14 3 28.5t3 28.5q0 12 -2 24.5t-2 22.5q0 12 3 24.5t3 24.5q0 23 -5 44.5t-5 43.5q0 23 8 50.5t20 43.5q-4 8 -8 16.5t-4 16.5q0 10 7 22.5t14.5 23.5t14.5 19l7 7 q0 6 -9.5 16t-9.5 21q0 45 5.5 88t12.5 89t12 97t5 113q0 12 -6 21t-6 20q0 -2 6 18.5t21.5 46t39 47t58.5 21.5t50 -10.5t15 -42.5q4 -57 30 -113.5t38 -120.5q4 -25 15.5 -43t15.5 -43q2 -16 12 -34.5t19.5 -37t17.5 -37t8 -36.5q0 -66 39 -66q6 0 10 6q66 104 121 215 t131 215q14 29 37 43.5t35 42.5q14 29 37.5 42.5t46.5 35.5q10 -4 19 -6t20 -2q6 0 12 2t12 2q14 0 28.5 -3t20.5 -19q0 -4 -2 -10.5t-4 -10.5h2q0 2 -2 2q16 4 23 6q12 0 23.5 -9t19.5 -22.5t13 -28.5t5 -26q0 -6 -1 -13t-1 -11q0 -18 17.5 -29.5t17.5 -26.5q0 -10 -9 -24 t-16 -25q23 -23 34.5 -33t11.5 -42q0 -16 -3.5 -32t-3.5 -32q0 -18 3.5 -38.5t3.5 -41.5q0 -31 -13.5 -60.5t-13.5 -72.5q0 -27 8 -47.5t8 -42.5q0 -12 -5 -24.5t-5 -28.5q0 -23 2 -42.5t2 -41.5q0 -8 -6 -27.5t-10 -19.5t-7 1t-8 1q-4 0 -5 -19.5t-1 -40.5q0 -35 1 -62.5 t1 -58.5q0 -25 9.5 -45t9.5 -30q0 -18 -2 -39t-2 -39q0 -16 3 -29.5t3 -30.5q0 -25 -2 -48t-2 -52q16 0 27.5 12.5t27.5 36.5v-53q0 -4 -9 -13.5t-19.5 -20.5t-19.5 -23.5t-9 -20.5q0 -6 3 -12t3 -12q0 -10 -2 -18.5t-2 -18.5q0 -16 6 -17q4 0 7 5.5t7 5.5t7 -4.5t8 -4.5 q4 0 8 6.5t10 12.5zM1219 1233q0 2 1 3t1 3t-9 10q2 -6 2.5 -10t4.5 -6zM1212 799q-2 -10 -3 -16.5t-1 -14.5q0 -12 9 -27q0 12 1 20.5t1 16.5zM182 680q4 -8 11 -8q8 0 8 8q0 10 -8 10q-11 0 -11 -10zM203 477q4 0 10 6l-2 4v2q-14 0 -14 -10l4 -4q2 0 2 2zM209 528 q12 0 12 19q0 6 -2 8l-6 6q-4 0 -11 -9t-7 -13t5 -7.5t9 -3.5zM244 799q4 16 4 20l-4 4q0 -2 -2 -3t-2 -3q0 -4 2 -9t2 -9zM258 604h2h-2zM270 608q4 0 4 2t-2 4q0 -2 -4 -6h2zM276 721q0 2 1.5 3t1.5 5t-1.5 11.5l-3.5 17.5q-2 -10 -2 -15.5v-9.5t4 -12zM336 821 q-4 -4 -4 -6t1 -3t1 -3l4 4q0 2 -1 3t-1 5zM309 502q2 0 2 4l-2 4v-8zM303 592q12 16 24.5 47t12.5 51q0 2 -2 4t-4 6l2 2q0 14 -3 19.5t-8.5 10.5t-8.5 11.5t-3 20.5v22q0 10 -2 19.5t-8 11.5q-4 -14 -4 -26.5v-28.5q0 -27 1 -51.5t1 -48.5v-23.5t-2 -24.5q0 -4 2 -10 t2 -12zM1124 705v6t-4 4v-6q0 -4 4 -4zM1182 1071q-4 -4 -4 -6q0 -4 4 -12q4 0 4 8t-4 10zM1167 745q2 -6 9 -18q0 -4 -1 -10t-1 -15q0 -4 6 -6q0 2 2 4q4 4 4 9q0 10 -2 25.5t-13 15.5zM1165 580q-4 -4 -4 -7v-4q12 -12 13 -22q0 -6 -3.5 -11.5t-3.5 -9.5q0 -6 9 -6 q6 0 9 15.5t7 23.5q-2 8 -5 16.5t-11 8.5q-7 0 -11 -4zM1169 465q-4 -4 -4 -10q0 -8 6.5 -10.5t10.5 -4.5q4 8 4 13q0 14 -8 14h-4q-3 0 -5 -2zM1202 211l-2 2q2 12 3 25.5t1 25.5q0 10 -7 17.5t-17 7.5q-6 0 -8.5 -19.5t-2.5 -33.5q0 -8 2.5 -21.5t6.5 -27t7 -23.5t7 -12 q10 4 10 25.5v33.5z" />
<glyph unicode="N" horiz-adv-x="1218" d="M678 952q0 -4 -1 -8t-1 -8q0 -10 12 -12q12 -4 17.5 -17.5t6.5 -28t2 -25.5t7 -11q4 0 7 2t5 2q8 0 15.5 -9.5t11.5 -23.5t7 -28.5t5 -24.5q2 -18 12.5 -32.5t20.5 -27t19.5 -24.5t9.5 -25q0 -6 6 -17t15 -22.5t17.5 -20.5t12.5 -9q6 0 10 7t7 16t5 17.5t2 10.5 q0 6 -5 11t-5 18q4 14 8 44.5t4 41.5q0 6 -9 12t-9 18q0 29 6 56.5t6 56.5q0 16 15.5 22.5t15.5 12.5q0 4 -6 7t-17 19q4 70 13.5 138.5t19.5 138t17.5 140.5t7.5 147q0 27 29.5 30.5t52.5 3.5q31 0 47 -19.5t16 -51.5q0 -94 -22.5 -186.5t-22.5 -186.5q0 -29 -8 -47.5 t-18.5 -33.5t-18.5 -29.5t-8 -32.5q0 -20 -18.5 -49t-22.5 -52q10 6 18.5 11.5t12.5 5.5q6 0 6 -9q-10 -31 -10 -57q0 -18 7 -34.5t7 -35.5q0 2 -4 -12t-15 -14q-10 0 -12 14t-2 27q-10 -4 -10 -15q0 -4 1 -5t1 -5q0 -20 -13.5 -29.5t-13.5 -19.5q10 -6 23.5 -9t13.5 -13 q0 -4 -2 -7q-12 -14 -12 -31.5t-2 -33.5q0 -8 6 -15q23 -23 27 -68.5t4 -86.5q0 -47 13 -85t13 -79q0 -39 -7 -68.5t-7 -62.5q0 -10 1 -22.5t1 -22.5q0 -35 -26.5 -49.5t-61.5 -26.5q-23 29 -35 59.5t-22 65.5q-12 41 -34 85t-26 79q0 12 -13 30.5t-13 47.5q0 4 -6.5 14 t-14.5 21.5t-18.5 21.5t-16.5 12q2 0 -6 15.5t-19.5 39t-25.5 47t-25 38.5q-10 14 -34.5 51t-24.5 104q0 4 1 7t1 8q0 4 -4 12t-14 8q-6 0 -12.5 -5t-10.5 -5q-16 0 -25.5 34.5t-17.5 77.5t-17 78t-26 35q-6 0 -10 -6t-8 -10q-4 6 -10.5 20.5t-13.5 27.5t-15 24.5t-17 11.5 q-10 0 -19 -16.5t-16.5 -40t-12.5 -49t-5 -44.5q0 -23 12.5 -54.5t12.5 -66.5t-12.5 -55t-12.5 -35q0 -4 12.5 -22.5t12.5 -53.5q0 -37 -10.5 -62.5t-10.5 -51.5q0 -23 12.5 -51.5t12.5 -55.5q0 -10 -10.5 -24.5t-10.5 -30.5q0 -8 1 -16.5t1 -16.5q0 -10 -5 -17t-11 -12.5 t-11 -10.5t-5 -13t5 -18.5t11 -25.5t11 -40t5 -64q-10 -41 -22 -71q-10 -29 -27.5 -50.5t-38.5 -21.5q-27 0 -45 21.5t-30.5 50t-17.5 56.5t-5 42q0 29 9 54.5t9 48.5q0 20 -10 38.5t-10 40.5q0 18 6 34t6 32q0 31 -6 71t-14 68q-4 14 -11.5 27.5t-7.5 27.5q0 18 16.5 28.5 t16.5 31.5q0 45 -6 92q0 10 -8 21.5t-8 23.5q0 14 12 24.5t12 26.5q0 6 -1 11.5t-1 13.5q0 10 5 19.5t5 19.5q0 20 -7 43.5t-7 46.5t6 44t6 44q0 14 -4 26.5t-4 26.5q0 4 1 8t1 9q10 78 18.5 159.5t24.5 159.5q0 8 14.5 18.5t34 19.5t40 14t32.5 5q16 0 25.5 -8t15.5 -19 t12 -24.5t17 -23.5q35 -35 61.5 -77t42.5 -91q6 -23 19.5 -54.5t26.5 -61.5t23.5 -51.5t10.5 -25.5q2 0 14 4q6 0 12.5 -5t6.5 -15q0 -4 -2 -11.5t-2 -11.5q0 -2 4 -6q12 -6 17 -16t7 -22.5t7.5 -24t17.5 -15.5zM287 688q2 -6 3 -18.5t4 -24.5t7 -20.5t12 -8.5 q10 0 15.5 8.5t5.5 18.5q-2 18 -3 45t-9 43q-2 -2 -13.5 -14.5t-21.5 -28.5zM313 328q-2 23 -3 24.5t-5 12.5q-10 -4 -14 -20.5t-4 -29.5q0 -12 14 -18q8 8 8 17.5t4 13.5zM285 834q0 -29 4 -29q4 4 5 11t1 13q0 18 -10 37v-32zM240 940q23 6 22 27q0 16 -14 16 q-12 0 -12 -14q0 -9 4 -29zM246 893q14 -4 14 14q0 2 -4 4t-6 2q-8 0 -8 -10q0 -6 4 -10zM256 784q-8 8 -10 9q-2 0 -4 -2.5t-6 -4.5q0 -4 1 -13t5 -9t9 8t5 12zM338 403q0 8 -4 9q-6 0 -6 -9q0 -8 6 -8q4 0 4 8zM217 528q0 6 -1 7.5t-5 5.5q-4 -8 -4 -13q0 -2 1 -4t1 -4 q8 0 8 8zM1030 1157q-6 0 -6 -6q0 -4 4 -4q2 0 4 4q0 2 -1 3t-1 3zM242 688l-2 -4l4 -2zM242 625q2 0 4 2q0 6 -2 6q-2 -2 -4 -2t-2 -2zM987 809q-2 2 -3 4t-3 4q-4 0 -4 -4t1 -6t1 -6zM336 465q-4 -4 -4 -6t1 -3t1 -3l4 4q0 2 -1 4t-1 4zM1028 1100l-4 -6h6zM680 950 q2 4 8 11q0 -10 -2 -11q-2 0 -4 1t-4 1z" />
<glyph unicode="O" horiz-adv-x="1259" d="M1026 1239q0 -8 9 -23.5t21.5 -35t24 -42t15.5 -44.5q8 -39 20 -75t25 -73q-10 -20 -14.5 -40.5t-4.5 -26.5q0 -16 13.5 -55.5t13.5 -78.5q0 -10 -1 -18t-1 -18t1 -19.5t3 -19.5q-4 0 -6 -2l4 4q8 -8 8 -19q0 -10 -4 -14q-6 -8 -9 -26.5t-7 -38t-9.5 -34t-13.5 -14.5 q2 -2 2 -6l-4 2q2 2 4 2q0 -14 -6 -49t-18.5 -80t-35 -95t-57.5 -93q-20 -53 -64 -97t-98.5 -77t-114.5 -50.5t-112 -17.5q-90 0 -176 43q-35 16 -65.5 52t-69.5 61q-16 2 -33.5 29.5t-34 62.5t-34 67.5t-35.5 49.5l-8 18q-7 17 -16 41.5t-16 50t-7 41.5q0 10 2 20.5t2 20.5 q0 20 -7.5 44t-7.5 50q0 8 1 14.5t1 14.5q0 18 -2 36.5t-2 37.5q0 35 3.5 92t15.5 127t36.5 147.5t67.5 153.5q20 37 42 78t47.5 73.5t59.5 54t83 21.5q12 0 25.5 -3t25.5 -3q35 0 85 16.5t97 16.5q51 0 92 -9t86 -32q14 -8 32 -34.5t38 -31.5q37 -35 51.5 -52t18.5 -30.5 t5 -26.5t13 -38zM502 197q-2 2 -2 3t-2 3l-4 -2q0 -4 4 -4l4 2q0 -6 1 -7.5t3 -3.5q2 2 2 5zM549 178q14 0 34.5 -6t43 -14t43 -14.5t35.5 -6.5q25 0 49 13q66 31 122 93t97 140t63.5 164t22.5 164q0 53 -3 113.5t-20 107.5q-10 27 -8 54.5t-12 51.5q-2 2 -2 6q0 6 2 11.5 t2 9.5q0 25 -17.5 54.5t-40 60t-45 61.5t-34.5 55q-4 10 -31 25.5t-39 32.5q-20 25 -48 26.5t-46 20.5q-6 4 -36 13t-52 9q-8 0 -33 -24.5t-52.5 -59t-51 -70.5t-31.5 -59q-23 -63 -57.5 -129.5t-43.5 -126.5q-6 -45 -24.5 -91t-18.5 -93q0 -10 4.5 -17.5t4.5 -15.5t-1 -15 t-1 -13q0 -31 8 -61t8 -58q0 -10 -3 -18.5t-3 -16.5q0 -18 16.5 -36.5t16.5 -43.5q0 -6 -2.5 -12t-2.5 -12q0 -2 5.5 -11.5t12.5 -21.5t14 -23.5t12 -19.5q27 -57 68.5 -100.5t76.5 -94.5l-4 -4q0 2 -1 2t-1 2q2 0 2 -1t2 -1zM1094 1034q-4 2 -6.5 2t-6.5 2q0 -8 4 -8 q5 0 9 4zM369 330q2 0 4 2q0 4 -2 4q-4 0 -4 -2t1 -2t1 -2zM1026 1237q0 2 -2 2q0 2 2 4v-6z" />
<glyph unicode="P" horiz-adv-x="1175" d="M424 508q4 2 6 4t6 2q29 -10 54.5 -29.5t58.5 -33.5q-14 -14 -22.5 -12.5t-28.5 -4.5v2q-10 -14 -24.5 -27.5t-24.5 -13.5q-6 0 -10.5 6.5t-9.5 14.5t-13 14t-23 6q-29 0 -39 -13t-10 -42q0 -6 1 -13.5t5 -13.5q10 -20 9 -54t16 -64q14 -25 17 -61t3 -73 q0 -72 -10 -100.5t-23.5 -39.5t-23.5 -18t-10 -36q0 -10 -3 -16.5t-16 -6.5q-8 0 -16 11.5t-17 19.5q-14 -6 -29.5 -13t-25.5 -7q-16 0 -32.5 20.5t-16.5 38.5t4 37.5t4 38.5q0 16 -5 31.5t-5 31.5t3 39t3 43q0 37 -18 78q-4 10 -7.5 34.5t-5.5 55.5t-2 62.5v58.5 q0 29 6.5 57.5t6.5 57.5q0 49 -2 100t-2 100q0 43 20.5 83t20.5 81q-2 16 -3.5 27.5t-1.5 19.5q0 16 3.5 31.5t13.5 46.5q0 8 -1 13t-1 14q10 49 15 101t15 106q2 20 3.5 38.5t8.5 34t22.5 24.5t49.5 9q49 0 60.5 -22.5t11.5 -79.5q0 -37 -3 -74t-3 -74q0 -20 -10.5 -41.5 t-10.5 -44.5q0 -27 4.5 -57.5t9.5 -59t9 -53t4 -41.5q-2 -12 -9 -37.5t-9 -46.5q-4 -25 -16.5 -53.5t-12.5 -42.5q0 -29 2 -48.5t18 -33.5l10 -9q11 -9 23.5 -23.5t21.5 -30t9 -27.5l-4 2h4q-2 0 -2 -4zM190 645q-2 -6 -4 -13t-2 -11t4 -5h5.5t1.5 7q-2 4 -4.5 10t-4.5 10h7 q0 -2 -3 -2v4zM250 694q8 2 17 23.5t16.5 50.5t12.5 56.5t5 39.5q0 8 -1 23.5t-7 15.5q-16 0 -17 -20q0 -8 4.5 -15.5t4.5 -13.5q0 -20 -18.5 -57t-18.5 -70q0 -10 1 -22.5t1 -22.5v12zM188 412q-4 0 -4 -4q0 -2 1 -3.5t1 -3.5q4 4 4 5q0 2 -1 3t-1 3zM856 606 q-4 -10 -13 -22.5t-20 -12.5q-4 0 -7 1t-7 1q-23 0 -44.5 -13t-38.5 -28.5t-28.5 -29t-13.5 -13.5t-13.5 6.5t-19.5 10.5q8 23 46 41t67 37q6 4 22.5 17t34 28.5t30.5 29t13 17.5t-4 7t-8 3t-8 -2t-8 -2q-6 0 -12.5 13.5t-6.5 23.5q4 0 11.5 1t9.5 1l-2 2q-12 0 -15.5 -5 t-5.5 -11.5t-3 -11.5t-9 -5t-8 10t2 17.5t6 15.5q23 39 41 90t30.5 105.5t19.5 110t7 104.5q0 6 -3 37.5t-12 67.5t-24.5 63.5t-42.5 27.5q-20 0 -32.5 -12t-34.5 -14q-2 0 -18.5 -7.5t-38 -22.5t-42 -39.5t-32.5 -59.5q-2 -4 -16.5 -19.5t-34 -33t-41 -32t-35.5 -14.5 q-20 0 -16.5 -12t-6.5 -22q-6 0 -7 15t-1 26q0 12 9 30.5t24.5 38t33 35.5t33.5 27q2 0 7 11t13.5 26.5t18.5 31t23 25.5q6 4 10 10l8 12q12 23 34.5 27t39.5 25h-4q18 14 48 38.5t56 24.5q6 0 11.5 -2t11.5 -2q8 0 16 4t14 4t12.5 -4t10.5 -4q10 0 17.5 8t15.5 8 q14 0 19 -6t8 -12t8.5 -12t17.5 -6q4 0 10 1t12 1q8 -14 21.5 -31t26 -34t21.5 -32.5t9 -27.5q0 -4 -2 -9.5t-2 -13.5q0 -10 9.5 -17t9.5 -18q0 -31 -6.5 -62.5t-6.5 -60.5q0 -4 1 -10t1 -12q0 -35 -16 -75t-16 -73q0 -10 3 -17t3 -17q-4 -27 -14.5 -51.5t-24.5 -47 t-27.5 -45t-21.5 -43.5l4 2q0 -16 -6 -42.5t-27 -26.5q-6 8 -9 22.5t-5 27.5t-4 22.5t-9 9.5q-12 0 -16 -17.5t-4 -27.5q0 -12 3 -23.5t3 -24.5q0 -18 -16.5 -30.5t-26.5 -22.5q0 20 -10 21q-14 0 -29 -11l4 -2l-4 4q10 -8 19.5 -9t19.5 -1zM623 432q12 0 19 8.5t17 12.5 q10 0 11 -13q0 -8 -10.5 -10t-12.5 -2q-6 0 -13 2t-11 2zM565 395q0 -18 -16 -18q-4 0 -11.5 2t-9.5 8q0 6 5.5 13.5t13.5 7.5q10 0 12 -4.5t6 -8.5zM602 385q0 6 8 18v-2l-4 -8zM610 401q4 8 4 17.5t11 13.5q-4 -10 -6.5 -15.5t-8.5 -15.5zM598 385h4h-4q-2 0 -2 2q2 0 4 2 zM719 1393l-4 -2h2z" />
<glyph unicode="Q" horiz-adv-x="1181" d="M954 1296q8 0 12.5 -25.5t6.5 -59t2 -67.5v-52q10 4 17 8t18 4q25 0 39 -33t21 -85t8 -115.5t1 -122.5q0 -12 -5 -32t-5 -40q0 -14 3 -28.5t3 -31.5q-10 -92 -38.5 -169.5t-51.5 -159.5q-4 -12 -17.5 -30.5t-26.5 -42.5t-24.5 -48.5t-11.5 -48.5q0 -31 15.5 -53.5t36 -44 t41 -44t28.5 -53.5q-10 -16 -21.5 -30.5t-29.5 -14.5q-23 0 -48.5 22.5t-49 50t-43 50.5t-31.5 23t-21.5 -8.5t-19.5 -17.5t-21.5 -16.5t-27.5 -7.5q-12 0 -22.5 -7t-24.5 -17q-29 0 -58.5 -7.5t-58.5 -7.5t-59.5 8.5t-57.5 18.5q-16 4 -29.5 15.5t-29.5 17.5 q-86 25 -133 96q-10 14 -18.5 29.5t-26.5 21.5q-8 10 -22.5 31t-29 52.5t-26 74.5t-11.5 98q0 16 1.5 31.5t1.5 32.5q0 29 -3.5 58.5t-3.5 58.5q0 27 6.5 50t6.5 48q0 16 -5.5 32.5t-5.5 32.5q0 49 19.5 101.5t19.5 105.5q0 18 8.5 55t22.5 80t33.5 88.5t40.5 79.5 q6 12 20.5 42t32.5 63t39.5 57.5t42.5 24.5q29 0 62.5 -14.5t68.5 -14.5q29 0 54.5 -5t49.5 -5q6 0 11.5 3t11.5 3q10 0 21.5 -6t21.5 -8q10 8 17.5 15t15.5 13q10 0 10 -8q-4 -16 -4 -20q0 -12 7 -30t18 -18q6 0 13 8.5t15 19.5t14.5 21.5t10.5 16.5v-4q0 -2 2 -2t2 4h-6 q4 4 10 8t14 4q14 0 26.5 -16.5t18.5 -28.5q-20 0 -20 -8q0 -10 10 -20.5t21 -10.5q6 0 6 4q-8 4 -13 4q-2 0 -14 -4l6 37q25 0 34 -9t15.5 -21.5t13.5 -25.5t27 -24q-20 -20 -20 -53q0 -10 2 -24.5t12 -14.5q6 0 7 8.5t1 12.5q0 12 -3 25.5t-3 25.5q0 8 4 20zM938 1055 q2 16 7 34.5t5 30.5q0 6 -2 8q-25 25 -33 47.5t-12 40t-14 28.5t-37 16l-4 -5l6 5q-6 -12 -6 -27q0 -14 3 -30.5t5 -39.5q-16 31 -34.5 47.5t-22.5 40.5l-7 9q-6 8 -15 16t-18 15t-18 7q-16 0 -26 7.5t-23.5 14.5t-35 14t-60.5 7q-31 0 -58.5 -29.5t-52 -69.5t-43 -80 t-26.5 -62q-6 -12 -15.5 -32.5t-18.5 -42t-15.5 -41t-6.5 -32.5q0 -4 1 -7t1 -7q0 -14 -5 -27.5t-5 -27.5q-2 -41 -1 -81t-3 -81q-2 -35 -12 -62.5t-10 -56.5q0 -10 1 -18.5t1 -18.5q0 -14 -2 -26.5t-2 -24.5q0 -31 3 -69.5t11 -75.5t21.5 -69t35.5 -50h-2q0 -4 12.5 -25.5 t37 -45t59.5 -42t80 -18.5q8 0 27.5 6t39 16.5t33.5 23.5t14 30q0 8 -2 10q-6 18 -13 28.5t-12 18.5t-8.5 18.5t-3.5 26.5q14 6 27.5 14t28.5 8q18 0 36.5 -15t32.5 -15q20 0 45 40t46.5 98t37 123.5t15.5 119.5q0 25 7 47t15 45.5t15.5 49.5t7.5 54q0 43 -21.5 84t-21.5 82 q0 13 10 23zM1032 993q0 -4 -1 -7t-1 -7q0 -14 6 -14q8 0 8 8v19.5t-8 13.5q-6 0 -6 -7q0 -2 1 -3t1 -3zM201 555q-4 8 -3 13t-3 10q-4 0 -7.5 -6.5t-3.5 -10.5q2 -4 3 -10t3 -10q4 4 6.5 7t4.5 7zM188 651q0 -4 -4 -20q0 -4 2 -6t4 -7q2 4 4.5 5.5t4.5 5.5q0 4 -2.5 13 t-8.5 9zM193 719q4 8 4 16q0 2 -4 10q-4 -8 -5 -12q1 -6 5 -14zM874 1313l-4 -4q2 -4 4.5 -5t4.5 -6q8 0 8 9zM231 653q0 8 -4 9q-4 0 -4 -7l2 -2q0 -2 2 -2z" />
<glyph unicode="R" horiz-adv-x="1093" d="M338 729q16 -10 20 -17t11 -26q25 18 35 40t15 43.5t9 40.5t16 38q10 14 15.5 42t9.5 58.5t10 56t19 37.5q8 8 11 20.5t5 27t6 27.5t15 26q14 16 16 49t27 53q31 23 43 56.5t43 58.5q16 12 29.5 29.5t31.5 33t43 25.5t63 10q35 0 74 -28.5t68 -63.5q2 -39 7 -79t5 -75 q0 -31 -5 -66.5t-5 -70.5q0 -23 -15.5 -42t-15.5 -48q0 -20 -4 -27.5t-9 -9.5t-10.5 -4t-7.5 -12q0 -8 -8 -24.5t-18 -38t-20.5 -44t-14.5 -41.5q-4 -18 -16.5 -35.5t-25.5 -33t-24.5 -30.5t-13.5 -28q-6 -23 -25.5 -37t-42 -26t-40 -25.5t-17.5 -33.5q0 -10 17.5 -31 t27.5 -31q16 -23 30.5 -52.5t30 -61t35 -61.5t43.5 -50q16 -10 19.5 -31.5t15.5 -34.5q16 -16 27.5 -36.5t22 -40t21.5 -38t28 -32.5q8 -8 8 -23.5t8 -25.5q6 -12 18.5 -29.5t24.5 -34t20 -28.5l9 -13q0 -16 -9.5 -26.5t-9.5 -18.5t4 -17t4 -18q0 -18 -13 -30.5t-34 -12.5 q-10 0 -18 1t-19 3q-10 2 -30.5 17.5t-42 36t-41 42t-25.5 33.5q-6 27 -26.5 45.5t-32.5 43.5q-25 45 -57.5 94t-65.5 98q-10 16 -30.5 47t-43 60.5t-42 52t-29.5 22.5q-4 0 -8.5 -12t-9.5 -29.5t-8 -37t-3 -35.5q0 -10 2 -17q0 -8 -2 -15t-4 -15q-6 -27 -15.5 -70 t-21.5 -85t-26.5 -73t-33.5 -31q-8 0 -21 1.5t-22 -7.5q-23 2 -42 2t-41 4q-29 6 -47.5 32t-27.5 60.5t-12.5 73.5t-3.5 74q0 23 6.5 44.5t6.5 43.5q0 16 -5.5 32.5t-5.5 35.5q0 35 7.5 64.5t7.5 54.5q0 12 -9.5 29.5t-9.5 37.5q4 66 10.5 129.5t6.5 122.5q0 16 -3 33.5 t-3 34.5q0 10 2 18t2 16q0 20 -6.5 42t-6.5 44q0 78 4.5 154t20.5 152q6 33 4 62.5t0 51t15.5 33.5t48.5 12q20 0 41.5 -10t40 -25.5t29.5 -36t11 -40.5q0 -82 8.5 -155t8.5 -150q0 -41 -7.5 -69t-7.5 -54q0 -16 2.5 -33t2.5 -37q0 -47 -29 -82q2 12 3 24.5t3 26.5q0 6 -4 6 t-6 -2q2 -12 2 -26.5t2 -28.5zM825 1227q0 8 -1 22.5t-4 28.5t-9 24.5t-20 10.5q-12 0 -27.5 -15.5t-31 -37t-30 -43t-22.5 -33.5q-16 -23 -22.5 -50.5t-12.5 -58.5t-14 -62.5t-27 -58.5q-6 -10 -6 -20q-6 -41 -18.5 -79t-24.5 -77q-10 -23 -18.5 -30t-8.5 -23 q0 -12 5.5 -30.5t15.5 -18.5q16 0 42.5 15.5t43.5 23.5q4 12 13 15t19.5 4t17.5 5t7 17q0 4 -1 9t-1 9q0 29 18.5 55.5t18.5 49.5q4 33 28.5 64.5t32.5 74.5q0 16 7 29q16 41 20 86t10 94zM741 733q4 6 7.5 9t3.5 8q-14 0 -13.5 -3.5t-3.5 -11.5q0 -2 2 -2h4z" />
<glyph unicode="S" horiz-adv-x="1058" d="M793 250v2v-2zM817 303q0 2 -2 2q2 0 2 -2zM739 168q0 -2 -2 -2zM1300 664q4 0 5 -13q0 -10 -21.5 -28.5t-34.5 -18.5q-10 0 -21 3t-22 3q-61 0 -107 -21.5t-120 -72.5q-4 -6 -9 -22.5t-12.5 -35t-15.5 -31.5t-16 -13q-4 0 -11.5 2t-11.5 2t-18.5 -11.5t-30.5 -26.5 t-29.5 -32.5t-13.5 -32.5q0 -8 4 -10q-12 -35 -28.5 -67.5t-49.5 -71.5h2q-6 -8 -15 -17.5t-9 -15.5q0 -12 10 -12q8 2 16.5 5t16.5 3q4 0 8 -6q0 -12 -24.5 -31.5t-54.5 -40t-55 -35.5l-24 -14q-12 0 -20 8t-19 8q-16 -4 -38.5 -20t-54.5 -33.5t-73 -32t-96 -14.5 q-49 0 -83 37t-34 98q0 20 14.5 41t33 39.5t37 35.5t24.5 34q8 20 27.5 44.5t43 49.5t51.5 47.5t52 38.5q31 20 65.5 39.5t59.5 46.5q10 10 25.5 16.5t33 12.5t31.5 14t21 20q31 16 53 31t22 55q0 20 -10 45t-39 25q-16 0 -30.5 -2t-30.5 -2q-14 0 -23 2q-14 -8 -29.5 -10 l-31 -4t-29.5 -5t-26 -12q-37 -20 -79 -41.5t-84 -39t-82 -28.5t-73 -11q-53 4 -94 14q-35 10 -64.5 29.5t-29.5 54.5q0 4 1 10t1 10q0 16 -5.5 31.5t-5.5 36.5q0 16 7.5 27.5t15.5 20.5t15.5 19.5t9.5 26.5q0 47 22.5 80t56.5 61q16 10 27 35q6 12 17.5 22.5t22.5 19.5 t20.5 17.5t9.5 18.5q0 2 -4 14q4 6 7 13.5t9 11.5q33 18 63.5 45t60.5 53.5t58.5 50t57.5 39.5q12 6 29.5 19.5t32.5 27t29.5 23.5t20.5 10q27 2 43.5 16.5t34.5 28.5q10 10 32.5 20.5t39.5 20.5q20 -8 48 -23.5t51.5 -35t39.5 -40t16 -34.5q0 -16 -12 -19t-24 -3 q-10 0 -19.5 3t-19.5 3q-61 0 -127 -33t-115 -70q-23 -16 -43.5 -32.5t-46.5 -26.5l-14 -11q-15 -12 -33.5 -27t-38 -31.5t-27.5 -28.5q-16 -20 -34.5 -34.5t-37 -30t-35 -32t-24.5 -38.5l2 -3q-2 0 -4 1.5t-4 1.5q-6 -10 -13 -18.5t-14 -16.5q2 -6 4.5 -12.5t2.5 -12.5 q0 -8 -7.5 -14t-14.5 -13.5t-14 -15.5t-7 -22q0 -16 -14.5 -28.5t-14.5 -27.5q0 -14 9 -36.5t22 -22.5q57 12 118.5 31.5t125 40t127 35t128.5 14.5q18 0 36 -1t36 -3q18 0 37.5 -12.5t42.5 -16.5q8 -2 13 -7t10 -11.5t9.5 -11.5t12.5 -5q20 -2 31.5 -12t20.5 -22.5 t20.5 -22.5t33.5 -10q47 0 100.5 11t100.5 11q20 0 47.5 -7t54.5 -15zM635 109q0 2 -2 2l-2 -2h-2h2q-2 0 -2 -3l2 -2q2 0 2 5h2zM692 279q33 31 33 77q0 10 -2 19.5t-14 9.5q-23 0 -51.5 -24.5t-51.5 -32.5q-12 -12 -24 -23q-10 -10 -21.5 -20.5t-21.5 -14.5 q-6 -4 -38 -27.5t-68 -58t-63.5 -74.5t-27.5 -73q0 -16 6 -31q14 4 27.5 11.5t30.5 7.5q4 0 9 -2.5t9 -2.5h-4q0 2 17.5 10.5t40 18.5t42 21.5t23.5 23.5q4 14 17 29.5t28.5 30t27 25.5t11.5 18q0 23 23.5 44.5t41.5 37.5zM737 215q4 0 4 4l-2 2q-2 0 -4 2h-2q-2 0 -4 -2 q2 -4 2 -6t4 -2zM907 457q2 0 2 4h2h-4h-2v-2z" />
<glyph unicode="T" horiz-adv-x="1120" d="M629 285q-2 -4 -2 -7.5t-2 -7.5h2q-4 0 -4 -6q0 -10 6 -19t6 -20q0 -8 -3 -14t-3 -12q0 -10 6 -21.5t6 -25.5q0 -10 13.5 -35t13.5 -47q0 -41 -33 -51.5t-70 -20.5q-16 16 -35.5 34.5t-19.5 41.5q0 6 4 18q-4 25 -14.5 58.5t-10.5 58.5q0 8 7 14l-4 -4l-3 2q0 2 1.5 2 t1.5 2l4 -6q-18 18 -25.5 46t-10.5 57.5t-3 60.5t-2 59q0 23 4 42.5t4 41.5q0 14 -3 30.5t-3 33.5q0 47 4 68.5t20 52.5q0 14 -13 30.5t-13 34.5q0 37 6 76t6 78q0 10 -1 18t-1 19q0 16 11 33.5t11 33.5t-7 31.5t-7 30.5q0 12 5 22t5 23q0 41 -11 54t-17 13q-27 0 -61 -10 t-71.5 -22.5t-76.5 -22.5t-74 -10t-62.5 7t-56.5 21q-2 2 -17.5 10.5t-31.5 23t-30.5 35t-14.5 44.5q0 14 13.5 26.5t29.5 12.5t32.5 -6t33.5 -6q20 0 38.5 3t38.5 7q12 2 64.5 13.5t111 25.5t105.5 28.5t47 24.5q0 6 -2 11.5t-2 13.5q0 14 27.5 21t44.5 7q27 0 50 -12 t50 -12q18 0 35.5 5t34.5 7q92 10 178 30.5t178 20.5q10 0 35.5 -1t52.5 -7t47.5 -19.5t20.5 -37.5q0 -35 -33 -51.5t-77 -25.5t-91 -12t-76 -10q-14 0 -20 -9t-17 -9q-8 0 -15 4t-15 6q-27 -20 -71 -33.5t-83 -21.5q-18 -4 -29.5 -40t-17.5 -84t-9 -97t-3 -80 q0 -10 2 -19.5t2 -19.5q0 -43 -4 -87t-4 -89q0 -29 2 -56.5t2 -56.5q-8 -45 -6 -89t-5 -87q-4 -35 -17 -74t-13 -69q0 -8 4 -15.5t4 -13.5q0 -4 -2 -9t-4 -9zM625 270q2 -6 2 -18q0 12 -2 18zM627 283l2 2z" />
<glyph unicode="U" horiz-adv-x="1433" d="M786 659q-4 0 -5 1.5t-3 1.5q-8 0 -13 -12.5t-7 -30t-2 -35v-29.5q0 -14 -7.5 -30.5t-16.5 -34t-16 -38t-7 -40.5q0 -25 -9.5 -47.5t-20.5 -44t-20.5 -43t-9.5 -46.5q0 -18 -6 -18q-4 0 -7 6t-7 6t-11.5 -25.5t-18.5 -57t-27.5 -61.5t-36.5 -36q-2 0 -14.5 -17.5t-32 -37 t-46 -35.5t-57.5 -16q-6 0 -12 2t-11 2q-10 0 -23 -5.5t-30 -5.5q-29 0 -55.5 21.5t-49 54.5t-35.5 70t-13 65q0 35 -14.5 64t-14.5 55q0 14 1 27.5t1 29.5q0 29 -2 60t-2 59v130.5t10 129.5q12 92 12 188.5t9 192.5q0 20 7 40t7 36q0 6 -2 12.5t-2 12.5q0 16 2 34.5t2 38.5 q-2 14 -4 26.5t-4 27.5q14 16 33.5 20t42.5 4q33 0 52 -10t28.5 -26.5t12.5 -36t3 -35.5q0 -8 -1 -16.5t-1 -16.5q0 -14 1 -27.5t1 -25.5q0 -25 -6 -45q0 -14 2 -27.5t2 -28.5q0 -18 -1 -37.5t-1 -37.5v-13.5t2 -15.5q0 -29 -5 -50.5t-5 -58.5q0 -23 3 -46t13 -42 q0 -31 -12.5 -62.5t-12.5 -49.5q0 -12 8.5 -22.5t8.5 -20.5q0 -6 -7.5 -16.5t-15.5 -19.5t-15 -17.5t-7 -12.5q0 -27 4 -39t10 -17t10 -7t4 -11q-4 -35 -13 -65.5t-19 -67.5q0 -2 1 -6t5 -6q14 -8 18 -26.5t6 -37t2 -33t6 -14.5q12 -2 16.5 -10t6.5 -17.5t6 -16.5t14 -7 q23 0 51.5 44t58.5 103.5t57.5 123t45.5 100.5q23 47 36.5 85t45.5 77q14 16 13.5 38.5t15.5 38.5q12 12 14 31t17 31q14 10 21 25.5t14 31.5q25 53 51 110.5t80 94.5q6 4 7 11t1 16q0 16 14.5 41.5t32.5 53.5t34.5 55.5t20.5 49.5q4 29 23.5 47.5t36.5 40.5v-2q2 0 14 7.5 t24.5 16.5t22.5 17.5t12 8.5q16 0 27.5 -17.5t30.5 -17.5q14 0 24.5 9t28.5 9q10 0 23.5 -19.5t24.5 -49t18.5 -64.5t7.5 -63v-95q0 -41 -12.5 -67.5t-12.5 -46.5q0 -4 1 -10.5t1 -10.5q0 -25 -5 -47t-5 -47q0 -14 -12.5 -36.5t-12.5 -49.5q0 -29 -7 -47.5t-7 -40.5 q0 -10 2 -21.5t2 -23.5q0 -16 -5 -29.5t-5 -30.5q0 -14 4 -22q-4 -35 -6 -74t-2 -76q0 -25 1 -49t1 -51v-57.5t-4 -53.5v-21t2 -24q0 -16 -1 -33.5t-3 -33.5q-4 -18 -13.5 -23.5t-9.5 -17.5t5 -24.5t5 -24.5q0 -23 -11 -45.5t-11 -51.5q0 -23 -2 -52.5t-25 -37.5 q-12 -4 -25.5 -22.5t-25.5 -38t-25.5 -34.5t-27.5 -15q-16 0 -29.5 20.5t-22 50t-12.5 60.5t-4 51q0 49 5 101.5t5 105.5q0 25 -3 51.5t-3 52.5q0 6 1 12.5t1 12.5q0 10 -4 20.5t-4 20.5q0 -2 4 17.5t8.5 42t8.5 43.5l4 20q0 16 -2 29.5t-2 29.5q0 10 4 22.5t4 22.5t-4 18.5 t-4 18.5q0 27 7 50.5t7 45.5q0 6 -2 12.5t-2 10.5q0 10 3 17t3 16q0 6 -2 10q4 33 9 62.5t5 56.5q0 20 -5 42.5t-5 51.5q0 14 4 25.5t4 25.5q0 10 -2 33.5t-6 47t-8 41t-10 17.5q-10 0 -13.5 -12t-6.5 -25.5t-8 -26t-19 -12.5q-4 0 -10.5 3.5t-12.5 3.5q-4 -12 -12 -23 q-6 -10 -14.5 -19.5t-16.5 -13.5l-20 -30t-14.5 -21.5t-6.5 -11.5q0 -4 13.5 -9t13.5 -14q0 -12 -10.5 -18t-23.5 -10t-23.5 -9.5t-10.5 -15.5q0 -23 -10 -41t-10 -39q0 -6 2 -13t2 -13q0 -10 -6.5 -20.5t-6.5 -18.5q0 -10 8.5 -20.5t8.5 -14.5q-1 -7 -17 -17zM1192 719 q2 0 2 2q-4 0 -8 -4q2 0 2 -2t2 -2q4 0 4 4t-2 6v-4zM1126 270q12 0 25.5 6.5t13.5 22.5q0 10 -1 27.5t-11 17.5t-14 -9t-5 -21.5t-2.5 -26t-7.5 -19.5q0 -2 4 -2q0 2 -2 4zM616 498q0 -6 -1 -14.5t-1 -14.5q0 -23 9 -23q10 0 12 16.5t2 24.5v21.5t-10 13.5q-4 0 -8.5 -5 t-4.5 -9t1 -6t1 -4zM965 1106q4 8 8 14t8 13q0 4 -2 9t-6 5q-10 0 -10 -8t1 -15.5t1 -17.5zM297 719q0 4 -1 8t-5 14q-6 -6 -6 -16q0 -4 2 -8t4 -10zM1188 1073q0 4 -1 6t-5 6q-6 -6 -6 -10q0 -8 4 -8q2 0 8 6zM1171 33q2 2 3 4q-4 4 -7 4v-6v-2h4zM274 399q8 0 8.5 5.5 t4.5 9.5q0 6 -11 6q-6 0 -6 -8q0 -5 4 -13zM625 412q0 -4 -1 -6.5t-1 -6.5q0 -2 4 -6q6 6 6 4q0 15 -8 15zM1186 877q0 4 -4 4t-4 -4q0 -2 4 -7l4 2v5zM1169 813q-4 4 -6 5t-6 1q-10 0 -10 -10t6 -10q8 0 16 14zM1169 743q2 2 2 4.5t3 6.5q-2 0 -5 2q-4 -8 -4 -11zM1137 758 l2 6h-4zM289 647q0 -2 -1 -3t-1 -3l4 -2q2 2 2 6zM844 983q-4 0 -4 -4t1 -6t1 -6l6 6q-4 4 -4 10zM1225 -47q-2 0 -3 -1t-3 -1q-6 0 -7 4l2 2l5 2q6 0 6 -6z" />
<glyph unicode="V" horiz-adv-x="1093" d="M813 733q-6 -8 -16.5 -19.5t-10.5 -15.5q0 -6 14.5 -8t14.5 -12q0 -53 -16.5 -80t-16.5 -51q0 -16 6 -31q0 -6 -8 -6q-6 0 -8 9t-4 19.5t-4 19.5t-6 9q-6 0 -7 -10t-1 -25q0 -23 6 -31.5t12 -12t12 -7.5t6 -16q0 -31 -18 -62.5t-18 -70.5q0 -47 -12.5 -69.5t-12.5 -43.5 q2 -6 2 -18q0 -23 -10 -44.5t-10 -41.5q-2 -12 -9.5 -21.5t-14.5 -16.5t-13 -16.5t-6 -23.5q-6 -47 -16.5 -64.5t-51.5 -25.5q-18 -4 -30.5 -16.5t-24.5 -12.5q-8 0 -13.5 3t-13.5 3q-6 0 -11 -3t-11 -3q-35 4 -62 16q-23 10 -42 32t-19 63q0 31 -10.5 55.5t-22.5 48 t-22.5 48t-10.5 55.5q0 25 -13.5 67.5t-17.5 79.5q-4 23 -6 38t-5 27.5t-9 28t-19 37.5q-23 41 -24.5 84t-5.5 88q0 12 -2 32.5l-4 41t-5.5 36t-5.5 19.5q-14 16 -18 32.5t-4 35.5q0 35 6 59.5t6 42.5q0 14 -13 23.5t-13 23.5v21.5t-11 29.5q-6 37 -13 84t-12 99.5 t-8.5 105.5t-3.5 103q0 18 32 26t52 8q43 -4 63.5 -30.5t32 -64.5t17.5 -80t18 -79q8 -25 9.5 -49t3.5 -48.5t5 -49.5t13 -49q4 -8 4 -17q0 -10 -6 -19t-6 -19q0 -6 4 -11q18 -35 21.5 -79t3.5 -85q0 -23 7 -40t7 -37q0 -10 -2 -22.5t-2 -22.5q0 -20 10 -37t10 -35 q0 -16 -3 -29.5t-3 -30.5q0 -20 3 -31.5t26 -27.5q0 -29 2 -54.5t2 -51.5q0 -10 7 -19.5t15.5 -23t15.5 -32t7 -48.5v-9q0 -8 1 -16t5 -15t12 -7q18 0 38 35.5t38.5 85t34.5 99.5t27 79q6 16 17 26t22.5 18.5t20.5 16.5t9 21v63q35 0 48.5 20.5t17.5 48t6 56.5t14 45 t13.5 38.5t13.5 41.5q37 53 78 129t74 147q2 4 12 15.5t23.5 23t28.5 20.5t26 9q10 0 26.5 -5t16.5 -16q0 -4 -5.5 -19t-11.5 -32.5t-12 -31t-8 -13.5q-16 -10 -23.5 -23.5t-11.5 -27.5t-10 -24.5t-19 -14.5q-12 -4 -13 -25.5t-3 -37.5t-12.5 -21.5t-22.5 -9.5t-21.5 -14.5 t-9.5 -36.5q0 -25 -6 -36t-14 -22.5t-19.5 -30t-19.5 -55.5q-6 -16 -20.5 -21t-18.5 -28zM932 1071q-2 -2 -1 4t-3 6q-4 -4 -4 -6q2 -2 6 -10q0 2 1 3t1 3zM760 662q-2 0 -2 -3v-9t4 -5q6 0 6 4q0 2 -2 6t-4 9zM852 881q2 -2 -2 6t-12 8q-4 -4 -4 -10q0 -10 8 -11q4 1 10 7z " />
<glyph unicode="W" horiz-adv-x="1667" d="M1446 266q-14 -14 -27.5 -33.5t-13.5 -42.5q0 -4 1 -5t1 -5q0 -43 -14.5 -100t-36.5 -98q-10 -27 -27.5 -47.5t-32.5 -43.5q-23 -35 -50 -65.5t-70 -42.5q-10 -2 -21.5 -10.5t-25 -16.5t-29 -15t-31.5 -7q-29 0 -45 3t-28.5 9t-22.5 15.5t-29 19.5q-18 10 -28.5 25.5 t-17.5 31t-15.5 28.5t-20.5 21q-8 2 -14 19.5t-12.5 39t-14.5 44t-20 35.5q-10 10 -16.5 40.5t-11.5 67.5t-7 76t-4 63q0 16 -17.5 38t-17.5 42q0 6 1 12.5t1 12.5q0 8 -6 33.5t-12 42.5q-2 8 -10.5 30.5t-17.5 47t-15 43.5l-6 20q-16 0 -36 -27.5t-35.5 -59.5t-24.5 -58.5 t-7 -24.5q-16 -23 -21.5 -52.5t-15.5 -54.5q-12 -27 -19 -54t-18 -54q-2 -6 -12 -23.5t-25.5 -35t-33 -31t-31.5 -13.5q-10 0 -16.5 5.5t-16.5 5.5q-6 0 -14 -6.5t-17 -6.5q-23 0 -45 14.5t-40.5 38t-29.5 54.5t-11 65q-2 16 -4.5 33t-18.5 29q-12 53 -25.5 113.5 t-13.5 117.5q0 23 1 46.5t1 46.5q0 45 -5 87t-5 87q0 68 20.5 155.5t20.5 198.5q0 14 6 26.5t6 26.5q0 4 -1 10.5t-1 10.5q0 6 1 11t3 11q2 18 5 54t8.5 73t16.5 64.5t34 27.5q63 0 77.5 -27.5t14.5 -72.5q0 -37 -7.5 -83t-16.5 -95t-17 -99.5t-12 -97.5q0 -10 1 -21.5 t1 -21.5q0 -12 -3.5 -23.5t-3.5 -21.5t2.5 -18.5t2.5 -18.5q0 -6 -5 -18q2 -10 3 -29q0 -33 -10.5 -64.5t-10.5 -62.5q0 -2 1 -14t3 -26.5t6 -28t13 -19.5q0 -4 -1 -10t-1 -12q0 -14 3 -27.5t3 -28.5q0 -4 1 -28.5t4 -56t7 -60.5t12 -41q8 -6 10.5 -23.5t5.5 -37t8 -34 t19 -14.5q16 0 29.5 26t19.5 42q23 70 55.5 132t69.5 122q18 31 44 77t59 89t74.5 73.5t95.5 30.5q39 0 57 -55t26.5 -132t11.5 -160t9 -138q4 -25 8 -49.5t4 -48.5q0 -4 -1 -10.5t-1 -10.5q0 2 3.5 -7t8.5 -21.5t10 -24.5t9 -19q23 -37 27 -80t28 -77l7 -21q8 -20 20 -44.5 t29.5 -44t38.5 -19.5q14 0 30.5 16t30.5 37.5t26.5 44t22.5 37.5q10 4 19.5 29.5t19.5 57.5t23.5 60.5t31.5 38.5q23 12 28 35t5 45q0 59 16.5 112.5t16.5 106.5q0 10 1 20.5t19 10.5q2 0 3.5 -1t3.5 -1q16 0 16 10q0 6 -3 12.5t-3 12.5q0 10 3 19t3 20q0 6 -1 11t-1 11 q0 20 4 37.5t6 38.5q0 16 10.5 32.5t10.5 34.5q0 8 -1 16.5t-1 18.5t1 22.5t1 22.5q0 31 -13 52q2 8 4.5 16t2.5 14q0 10 -4.5 18.5t-4.5 16.5q0 23 7.5 56.5t7.5 64.5q0 29 -3 60.5t-3 62.5q0 29 27.5 55.5t60.5 26.5q18 0 22 -21.5t4 -42.5q0 -27 -5 -42t-10 -27.5 t-10.5 -23.5t-5.5 -28q0 -10 2.5 -21t2.5 -24q0 -8 -2.5 -14t-2.5 -14q0 -29 12.5 -62t12.5 -51q0 -23 -6 -61.5t-6 -61.5t5 -41t5 -39q0 -29 -7 -55.5t-16.5 -51t-16.5 -47t-7 -46.5q0 -10 4 -31q0 -12 -6 -12q-4 0 -12 4q-10 0 -21.5 -15.5t-11.5 -25.5q0 -16 6 -32.5 t6 -33.5q0 -31 -2 -61.5t-6 -63.5zM1399 471q-4 0 -4 -2q0 -10 4 -10v12zM1419 823q-2 -14 -2 -19t-4 -9q-8 8 -8 16q0 10 3 14t7 9q4 -4 4 -11v-2v2zM1462 455q0 -10 -4 -11q-4 0 -4 2q-2 2 -2 5q0 8 6 8q4 0 4 -4z" />
<glyph unicode="X" horiz-adv-x="1140" d="M424 31q4 -4 9 -8.5t5 -8.5q0 -37 -4 -60.5t-14 -37.5t-26.5 -23.5t-43.5 -19.5q-10 0 -15 5t-16 5q-10 0 -34.5 -8t-44.5 -8q-12 0 -32 7t-20 24q8 47 21.5 92t30.5 92q10 33 23 49t22 45q10 43 32.5 88t46 89t41 90t17.5 94q0 23 -8 38q-16 29 -28.5 60t-23 61.5 t-22.5 60t-31 56.5q-8 12 -24.5 50t-36 86t-42 99.5t-44.5 92.5q-12 16 -12 26q-4 20 -16.5 47t-29 55.5t-34 58.5t-29.5 54q6 18 23.5 42t40 45.5t47 37t47.5 15.5q14 0 30.5 -13.5t34 -33t30.5 -41t21 -37.5q8 -18 19.5 -45t24 -53.5t21.5 -45t13 -20.5q20 -4 33.5 -22.5 t23 -44t16.5 -53.5t17 -48q12 -29 21.5 -60.5t20 -61.5t24.5 -51.5t39 -29.5q20 33 31.5 66t29.5 65q23 37 50.5 78t35.5 82l9 23q10 24 25 59t33.5 75t37 73.5t35 56t26.5 22.5q35 0 61.5 -22.5t26.5 -46.5q-18 -59 -41.5 -120t-50.5 -118q-6 -16 -19.5 -34.5t-26.5 -39 t-22.5 -43t-9.5 -47.5q0 -29 -18.5 -39t-38.5 -30q6 -8 11 -13.5t5 -15.5q0 -6 -9 -30.5t-22.5 -55.5t-27.5 -61.5t-27 -49.5q-10 -14 -10 -32.5v-34.5q4 -51 8 -88q4 -33 8 -59.5t13 -26.5q10 0 15 8t9 18q14 -16 17.5 -34.5t13.5 -36.5q29 -10 40 -36t23 -63q0 -10 -7 -19 t-7 -20q0 -18 7 -35.5t15.5 -33t15.5 -28.5t7 -21q0 -4 -1 -7.5t-1 -7.5q0 -10 19.5 -13t29.5 -7q8 8 17 8q8 0 15 -4t15 -6h-2q16 -14 31.5 -39t22.5 -25q27 0 50 -14t41.5 -34.5t29 -43t14.5 -37.5q0 -33 -24.5 -54.5t-59.5 -21.5q-16 0 -33.5 2.5t-34.5 6.5q-8 0 -16 11 t-21 11q-2 0 -4 -1t-4 -1q-12 0 -21.5 11.5t-20.5 23.5t-23.5 23.5t-28.5 11.5q-37 23 -56.5 46t-41.5 48q-31 31 -67 79t-67.5 93t-56 78t-35.5 33q-12 0 -28.5 -22.5t-16.5 -39.5q0 -10 5.5 -17t5.5 -16q0 -10 -11 -26q2 2 2 10q0 6 -8 12q-4 0 -7 -6t-3 -10q2 -8 10 -8 l8 4q0 -45 -30 -66q-27 -16 -32 -40.5t-5 -51.5q0 -4 3 -9t7 -9q-8 4 -10 4q-10 0 -10 -13q0 -8 6 -8q2 1 12 19zM406 1090q0 4 -3 4q-2 0 -2 -1t-2 -1h4l-2 2v-4h5zM729 983q-18 -10 -18 -25q0 -12 5 -23t9 -22q-20 10 -33 11q-14 0 -25.5 -17.5t-21.5 -32.5q8 -23 8 -30 q0 2 -11 -22.5t-15 -41.5l4 -2l-2 4q12 -4 16 -4q10 0 20.5 21.5t19.5 46t19.5 46t20.5 21.5q-2 4 -2 11q0 12 5 23t5 24q0 6 -4 14q4 6 9 10t5 13l-7 -10.5t-7 -14.5zM393 170q-4 2 -12 2q-31 0 -41 -29q0 -2 2 -6t4 -4q16 0 27.5 8.5t17.5 30.5zM504 840q-2 -6 -3 -11.5 t-1 -11.5q0 -4 1 -9t5 -5q10 0 10 8q-4 6 -7 13t-7 14q0 10 -1 27.5t-4 32.5t-7.5 26.5t-10.5 11.5t-6 -8q0 -23 4 -47.5t27 -40.5zM444 305q10 18 21.5 35.5t11.5 40.5q0 4 -1 12t-3 8q-18 -4 -33 -10q-12 -6 -22 -14t-10 -23q0 -14 8 -30q-16 -16 -24.5 -29.5t-12.5 -26 t-6 -25t-6 -26.5q0 -4 6 -8t10 -4q10 0 20.5 13t19.5 29.5t15 34t8 23.5h-2zM793 342q-2 10 -4.5 25.5t-12.5 15.5q-2 0 -6 -2t-4 -6q0 -12 7 -29.5t15 -21.5q5 12 5 18zM700 231q6 -14 17.5 -35.5t17.5 -21.5q2 0 4 2q6 0 6 4q0 23 -11 35t-27 23zM911 80q-4 18 -20 18 q-14 0 -14 -10q0 -6 8 -14t16 -8q4 0 5 4t5 10zM336 20q4 6 11 17.5t7 17.5q0 8 -6 8t-11 -10t-5 -18q0 -11 4 -15zM496 743q0 2 -1 3.5t-1 3.5q-6 -6 -7 -11q0 -2 5 -6q0 6 4 10zM399 1169l2 5l-4 2zM618 471l-6 2v-4zM958 160q-23 0 -31.5 27.5t-8.5 39.5q0 8 4 9 q16 0 23 -20.5t18 -49.5q-2 0 -2 -2q-1 -2 -3 -4zM958 113q-4 4 -6 4h2zM406 1090q0 2 -3 2l-2 -2h5z" />
<glyph unicode="Y" horiz-adv-x="1198" d="M995 733q14 -14 15 -26q0 -4 -2 -9.5t-2 -9.5q0 -16 18 -16q23 0 48.5 7t45.5 7q8 0 15.5 -2t13.5 -2q18 0 41.5 13.5t54.5 13.5q6 0 11.5 -1t11.5 -1q10 0 22 1t23 1q12 -2 31.5 -6.5t19.5 -16.5q-2 -12 -9 -25.5t-26 -29.5q-4 0 -8 2q-12 4 -19 4q-37 0 -88 -12.5 t-82 -28.5q-18 -10 -46.5 -19.5t-54 -20.5t-44 -28.5t-18.5 -44.5q2 -14 2 -20v-9t2 -7.5t6 -12.5q6 6 9 10.5t7 14.5q0 -16 3 -27.5t3 -25.5q0 -27 -18 -41q-16 -12 -13 -32t-12 -30q-27 -23 -34 -44t-10 -36.5t-8 -26t-27 -12.5q-2 -10 -2.5 -22t-4.5 -23q-2 -8 -8 -23.5 t-13 -31.5t-12.5 -32.5t-5.5 -26.5t3.5 -19.5t3.5 -19.5q0 -20 -7.5 -39t-17.5 -39q4 12 4 16q0 8 -2 17.5t-8 9.5q-8 0 -8 -21q0 -20 16 -20q-4 -8 -15.5 -22.5t-24.5 -30t-26.5 -26.5t-21.5 -11t-15 3t-14 3q-20 0 -35.5 -10.5t-27.5 -21.5t-23.5 -21.5t-23.5 -10.5 q-6 6 -21 7q-10 0 -20 -3.5t-21 -3.5q-29 0 -48 10.5t-37.5 26t-38 32.5t-50.5 32q-41 12 -44 34.5t-5 51.5q-4 16 -11 34.5t-7 28.5q0 12 10 24.5t10 35.5q0 6 -1 12t-1 12q0 23 4 44.5t4 43.5q0 10 11.5 27.5t27 38t32.5 43t30 41.5q8 12 39.5 42t70.5 61.5t77 59t60 35.5 q29 6 59 19.5t54.5 32t40.5 39t16 39.5q0 8 -2 14t-2 10q0 8 5.5 14.5t12.5 11.5t12 10t5 13q0 29 -8 58.5t-8 50.5q0 39 14 83t14 68q0 10 -3 18.5t-3 16.5q0 59 11.5 120.5t13.5 125.5q0 6 -1 11t-11 5q-6 0 -17.5 -7t-22 -18.5t-17.5 -23.5t-7 -24q0 -16 -9 -25.5 t-20.5 -18t-20.5 -16.5t-9 -20l-8 -9q-9 -10 -19 -21t-19 -21l-10 -11q-6 0 -14 15q-10 -12 -9 -27.5t-3 -30.5q-8 -23 -14.5 -58.5t-18.5 -76.5t-32.5 -84t-53.5 -76q-6 -6 -18.5 -37.5t-28.5 -66.5t-34.5 -62.5t-39.5 -27.5q-6 0 -14 3t-12 3h2q-18 -10 -41 -21.5 t-37 -11.5q-8 0 -15.5 4t-15.5 4t-14 -1t-15 -1q-14 0 -22 8l-10 10q-11 11 -24 25.5t-26.5 30.5t-17.5 31q-12 35 -23.5 66.5t-21.5 68.5t-16.5 83t-6.5 107v20.5t5 20.5q0 23 -3.5 45.5t-3.5 44.5q0 45 5.5 89.5t5.5 89.5q0 20 -1 42.5t4 41t16 31t36 12.5 q49 -14 75.5 -34t39 -47.5t14.5 -63.5t2 -81q0 -23 -4 -46t-4 -46t4 -78t11 -113.5t17.5 -102.5t22.5 -44q8 0 27.5 25.5t43 61.5t47 73t40.5 61q4 6 14 25.5t26.5 47.5t38 58.5t50.5 57.5q20 18 24.5 24.5t10.5 30.5q25 20 47 43t39 53q12 27 38.5 40.5t34.5 33.5 q20 53 74.5 81t106.5 28q31 0 48 -22.5t26.5 -56.5t12.5 -72t3 -68q0 -47 -18.5 -87t-18.5 -69q0 -10 3 -24.5t3 -35.5q-8 -12 -16.5 -32.5t-14.5 -40t-10 -33.5t-4 -12q0 -8 4 -15.5t4 -15.5q0 -14 -9 -25.5t-9 -21.5q0 -4 4 -10.5t4 -10.5q0 -10 -11.5 -19t-11.5 -26 q0 -14 10.5 -21t10.5 -11t-7 -10.5t-18 -6.5q2 -2 2 -4v4zM723 61q16 35 38.5 76t22.5 76q0 12 -13 22.5t-13 26.5q0 4 3 17.5t9 13.5q10 0 10 -8q-4 -12 -4 -17q0 -12 12 -12q8 0 17.5 18.5t9.5 28.5t-10 18.5t-27 16.5q10 29 15.5 46t9.5 42q0 10 -6 17.5t-17 7.5 q-35 -4 -60.5 -24.5t-49.5 -37.5q-41 -29 -81 -64.5t-72 -78.5t-51.5 -92.5t-19.5 -104.5q0 -4 3.5 -10t3.5 -12q0 -8 -1 -14.5t-1 -14.5q0 -29 17 -64.5t52 -39.5q31 0 48.5 7t29.5 15t22.5 16.5t26.5 12.5q14 2 21.5 11t13.5 19.5t11 17.5t16 7q10 0 22 -8q8 12 12.5 19 t4.5 14q0 10 -7.5 13t-17.5 23zM934 793q-6 0 -9 -6.5t-3 -10.5t1 -10t5 -6q10 4 11 9t1 9q0 11 -6 15zM942 373q2 -4 2 -13q4 4 4 9q0 2 -4 10q0 -4 -2 -6zM588 -193q2 0 2 -1t2 -1t2 5l-2 2q-4 -1 -4 -5zM944 322q-4 0 -6 1t-6 1q2 0 -4 -7q4 -2 5 -3t5 -3q0 1 6 11z M793 1219l2 4l-2 2h-2q-2 -2 -3 -6h5zM930 471q-4 -8 -4 -12t4 -4q2 0 4 2q0 6 -4 14zM637 -221q4 4 8 12t6 8q8 0 8 -8q0 -10 -8 -10t-14 -2zM637 -221l6 -4q-4 0 -4 6z" />
<glyph unicode="Z" horiz-adv-x="1384" d="M631 213q-4 -20 -4 -29q0 -39 11 -54t40 -15q43 0 83 12t85 12q10 0 18 -1t19 -1q14 0 28.5 2t30.5 2q20 0 45 -10q31 -14 70 -19.5t80 -11.5t79.5 -18t69.5 -43q-4 -10 -10 -16.5t-6 -12.5q0 -4 3 -9t3 -9q0 -10 -12.5 -22.5t-22.5 -12.5q-6 0 -14 4q-10 -14 -24.5 -17 t-31.5 -3q-29 0 -44 3t-37 13q-61 25 -126 38t-130 13q-37 0 -92.5 -14t-117 -31.5t-123 -32t-110.5 -14.5q-6 0 -25.5 3t-39 12.5t-35 23.5t-15.5 37q0 33 17.5 64.5t17.5 66.5q0 10 -3 22.5t-3 22.5q0 6 2 11t6 11q0 2 7.5 14.5t15.5 26t15 25.5t7 14q0 18 9.5 30.5 t19.5 22t19.5 19.5t9.5 29q0 10 -11.5 10t-11.5 10q0 6 9.5 11.5t20.5 11.5t20.5 15t9.5 22q0 10 -7.5 17t-17.5 15q-39 23 -58.5 31t-30.5 14.5t-16.5 15.5t-15.5 38q10 18 17.5 35.5t21.5 17.5q4 0 5 -1t5 -1q41 -12 71 -20.5t65 -8.5q14 0 39.5 12.5t51 33t47 46 t27.5 49.5q0 8 19.5 33t45.5 55.5t53.5 61.5t43.5 53q8 4 18.5 14.5t19.5 22.5t16.5 24.5t7.5 18.5q0 8 -4.5 12t-8.5 4q-23 0 -41 -7t-36 -7q-10 0 -19.5 2t-17.5 2q-31 0 -54.5 -22.5t-42.5 -22.5q-4 0 -9 1t-9 1q-16 0 -28.5 -5t-22.5 -13q-29 -20 -61.5 -30.5 t-67.5 -14.5q-41 -6 -93.5 -17.5t-86.5 -11.5q-53 0 -103.5 31t-89.5 77t-62.5 99t-23.5 98q0 29 11.5 59.5t35.5 55.5q14 0 40 -19.5t38 -29.5q14 -14 18 -35t10.5 -39t17.5 -31.5t42 -13.5q61 0 120.5 7t119.5 11q39 4 77.5 16.5t79.5 16.5q61 6 122 23.5t121 35t121.5 32 t123.5 14.5q10 0 20 -2t21 -2q4 0 10 2t12 2q25 0 53.5 -26t53 -58.5t43 -62.5t26.5 -38q0 -4 -3 -13t-3 -19q0 -8 6 -15.5t6 -15.5q0 -29 -30.5 -70t-65.5 -90q-14 -20 -38.5 -37.5t-28.5 -34.5q-4 -18 -22.5 -23t-18.5 -11q0 -2 1 -5.5t1 -5.5q0 -12 -10.5 -21t-14.5 -30 q-2 -14 -15.5 -24.5t-29.5 -20.5t-30.5 -21.5t-20.5 -27.5q0 -10 19.5 -14.5t44 -8.5t44 -11t19.5 -23q0 -45 -35 -68t-82 -23q-20 0 -39.5 2.5t-40.5 2.5q-29 0 -58.5 -16.5t-29.5 -51.5v2q-8 14 -27.5 33.5t-31.5 19.5q-8 0 -30.5 -14t-22.5 -29q0 -14 12 -14q6 0 11 1 t11 3q4 -12 7.5 -24.5t7.5 -24.5q-23 -27 -48.5 -61.5t-54.5 -36.5l2 -2q0 10 -2 20t-14 10q-6 0 -17.5 -5t-23.5 -11t-21.5 -13.5t-9.5 -11.5t5.5 -10t9.5 -6q10 0 21 4l22 8h-2l3 -12t1 -8q0 -8 -12.5 -16.5t-26.5 -14.5q-10 0 -31 4q-6 0 -13 -3t-7 -7q0 -2 3 -8t9 -6 q12 2 20.5 9t18.5 11zM819 670q-2 -2 -4 -2q2 0 4 -2v4zM713 393q-4 -6 -7.5 -13t-7.5 -13q-2 0 -4 1t-4 1q-4 0 -11 -4.5t-7 -10.5q0 -2 1 -4t1 -4q4 0 11 7t13 16q0 6 -1 9t-1 5q0 8 19 8l-2 -2v4zM1016 705q-8 -6 -15.5 -14.5t-7.5 -12.5t4 -5t7 -1q6 0 9 5t3 7t-4 18z M555 133q0 2 -1 3t-1 3q0 4 4 4q-2 -2 -2 -4t-2 -6q12 -4 18 -4q16 0 21 23q-6 6 -10 6q-2 0 -12.5 -10.5zM590 328q-10 -10 -20.5 -22.5t-10.5 -22.5t1 -13.5t11 -7.5q12 12 14.5 31.5t2.5 36.5q2 -6 6 -6q10 0 10 8q0 6 -6 6q-2 0 -4 -4t-4 -6zM786 627l-6 2v-4zM862 426 q-2 2 -8 2t-10 -3t-10 -5q-8 0 -9 6q0 6 9 6q8 -2 28 -6zM696 281q-2 -12 -11 -14.5t-19 -2.5h2q4 10 12 11.5t16 5.5z" />
<glyph unicode="[" horiz-adv-x="647" d="M485 -274q14 2 26.5 4t23.5 2q20 0 41.5 -6.5t21.5 -26.5q0 -37 -30.5 -53.5t-67.5 -16.5q-47 2 -108.5 8.5t-117 20.5t-93.5 40t-38 69q0 16 7.5 33.5t7.5 33.5q0 6 -1 11t-1 12q0 14 4 26.5t4 24.5t-8.5 26.5t-8.5 30.5q0 10 5.5 19.5t5.5 19.5t-5.5 18.5t-5.5 16.5 q0 23 10.5 43t10.5 47q0 10 -2 21.5t-2 21.5q0 23 4 44.5t4 43.5q0 4 -1 9t-1 12q0 10 7 20t7 23q0 84 10.5 159.5t18.5 159.5q0 25 21.5 43.5t21.5 36.5q0 23 -14.5 30t-14.5 19q0 10 14.5 25.5t14.5 31.5t-7 30.5t-7 31.5q0 10 2 14q16 98 26.5 197.5t14.5 206.5 q0 12 6 22q4 4 28.5 15.5t53 23.5t57.5 21.5t43 9.5q12 0 34.5 -5t44 -13.5t38 -19.5t16.5 -26q0 -10 -17.5 -18t-42 -15.5t-54 -13.5t-54.5 -12q-31 -10 -44 -35.5t-18 -60.5t-6 -76t-8 -80q-10 -39 -17 -72.5t-11 -68.5q-4 -49 -15.5 -98.5t-11.5 -92.5q0 -47 -14 -74.5 t-14 -64.5q0 -33 -7.5 -66.5t-7.5 -64.5q0 -8 1 -16.5t1 -14.5q0 -18 -6 -32.5t-6 -30.5q0 -10 2 -15q0 -16 -9 -35.5t-9 -41.5q0 -29 -1 -61t-1 -60q0 -86 7 -169t19 -165q4 -16 30.5 -27.5t61.5 -17.5t71.5 -8t59.5 -4z" />
<glyph unicode="\" horiz-adv-x="780" d="M416 492q0 -6 4 -7q2 0 4 2q0 8 -6 9h-2v-4zM0 1235q0 12 3 34.5t12.5 44t24.5 38t40 16.5q12 0 21.5 -12.5t15.5 -30.5t12 -37.5t14 -34.5q29 -49 58.5 -98t60.5 -98q23 -45 46.5 -82t47 -71t47 -66.5t43.5 -69.5q18 -33 42 -67.5t45.5 -67.5t37 -62.5t15.5 -52.5 q0 -4 11 -22.5t27.5 -43t32 -52t25.5 -50.5q12 -29 28.5 -55.5t32 -54t26.5 -57t11 -62.5q0 -23 -29.5 -44.5t-52.5 -31.5q-16 4 -34.5 19.5t-35 33t-27.5 31.5t-11 18q0 12 -9.5 34t-20.5 43.5t-20 35.5l-10 14q-18 10 -37.5 32t-19.5 46q0 4 2 9.5t2 9.5q0 6 -12 21.5 t-28.5 36t-32 43t-23.5 44.5q-25 25 -33 60.5t-20 48.5q-31 39 -51.5 88t-59.5 92q-6 6 -24.5 33.5t-39 65.5t-37 80t-18.5 77q-18 12 -32.5 30.5t-24.5 42t-19.5 50t-21.5 51.5z" />
<glyph unicode="]" horiz-adv-x="710" d="M356 338q6 10 14.5 21.5t8.5 17.5q-2 8 -3 14t-1 12q0 16 2 31t2 29q0 10 -1 21.5t-1 21.5q0 16 1 34.5t3 34.5q0 10 -1 20.5t-1 20.5q0 16 8 32t8 32t-7 37.5t-7 42.5q0 12 2 24.5t2 22.5q0 16 -4 32.5t-4 34.5q0 8 1 14.5t1 12.5q0 31 -6 61.5t-6 61.5q0 25 1 49.5 t1 48.5q0 82 -7 162q0 14 -23.5 19.5t-59 6.5t-77.5 3t-78 11t-59.5 29.5t-23.5 59.5q0 23 16 23q2 0 3 -1t6 -1q47 -23 120.5 -36.5t159.5 -13.5q16 0 30.5 3.5t31.5 3.5q35 -4 62.5 -16.5t55.5 -28.5q29 -18 35 -48t6 -63q0 -29 -10 -55.5t-10 -55.5q0 -20 -1 -33.5 t-1 -27.5v-19.5t2 -19.5q0 -16 -8.5 -29.5t-8.5 -25.5q4 -16 9 -39q4 -18 6 -44t2 -57q0 -45 -13.5 -102t-13.5 -143q4 -41 9.5 -85t5.5 -83q0 -53 -9.5 -97.5t-9.5 -72.5q0 -16 9.5 -49t9.5 -62q0 -59 2 -115.5t14 -115.5q0 -16 -2 -27.5t-2 -23.5q0 -23 10 -41.5t10 -32.5 q0 -16 -13 -35.5t-30 -19.5q-53 4 -100 16t-96 12q-41 0 -87 -5t-89 -5q-12 0 -30 5t-33 14.5t-26.5 21.5t-11.5 29q0 18 24.5 28t58.5 15.5t71 7.5t61 2q4 0 22.5 4t38 12t35 17.5t15.5 19.5q0 16 1 29.5t1 29.5t-3 34t-3 34q0 47 10 79t10 60q0 23 -8 43.5t-8 42.5 q0 4 1 8.5t1 8.5q0 8 -8.5 23.5t-14.5 27.5z" />
<glyph unicode="^" horiz-adv-x="894" d="M469 1294q-43 -49 -86 -122.5t-84 -142t-77 -119t-60 -50.5q-12 0 -34 17.5t-46 54.5q33 61 77 118.5t87 117t81 124t62 142.5q88 0 141.5 -38t94.5 -106q53 -84 117.5 -177t111.5 -198q-23 -23 -41 -22q-12 0 -37.5 9t-30.5 20q-31 45 -57 73.5l-52 57t-54.5 66.5 t-65.5 104q-10 14 -20.5 29t-26.5 42z" />
<glyph unicode="_" horiz-adv-x="655" d="M758 -319q-4 -14 -9.5 -28.5t-25.5 -21.5q-25 0 -62.5 12.5t-78.5 12.5q-72 0 -141.5 -3t-141.5 -11q-23 -4 -46.5 -8.5t-45.5 -4.5q-8 0 -15.5 2t-15.5 2q-2 0 -3 -1t-3 -1q-43 -12 -80 -15t-90 -3q-31 0 -66.5 1t-66.5 11t-51.5 33t-20.5 68q0 6 6 13t13 7 q16 0 32.5 -7t32.5 -7q121 4 245 15t253 11q39 0 77 5.5t76 5.5q14 0 27.5 -4.5t30.5 -4.5q12 0 24.5 4.5t24.5 4.5q37 0 72 -16.5t49 -71.5z" />
<glyph unicode="`" horiz-adv-x="436" d="M395 1208q-8 -29 -9 -43t-24 -14q-35 0 -62.5 26.5t-51 64.5t-44 80t-36.5 75q-4 8 -4 14q0 12 8 23q78 -35 130 -95.5t93 -130.5z" />
<glyph unicode="a" horiz-adv-x="1134" d="M41 326q29 6 31 30q0 51 16 101.5t35 97.5q18 47 37.5 101.5t72.5 131.5q20 31 39 64t41.5 59.5t56 44t87.5 17.5q72 0 112.5 -29t75.5 -76q20 10 37.5 26.5l35 33t36 32t43.5 25.5q27 10 47 29.5t59 19.5q16 0 35.5 -5t36 -18.5t27 -36t10.5 -59.5q0 -49 -9.5 -103 t-20.5 -110.5t-20.5 -114t-9.5 -114.5q0 -23 -16 -53.5t-16 -63.5q0 -72 -10.5 -146.5t-10.5 -146.5q0 -25 1 -48t1 -46q0 -10 -1 -21t-1 -22q0 -25 16 -41q-4 -16 -4 -26q0 -4 4.5 -16.5t8.5 -27t9 -25.5t7 -11q12 0 25.5 24.5t24.5 57.5t19.5 66.5t8.5 49.5 q16 59 32.5 116t36.5 112q2 16 13.5 22t15.5 27q8 29 11 53.5t8.5 47t15.5 42t33 39.5q6 4 9 12.5t5 14.5q6 20 18.5 41.5t29 39t34.5 29t35 11.5q10 0 27.5 -7.5t17.5 -23.5q0 -6 -4 -10q-6 -8 -25.5 -35t-41 -58.5t-39 -65.5t-17.5 -58q-6 -47 -25.5 -89t-29.5 -87 q-10 -43 -20.5 -94.5t-31.5 -90.5q-10 -16 -8 -37.5t-14 -42.5q-12 -23 -14.5 -66.5t-2.5 -76.5q-4 -33 -21 -54.5t-28 -45.5q-12 -29 -42.5 -33t-53.5 -4q-39 0 -61.5 20.5t-49.5 44.5q-16 14 -15 29.5t-7 19.5q-23 20 -25 46t-4 53q0 16 1 30.5t1 30.5q0 27 -15 39t-15 35 q0 121 10 263t18 273q2 31 17.5 57.5t15.5 43.5q-2 8 -2 16v17q0 53 2 78.5t6 38t9.5 18.5t13.5 20q0 18 -5.5 34.5t-7.5 33.5q-14 -4 -25 -6t-24 -4q-12 -2 -16 -11.5t-7 -19.5t-10.5 -18.5t-25.5 -8.5q-10 -25 -18.5 -40t-28.5 -25q-2 0 -14.5 -10.5t-27 -24.5 t-26.5 -28.5t-14 -20.5q-4 -18 -6 -34.5t-7.5 -29t-14.5 -20.5t-27 -15q-6 -2 -20.5 -28.5t-33 -64.5t-39 -80t-34.5 -74q-39 -70 -60.5 -108t-39 -56.5t-38 -21.5t-57.5 -3q-51 0 -97 33t-46 98q-4 10 -3 22.5t-28 16.5v62zM598 827q-10 4 -25.5 8.5t-25.5 4.5 q-23 0 -43 -13q-49 -33 -90 -84t-75 -110.5t-56.5 -124t-34.5 -121.5q0 -14 12 -14q2 0 21.5 23.5t43 54t46 62.5t32.5 50q10 16 23.5 33.5t30.5 32.5q33 27 55.5 61.5t56.5 61.5q6 12 15 22q6 10 11 20.5t5 18.5q0 4 -1 7t-1 7z" />
<glyph unicode="b" horiz-adv-x="1026" d="M350 -225q-12 -25 -35.5 -33t-33.5 -8q-4 0 -23.5 2t-30.5 12q-76 23 -100.5 74t-24.5 123q0 80 10.5 159.5t10.5 157.5q0 18 -1 36.5t-1 37.5q0 23 1 45t11 45q4 8 4 16t-2 14.5t-2 12.5q0 76 19.5 149.5t19.5 139.5q-2 6 -2 18q0 29 10 61.5t10 67.5q0 29 11.5 57.5 t11.5 57.5q6 111 39 232.5t61 238.5q6 27 18.5 60.5t25 69.5t20.5 69.5t8 62.5q0 16 2 40t29 24q63 0 94 -18.5t31 -72.5q0 -4 -1 -8t-1 -8q-14 -70 -32 -135.5t-38 -132.5q-2 -18 -11 -42t-18.5 -49.5t-17.5 -50t-8 -40.5q0 -8 2 -15.5t2 -15.5q0 -16 -7.5 -35.5 t-16.5 -41.5t-16 -43.5t-7 -39.5q0 -14 4 -28.5t4 -28.5t-9.5 -26.5t-9.5 -27.5q0 -8 2 -12q0 -18 -14 -54t-14 -93q0 -29 16 -31q14 0 26.5 8t24 19.5l22.5 22.5t23 18q8 4 21.5 26.5t34.5 34.5q29 18 52.5 35.5t50 32t60 23.5t85.5 9q20 0 50.5 -9t57.5 -31.5t46.5 -58.5 t19.5 -87q0 -33 -6.5 -73t-6.5 -62q4 -20 4 -29q0 -18 -2 -39.5t-6 -42t-9 -37t-13 -22.5q-12 -14 -15.5 -35.5t-6.5 -45.5t-8 -44.5t-17 -32.5q-10 -10 -15.5 -22.5t-9.5 -26.5t-10 -30.5t-19 -35.5q-18 -45 -53 -84.5t-79 -70.5t-92 -48.5t-95 -17.5q-29 0 -55.5 4 t-55.5 4q-16 0 -18 -20t-2 -37q0 -16 1 -32.5t3 -32.5q0 -20 10 -38t10 -36q0 -10 -3 -27.5t-5 -21.5zM373 565q-6 -33 -7 -58.5t-30 -45.5q-10 -4 -10 -33t-2 -47q10 -20 10 -49q0 -18 -5 -38t-5 -38q0 -8 4 -16q8 -23 9 -42.5t6 -33.5t20.5 -23.5t54.5 -9.5q43 0 93 15.5 t96 45t82 72.5t48 96q0 18 10.5 34t10.5 34q0 14 -2 30.5t-2 33.5q0 29 17 52t17 40q0 12 -5 25.5t-5 27.5q0 16 2 31.5t2 31.5q0 23 -3 54.5t-11 61.5t-20.5 50.5t-30.5 20.5q-10 0 -21.5 -6.5t-21.5 -6.5q-20 0 -32.5 -7t-22 -17t-18.5 -19.5t-21 -11.5q-8 -4 -17.5 -19.5 t-21 -36t-26.5 -42t-36 -33.5q0 -2 -10 -17.5t-26.5 -35t-35 -39t-34.5 -31.5z" />
<glyph unicode="c" horiz-adv-x="712" d="M61 322q0 61 15.5 118.5t15.5 116.5q0 16 8.5 44t20.5 59.5t27.5 64.5t29.5 59q16 29 37 50.5t31 50.5q6 20 22.5 28.5t20.5 30.5q2 10 11 14.5t19.5 6.5t19.5 4t13 12q6 14 20.5 27.5t31 24.5t33 17.5t24.5 6.5q59 -10 108 -27q41 -14 76 -34.5t35 -51.5q0 -20 -5 -56 t-15.5 -70t-27 -59.5t-38.5 -25.5q-23 0 -38 24.5t-15 47.5q0 18 2 35.5t4 33.5q0 14 -15 15q-31 0 -64.5 -23.5t-66 -59.5t-61.5 -79t-49 -80q-14 -63 -37 -124.5t-23 -131.5q0 -29 4.5 -69.5t13.5 -78.5t22.5 -64.5t33.5 -26.5q8 0 44 21.5t79 52t83 62t58 50.5 q27 31 69 69.5t86 73.5t87 58.5t72 23.5q14 0 24.5 -4t10.5 -18q0 -16 -15.5 -31.5t-36 -31t-40 -33t-27.5 -35.5q-4 0 -32 -29t-62.5 -63.5t-66.5 -67.5t-44 -45q-12 -14 -48 -49t-81 -71t-92 -63.5t-84 -27.5q-61 0 -97 22.5t-56.5 55t-33 71.5t-28.5 74 q-10 23 -10.5 51.5t-2.5 53.5z" />
<glyph unicode="d" horiz-adv-x="1099" d="M784 1110q4 -12 4 -16q0 -16 -20 -33t-20 -41q0 -12 2 -24.5t2 -24.5q0 -10 -2 -24.5t-13 -14.5q-2 0 -4 6t-2 10q-4 -2 -8 -3t-4 -3v2q0 -4 -1 -25.5t-5 -45t-10.5 -43t-16.5 -19.5q-4 0 -6 21.5t-12 21.5q-12 -4 -14.5 -19.5t-2.5 -33t-2 -30.5t-12 -13 q-12 0 -24.5 -16.5t-20.5 -20.5q-2 -16 -3 -39t-4 -43.5t-11.5 -35.5t-24.5 -19v-2q0 -6 -7 -24.5t-15.5 -40t-15.5 -40t-9 -24.5q-25 -80 -60.5 -140.5t-62.5 -132.5q-4 -10 -18.5 -26.5t-31 -32t-30.5 -27.5t-18 -12q-16 0 -30.5 -4t-29.5 -4q-12 0 -28 4q-49 16 -70 29.5 t-29 25.5t-9 22.5t-11 22.5q-25 29 -29 76t-4 76q0 16 3 32.5t3 32.5q0 23 16.5 40.5t16.5 43.5q4 27 15 45.5t22 44.5q4 10 13 29.5t20.5 41.5t24.5 43.5t28 35.5q25 27 50.5 71t35.5 82q2 8 14 14.5t27.5 15.5t30 22.5t20.5 33.5q0 2 10 5.5t23.5 6.5t28 6t20.5 3 q23 0 51.5 -10.5t50.5 -10.5q23 0 37 15.5t25.5 35t23 38t27.5 22.5q4 2 12 14.5t15.5 26.5t13.5 26l6 13q4 18 10 36.5t6 39.5q0 23 9.5 38t20.5 26t20.5 21.5t9.5 22.5q0 27 12 50.5t28.5 46t32 46t19.5 48.5q-2 33 15.5 53t21.5 53q2 20 14 42t32.5 39.5t46.5 27.5t54 10 q29 0 56.5 -20.5t27.5 -47.5q0 -39 -9 -74.5t-21.5 -69.5t-23.5 -67.5t-13 -68.5q-8 -20 -15.5 -41t-17.5 -37q-29 -43 -35 -97.5t-6 -95.5q0 -20 -10.5 -31.5t-21.5 -18.5t-21.5 -12t-10.5 -13q0 -6 4.5 -8.5t10.5 -4.5t10 -5t4 -11q0 -6 -5 -12t-5 -13q0 -10 5 -21t5 -19 q0 -16 -11 -17.5t-28 -17.5q0 -53 -4 -99q-4 -39 -12 -74.5t-23 -45.5q-8 -6 -8 -25.5t-1 -41.5t-6 -38t-24 -16q-10 0 -15 10t-6 25.5t-1 31v27.5q-2 0 -8.5 -6t-13.5 -13.5t-13 -15.5t-6 -10q0 -10 9 -14.5t13 -8.5v-61q-6 -16 -16 -24.5t-20.5 -15.5t-17.5 -17.5 t-7 -30.5q-8 0 -8 10q0 29 13 54.5t13 47.5q0 10 -5 19.5t-5 19.5q0 20 10.5 47t10.5 50q0 10 -3.5 19t-3.5 20q0 12 2.5 18t8.5 16q2 2 10 14.5t16.5 29t15.5 33t7 28.5q0 4 -1 14t-7 10q-4 0 -8.5 -2t-6.5 -2q-6 0 -6 9q0 47 15.5 90t15.5 90q0 31 -11.5 37t-31.5 6 q-8 0 -20.5 -5.5t-12.5 -15.5t10 -10zM547 868q-80 -23 -158 -94.5t-119 -179.5q-6 -23 -18 -43q-14 -23 -25.5 -53.5t-19.5 -61t-13.5 -58.5t-5.5 -44q0 -6 1 -19.5t3.5 -29t7.5 -26.5t15 -11q8 0 28.5 33.5t45 81t48 96.5t40.5 80q29 53 61.5 105t61.5 108q8 6 18 18 t18.5 27.5t14.5 30t6 20.5t-10 20zM688 907q0 4 1 7.5t1 7.5q0 8 -4 12q0 -6 1 -14.5t1 -12.5zM870 801q-4 -16 -4 -21q0 -4 2 -6t4 -6q4 6 6.5 9t2.5 11q0 6 -1.5 7.5t-9.5 5.5zM901 795q6 6 6 4v11t-6 7q-6 -4 -6 -12q0 -2 1 -6t5 -4zM780 -82q10 -10 24.5 -15t14.5 -16 q-12 -25 -15 -48t-3 -48q0 -2 -3 -20.5t-12.5 -40t-23.5 -39t-39 -17.5q-12 0 -24.5 14.5t-21.5 33t-14.5 38t-5.5 31.5q0 14 7.5 25.5t7.5 21.5q0 8 -4 14.5t-9 14.5q4 31 9.5 64.5t5.5 62.5q0 18 -7.5 28.5t-7.5 22.5q0 16 10.5 33.5t10.5 36.5q0 6 -1 11t-1 11 q0 10 5 17.5t11 12.5t11.5 12t5.5 18q0 4 -1 9t-1 9q0 18 16 29q2 -4 2 -8.5t4 -4.5t4 5q0 4 -4 5t-8 1q23 23 35 59.5t12 56.5q0 6 -4 7q-6 0 -13.5 -13.5t-13.5 -30t-11 -29.5t-11 -13q-14 0 -15 12q4 16 8.5 35.5t12.5 35.5q2 4 16.5 26t29.5 45.5t27.5 43t14.5 19.5 q4 0 6 -1t6 -1q12 0 17.5 8t7.5 18t4 18.5t8 8.5q8 0 14.5 -8.5t10.5 -19.5t6 -21.5t2 -14.5q0 -10 -7 -19t-14.5 -19.5t-14.5 -26t-7 -37.5q0 -14 4 -26.5t4 -26.5q0 -18 -2 -37t-2 -37q0 -23 -11.5 -37t-11.5 -24q0 -8 7.5 -15.5t7.5 -17.5t-9.5 -18.5t-9.5 -14.5 q0 -8 8.5 -12t8.5 -13q0 -12 -13 -16q-23 -23 -24.5 -59.5t-1.5 -59.5q0 -14 2 -18q0 -20 -13.5 -24.5t-13.5 -24.5v18zM819 426q-12 -6 -14 -14.5t-2 -18.5q0 -20 8 -39q4 29 11 55.5t7 28.5q0 8 -6 8q-4 -4 -4 -11v-9zM705 -51q2 4 5 6t3 4q0 4 -3 6t-5 6q-2 -4 -5.5 -6 t-3.5 -6q0 -2 3.5 -4t5.5 -6zM807 291h4v6zM735 172q4 4 4 10q0 2 -8 8q0 -2 -2 -4t-2 -6q0 -2 3 -3t5 -5zM797 1114q0 -6 -4 -6q-6 0 -9 2v-2z" />
<glyph unicode="e" horiz-adv-x="790" d="M137 723q16 18 29.5 38.5t21.5 45.5q6 20 21.5 35.5t32 29t30 26.5t19.5 30q23 23 45 49.5t57 40.5q20 8 34.5 24.5t39.5 16.5q39 0 88 -14.5t92 -39t72 -59.5t29 -76q0 -4 -1.5 -10t-1.5 -10q0 -10 1.5 -19.5t1.5 -19.5q0 -39 -29 -59q-16 -8 -24.5 -27.5t-20.5 -34.5 l-20.5 -20.5t-18.5 -26.5t-32.5 -42t-59.5 -49.5t-77 -40.5t-85 -17q-23 0 -43.5 4t-42.5 4q-29 0 -35 -33t-6 -57q0 -35 2 -80t10 -86t23.5 -70t44.5 -29q23 0 48.5 14.5t41.5 28.5q84 68 165 133.5t161 137.5l27.5 27.5t43 40t50 36t51.5 15.5q10 0 21 -5.5t11 -17.5 q0 -10 -10 -19.5t-23.5 -17.5t-26.5 -15t-22 -13q-33 -27 -55 -50q-23 -20 -39 -37.5t-16 -25.5q0 -12 -8.5 -30.5t-24.5 -18.5q-23 -10 -39 -30.5t-30.5 -42t-28 -39t-25.5 -21.5t-40.5 -33t-60.5 -61.5t-60.5 -58.5t-41.5 -26q-12 0 -20 7q-10 -6 -19.5 -12.5t-19.5 -12.5 q-59 6 -102 14.5t-76 55.5q-8 18 -19 24q-12 6 -23 21.5t-19.5 31t-12.5 28.5t-4 15q0 6 2 13.5t2 15.5q0 14 -11 26.5t-11 24.5q0 4 3 10.5t3 12.5q0 10 -4 19.5t-4 19.5q0 8 5 16t5 17q0 10 -7.5 22t-7.5 25v37.5t2.5 48t7.5 47t15 35.5q20 27 24.5 68.5t26.5 74.5 q-8 -12 -8 -23q0 -6 4 -10q2 2 4 2t2 6q0 9 -4 25zM332 621q27 4 69.5 17t82.5 36.5t69 59.5t29 85q0 27 -9.5 59.5t-40.5 32.5q-51 0 -95 -34.5t-76.5 -80.5t-52 -91.5t-19.5 -65.5q0 -10 9 -12t34 -6z" />
<glyph unicode="f" horiz-adv-x="600" d="M170 643q4 16 8 32.5t8 33.5q4 33 17.5 60.5t13.5 57.5q0 4 -1 7.5t-1 7.5q8 16 17.5 39.5t16.5 48t11 46t4 32.5q0 2 10.5 31.5t23.5 65.5t23.5 63.5t8.5 25.5q12 16 18 38.5t10 45t9.5 40t13.5 25.5q20 18 30.5 44t10.5 53q0 23 14.5 40t14.5 29q0 14 7 32t15 34 t16.5 27.5t10.5 15.5q10 16 11 32.5t5 32.5q35 35 46 63t22.5 48.5t31 30.5t72.5 10q70 0 103.5 -43t33.5 -102q0 -6 -1 -32t-5 -57.5t-11 -62.5t-17 -47q0 -41 -18.5 -78t-18.5 -80q0 -2 -9.5 -20.5t-21.5 -42t-26.5 -47t-24.5 -33.5q-2 -10 -2 -24.5t-4 -30.5 q-4 -10 -15.5 -16.5t-11.5 -20.5q0 -20 -5 -27.5t-12.5 -11.5t-12.5 -13.5t-5 -33.5q0 -27 -10 -46.5t-23.5 -35t-24.5 -28.5t-14 -30q-4 -29 -18 -49t-30.5 -41.5t-31 -48t-20.5 -67.5q-2 -16 -16.5 -33t-30.5 -33t-29.5 -32.5t-13.5 -35.5q0 -12 -9 -23t-20.5 -23.5 t-20.5 -23.5t-9 -24q0 -2 2 -8t8 -6q57 18 122.5 55t129 74t123 64.5t108.5 27.5q12 0 24.5 -8t12.5 -19q0 -10 -9 -17t-20 -11q-84 -35 -155.5 -73t-138 -79t-133 -85t-136.5 -91q-23 -14 -31 -54t-14 -69q70 -147 86.5 -310t16.5 -337q0 -10 -6.5 -22.5t-6.5 -20.5 q0 -12 6.5 -28.5t6.5 -32.5q0 -10 -4.5 -30t-10.5 -41.5t-10 -40.5t-4 -28q0 -10 3 -21t3 -24q0 -66 -17.5 -133t-17.5 -131q0 -10 1 -21.5t1 -21.5q0 -23 -10 -43t-10 -31q0 -8 3 -16t3 -16q0 -23 -11.5 -37.5t-27.5 -14.5q-23 2 -45.5 4.5t-44.5 6.5q-14 0 -27.5 24.5 t-23 59t-14.5 71.5t-5 62q0 8 2 15t2 15q0 6 -1 12.5t-1 12.5q0 16 8 27v30.5t-2 30.5q0 6 -9 9t-9 10q0 4 3 7t3 7q0 6 -2 11t-2 11q0 23 6 46.5t6 46.5q0 16 -6 30.5t-6 30.5q0 23 13.5 39t13.5 43q0 23 -21 41q6 2 6 8q0 4 -4 10t-4 11q0 6 12.5 11t12.5 19 q-2 12 -3 23.5t-1 23.5q0 29 7 54.5t7 52.5q0 14 -5 26.5t-5 26.5q0 16 4 23q10 27 8 52t4 52q0 4 -2 10t-4 11l2 -2q16 29 14 56.5t4 55.5q0 16 -7 21.5t-19 11.5q2 18 4 38.5t2 39.5q0 10 -2 18t-4 17q-2 18 -20.5 29.5t-40 21.5t-39 21.5t-17.5 29.5q0 14 9.5 24.5 t22.5 17.5t26.5 11t21.5 6q37 10 64.5 39t46 67t27.5 82t9 83q0 6 -1 13t-1 13q0 23 13.5 37t13.5 37zM543 1018q4 -12 4 -19q2 2 2 5q-4 8 -8 12q4 10 7 21.5t3 21.5q0 6 -1 12t-1 12q2 29 16.5 49.5t18.5 49.5q2 14 12 35.5t21.5 42t20.5 38t9 23.5q-2 6 -2 16 q0 29 17.5 66t17.5 74q0 23 10 43t10 36q-4 12 -4 17q0 10 4.5 21.5t4.5 21.5q0 14 -10.5 26.5t-16.5 22.5q-16 -2 -29.5 -16.5t-26 -34t-21.5 -41t-15 -37.5q-55 -135 -101.5 -254t-97.5 -244q-10 -20 -14 -45.5t-8 -34.5q-16 -18 -25.5 -53t-18 -74.5t-17.5 -81.5t-25 -75 q-2 -4 1 -9.5t5 -9.5q16 4 26.5 9.5t14.5 21.5q2 16 18 25.5t16 31.5q0 20 2.5 30.5t8.5 16t15 7.5t24 6q-4 12 -4 16q0 12 10 33.5t18 34.5q6 8 16.5 31.5t22.5 50t23.5 47t19.5 20.5t14.5 -7t12.5 -11zM135 -950q14 25 20.5 49t9.5 49t5 51.5t8 55.5q12 31 14.5 73.5 t2.5 77.5q0 41 5 78t5 72q0 16 -2 31.5t-2 31.5v64.5t-4 89.5t-13.5 78.5t-27.5 33.5q-10 0 -14.5 -7t-4.5 -17q0 -12 1 -25.5t1 -25.5q0 -35 -8 -75t-8 -69q0 -12 1 -25.5t1 -25.5q0 -25 -6 -50.5t-6 -51.5q0 -16 5 -32t5 -32q0 -20 -6 -46t-6 -48q0 -47 4 -91t4 -91 q0 -10 -2 -19.5t-2 -19.5q0 -14 6 -27q-4 -12 -4 -18q0 -16 18 -39zM92 -180q-4 2 -3 4t-3 2t-4 -4t6 -10zM14 -578q0 -8 -6 -8l-2 2q0 4 1 10.5t1 14.5zM43 -147v4q2 0 2 -2h-4zM172 643q-6 6 -10 8q2 2 6 2t4 -4q0 -2 -1 -3t-1 -3h2zM541 1016q0 -4 4 -8l4 -4q0 -2 -2 -5 q0 6 -4 19z" />
<glyph unicode="g" horiz-adv-x="1056" d="M811 104q20 -8 20 -24t-19 -44t-38 -34q20 -14 21 -22q0 -10 -12.5 -20.5t-12.5 -22.5q0 -8 11.5 -12.5t11.5 -12.5q0 -12 -14.5 -22.5t-14.5 -26.5q0 -8 4 -15.5t4 -13.5q0 -14 -5 -26.5t-7 -24.5q0 -4 -16.5 -18.5t-16.5 -36.5q0 -20 5 -32.5t5 -27.5q0 -20 -8 -54 t-17.5 -67.5t-16.5 -63.5t-7 -40q0 -6 2 -8q0 -14 -8 -32.5t-17.5 -36t-16.5 -32t-7 -20.5t4 -12.5t4 -12.5q0 -10 -8 -18t-8 -19q0 -18 -8.5 -37.5t-16.5 -38t-15 -34.5t-7 -29q0 -4 2 -9t2 -9q0 -12 -10.5 -23.5t-10.5 -23.5q0 -70 -48 -112t-111 -42q-16 0 -34 2t-34 12 q-41 27 -72.5 50.5t-54 57.5t-34 83t-11.5 127q0 35 7 69.5t7 69.5q0 10 7.5 43t18.5 70t24.5 68.5t25.5 41.5q14 10 17.5 25.5t5.5 32t7 32t21 25.5q4 4 6 10t5 11q8 35 24 54t33 52q18 66 76 102q2 2 8 13q6 25 22.5 44t33 34.5t32.5 31t22 33.5q2 6 13.5 23.5t27 38 t30.5 36t22 15.5q6 0 18 -4q6 16 17.5 39.5t22.5 50t19.5 52.5t8.5 46q0 16 -6.5 29.5t-6.5 25.5q0 16 8.5 37t8.5 43q0 12 -2 25.5t-2 27.5q0 31 7 63t7 64q0 16 -1 37t-13 21q-10 0 -13 -8q-10 -29 -27.5 -44.5t-47.5 -15.5q-4 0 -9 4q-4 0 -9 -10t-10 -22.5t-11.5 -23.5 t-14.5 -15v4l2 -2q-4 -6 -8 -13.5t-10 -11.5q-16 -4 -29.5 -16.5t-24 -24.5t-21.5 -23.5t-23 -15.5q-23 -8 -32 -27.5t-24 -33.5q-16 -16 -28.5 -25.5t-28.5 -32.5q-4 -12 -16.5 -39.5t-32 -56.5t-44 -52.5t-50.5 -29.5q-94 0 -146.5 51.5t-52.5 143.5q0 41 11 63.5t18 46.5 q6 29 17 55.5t22 53.5q10 25 33.5 39t33.5 43q4 14 15.5 27.5t24.5 25.5t24.5 24.5t17.5 28.5q8 23 36 52.5t66.5 57.5t81.5 46t82 18q31 0 58.5 -4t56.5 -10q35 -8 60.5 -32.5t50.5 -24.5q14 0 26 18q29 29 31 41t24 12q23 0 55 -5t59.5 -19t47 -37t19.5 -59 q0 -31 -12.5 -71t-27 -84t-26.5 -91t-12 -90q0 -20 -14.5 -39t-14.5 -39t6.5 -24.5t18.5 -4.5q20 0 35 15q4 4 23.5 14t44 20.5t51 18.5t44.5 8q8 0 23.5 -4t31 -12.5t27 -21.5t11.5 -30q0 -16 -9.5 -22t-21.5 -8t-23.5 -2t-17.5 -6q-18 -20 -43 -22.5t-47 -14.5 q-25 -14 -38 -25.5t-23.5 -21t-19.5 -18.5t-24 -17q-10 -10 -16 -11.5t-14.5 -5.5t-23.5 -18t-46 -53q-10 -10 -11 -26.5t-12 -29.5q-4 -4 -12 -20.5t-8 -20.5v2zM582 -690q-8 27 -9 41q0 14 12.5 30.5t12.5 32.5q0 57 22.5 117.5t22.5 126.5q0 29 12.5 45t12.5 33 q0 8 -9.5 15t-9.5 11q0 2 6 13q2 6 8.5 28.5t12.5 54t11 65.5t5 61q0 6 -10 13t-14 7t-12.5 -6t-17.5 -15.5t-18.5 -19.5t-13.5 -18q-53 -90 -109.5 -178.5t-103.5 -181.5t-77.5 -193.5t-30.5 -214.5q0 -45 14 -95.5t59 -68.5q20 4 40 10t38 10q12 16 22.5 30.5t22.5 27.5 q14 12 13.5 29.5t9.5 31.5q14 16 19 36.5t11.5 41t15.5 41.5t32 39zM698 852q-8 8 -13 16.5t-19 8.5q-10 0 -34 -13.5t-54.5 -33t-64.5 -43t-60.5 -44t-45 -37t-18.5 -20.5q0 -16 -20.5 -46t-42.5 -58q-6 -8 -19.5 -25.5t-26 -35t-21.5 -33t-9 -21.5q4 -10 3 -14t9 -4 q2 0 4 2q31 18 58.5 43.5t54.5 52t51.5 49t52.5 37.5q16 8 42 44t50 56q16 14 33 26.5t27 33.5q6 10 16.5 13t19.5 7t17 11.5t10 27.5zM745 -129q-8 0 -8 -6q0 -2 2 -4t4 -2q4 0 5 8q-1 2 -3 4zM530 639q-2 2 -2 3t-2 3l-4 -4q0 -8 4 -8t4 6zM610 623v4l2 -2z" />
<glyph unicode="h" horiz-adv-x="960" d="M1202 635q-45 -49 -82 -94t-67 -105q-6 -12 -17.5 -27.5t-21.5 -31t-18.5 -26.5t-8.5 -15q0 -31 -13 -63.5t-30 -55.5q-18 -27 -23.5 -56.5t-21.5 -58.5q-10 -18 -10 -43.5t-17 -42.5q-4 -4 -11 -26.5t-16 -47t-21.5 -45t-28.5 -20.5q-31 0 -59.5 10.5t-52.5 35t-41 67.5 t-24 108q-4 23 -14 39.5t-10 34.5q0 14 6 28.5t6 30.5q0 33 1 67t1 69q0 29 -11 55.5t-11 52.5q0 16 5 30.5t5 29.5q0 10 -1 29.5t-3 38t-5 32.5t-9 14q-16 0 -45 -18.5t-56.5 -42t-49 -46t-21.5 -30.5q0 2 -16.5 -18.5t-38 -50t-42 -64.5t-28.5 -62q-6 -18 -20.5 -56 t-30 -78t-29 -69.5t-17.5 -29.5q-12 0 -35.5 8t-47 21.5t-42 30t-18.5 30.5q0 31 9 60.5t20.5 59.5t20.5 60.5t9 63.5q0 14 7.5 25.5t7.5 27.5q0 6 -1 11t-1 12q0 20 11 36.5t11 36.5q0 6 -3 14.5t-3 14.5q0 23 15.5 53.5t15.5 63.5t15 58.5t15 53.5q0 6 -1 14.5t-1 14.5 q0 25 10.5 52.5t18.5 56.5q4 18 18.5 31.5t14.5 21.5t-6 16t-6 15q0 10 7 21t7 24q0 4 -1 9t-1 11q0 35 16.5 74t30.5 74q6 35 9 63.5t24 60.5l-2 -2q0 2 7 41t18.5 84t21.5 82t16 37t19 -6q20 -8 38.5 -12t33 -10.5t22.5 -16.5t8 -31q0 -10 -5 -34.5t-14.5 -55t-22.5 -61.5 t-30 -51q2 2 -6 -20.5t-17 -53.5t-17.5 -65.5t-8.5 -57.5q0 -25 -13 -42t-13 -34q0 -4 1 -9t1 -9q0 -16 -5.5 -33.5t-5.5 -34.5l-8 -17q-8 -16 -17 -38.5t-16.5 -49t-7.5 -46.5q0 -41 -12 -75t-25.5 -67.5t-26 -67.5t-12.5 -73q0 -4 1 -15.5t16 -11.5q12 0 30.5 18.5t39 42 t39 47t30.5 34.5q2 2 12.5 5t20.5 6t18 9t8 17q10 29 31 43t49 20q23 4 40.5 19.5t35.5 15.5q6 0 23 -4q43 -16 66.5 -30.5t34.5 -34t14 -45t3 -64.5q0 -100 -10 -204t-16 -206q-2 -29 -11.5 -62.5t-9.5 -58.5l6 -15q5 -15 12 -34.5t14 -36t11 -16.5q6 0 21.5 17.5t33 39 t30 42t12.5 24.5q0 12 4 18t10 10.5t12 10.5t8 16q10 55 33 103.5t58 97.5q25 35 30.5 72.5t20.5 78.5q20 18 40.5 46t40 53.5t39 44t42.5 18.5q33 0 32 -31q0 -4 -4 -20z" />
<glyph unicode="i" horiz-adv-x="540" d="M82 477q0 12 5 54t13.5 97.5t19.5 117t24.5 111.5t28.5 84t32 34q23 0 49.5 -8.5t48.5 -14.5q20 -6 37.5 -34.5t30 -65.5t18.5 -76t6 -65q0 -39 -3 -76t-7 -74q-10 -29 -8 -56.5t-8 -55.5q-2 -2 -2 -11q0 -14 1 -57t6 -89t16 -82t32 -36q8 0 12 4q66 78 118 153t75 175 q6 31 25.5 48t43.5 17q20 0 34.5 -9t14.5 -27q0 -12 -9 -26.5t-21.5 -31t-23.5 -33t-15 -32.5q-2 -6 -7 -18.5t-11.5 -27t-14.5 -28.5t-16 -21q-14 -10 -14.5 -25.5t-8.5 -29.5q-12 -27 -31.5 -48t-23.5 -42q0 -16 -21.5 -37.5t-29.5 -44.5q-8 -16 -26.5 -28.5t-40 -21.5 t-43 -14.5t-40.5 -5.5q-25 0 -53.5 13.5t-54 34t-46 46t-32.5 52.5q-6 14 -18.5 35.5t-25 44t-20.5 47t-8 47.5q0 35 -4 68.5t-4 68.5zM236 1268q0 16 6 38.5t32 22.5q18 -4 36 -6t33 -8t24.5 -16.5t9.5 -28.5q0 -35 -18.5 -69t-59.5 -34q-18 0 -30.5 10.5t-19.5 26t-10 33 t-3 31.5z" />
<glyph unicode="j" horiz-adv-x="573" d="M260 1247q39 0 67.5 -33.5t28.5 -60.5q0 -16 -9 -35.5t-21.5 -36t-27.5 -29t-28 -12.5q-16 0 -28.5 11.5t-21.5 29t-14 36t-5 30.5t2 29.5t9 33t18.5 26.5t29.5 11zM717 414q8 -4 14 -12.5t6 -18.5q0 -18 -10 -23.5t-18 -5.5q-66 -10 -128.5 -17t-129.5 -38 q-12 -6 -19.5 -29.5t-11.5 -54.5t-8 -65.5t-13 -61.5q0 -16 1 -19t1 -12q0 -25 -7 -47t-7 -45q0 -16 7 -31.5t7 -31.5q0 -27 -11 -61t-40 -60q0 -23 1 -42.5t1 -41.5q0 -23 -14 -29q0 -10 2 -17t2 -18q0 -18 -17.5 -28.5t-17.5 -30.5v-6t2 -8q0 -10 -5 -16.5t-12 -9.5 t-12.5 -5t-5.5 -6v-15q0 -14 -5 -23t-12 -16.5t-12 -14.5t-5 -15q-18 -35 -22.5 -65.5t-10.5 -58.5t-20.5 -52.5t-53.5 -48.5q0 -18 -11 -33t-22 -15q-4 0 -10 1.5t-12 1.5q-12 0 -21.5 -5.5t-19.5 -15.5q10 -18 10 -38.5t14 -35.5q0 -4 -13 -12t-31.5 -16.5t-37 -14.5 t-26.5 -6q-16 0 -23.5 11.5t-17.5 23.5q-23 0 -45.5 -5t-46.5 -5q-37 0 -50.5 11t-33.5 32q-8 0 -25.5 19.5t-36 44t-32 49t-13.5 34.5q-25 45 -32 100.5t-7 116.5q0 68 15.5 146t52.5 131q20 63 66.5 126.5t87.5 110.5q6 6 26.5 31t46 52.5t54 52t53.5 30.5q2 0 31.5 17.5 t65.5 44t65.5 57.5t29.5 57v17q0 29 1 49t1 45q0 49 -11 98t-17 99q0 6 -14.5 35.5t-14.5 52.5q0 59 25.5 98t40.5 39q23 0 50 -9.5t54 -13.5q27 -29 56.5 -79t43.5 -105q0 2 1 -35t4.5 -84t10.5 -86t19 -39q39 16 94.5 25.5t102.5 9.5q20 0 44 -8t42 -8zM8 -877q-2 4 0 7 l2 2l-2 4v-13zM92 -485l-6 8v-8h6zM100 -440q0 -2 9 -2q2 0 10 8q-4 6 -5 10t-5 4q-10 -6 -11 -14v-4q0 -2 2 -2zM78 -426q35 125 62.5 259t27.5 273q2 8 -5 17.5t-18 9.5q-6 0 -13 -6t-7 -10q-8 -16 -24.5 -27.5t-34 -21t-34 -19.5t-24.5 -26q-12 -23 -31.5 -39.5t-40 -34 t-37 -36.5t-22.5 -46q-6 -8 -9 -17.5t-13 -15.5q-84 -84 -125 -195.5t-41 -207.5q0 -39 12 -78t16 -76q16 -41 37 -63.5t41 -32.5q23 -12 47 -15q10 0 17.5 4.5t17.5 12.5q8 8 27.5 21.5t39 28.5t35 30.5t15.5 27.5q0 2 -1 5.5t-1 5.5q0 14 11 21t24.5 15.5t24.5 23.5t11 48 q0 10 -5 20.5t-5 16.5q0 8 3 14.5t3 12.5q0 10 -6 16q0 20 8.5 42t16.5 42zM170 -735q10 6 15 11t5 22q0 10 -1 25t-11 32q-14 0 -19 -23.5t-5 -33.5q0 -12 3 -25.5t9 -13.5q2 0 2 2t2 4zM240 -492q6 0 6 7q0 14 -13 26q-8 -8 -8 -14q0 -2 2.5 -10.5t12.5 -8.5zM274 -387 q4 12 5 18q0 8 -1.5 13.5t-1.5 9.5t3 10l-5 4q-6 0 -6 -4q0 -10 1 -23.5t5 -27.5zM303 -170q4 0 6 -4t8 -4q4 0 5.5 4t1.5 8q-8 0 -11 2q-2 0 -4 2q-6 0 -6 -8zM317 -299q6 0 7 14q-20 0 -21 -18q14 0 14 4zM362 -2v-2v2zM350 -43q12 0 12 8v15q0 10 -6 12q-14 -4 -14 -17 q0 -8 2 -10zM369 -143q6 6 6 18q-12 12 -13 25q-4 0 -8 -4l-4 -5v-22t6 -19q6 0 9 3z" />
<glyph unicode="k" horiz-adv-x="792" d="M219 -96q-20 8 -25.5 28.5t-21.5 30.5q-2 0 -4 17.5t-4 41l-4 47t-2 37.5q0 20 -9.5 41t-9.5 37q0 10 9.5 22.5t9.5 31.5q-4 16 -4 33.5t-2 33.5q0 25 -14.5 42.5t-14.5 43.5q0 35 2 69t6 68q0 18 13.5 31.5t13.5 28.5q0 14 -11.5 24.5t-11.5 26.5q0 6 2 13t2 14 q0 16 -4 31.5t-4 31.5q0 29 13.5 59.5t13.5 51.5q0 16 -10.5 30.5t-10.5 30.5q0 47 12.5 94t12.5 92q0 12 -4 24.5t-4 25.5q0 10 7 16t7 16t-4 17.5t-4 15.5q0 10 10 22.5t10 35.5q0 16 -8 30.5t-8 26.5t18.5 34.5t18.5 63.5q0 16 -5.5 29.5t-5.5 28.5q0 39 9.5 78.5 t9.5 78.5q0 10 -3 19.5t-3 19.5q0 6 10 12.5t24.5 9.5t30 5t27.5 2q53 0 68.5 -25.5t15.5 -93.5q0 -74 -17.5 -157t-17.5 -165q0 -18 -12.5 -50.5t-12.5 -73.5q12 -8 13 -23q0 -8 -8 -25q-16 -41 -20.5 -88t-4.5 -92q0 -20 -11.5 -31.5t-11.5 -23.5t9 -21q-4 -10 -5 -22 t-6 -23q0 -8 9 -8q8 0 38.5 40t75.5 87t97.5 87t101.5 40q27 0 45 -23.5t18 -45.5q0 -41 -24.5 -92.5t-44.5 -94.5q-25 -51 -69 -112.5t-93 -102.5q-10 -10 -16 -22q6 -29 24.5 -58.5t42 -59.5t49 -58.5t47.5 -53.5q29 -31 64 -53.5t63 -56.5q23 -23 47.5 -32t50 -17.5 t49 -22.5t46.5 -49q-16 -33 -45 -52.5t-68 -19.5q-4 0 -35.5 6t-71.5 16.5t-75 25t-43 30.5q-6 20 -22.5 26.5t-28.5 16.5q-37 37 -79 71.5t-71 82.5q-18 29 -45.5 40t-36.5 11q0 -4 -16 -21.5t-16 -27.5q0 -12 8 -15q6 0 13 -18.5t15.5 -42t13.5 -44t5 -26.5 q0 -8 -10.5 -18.5t-10.5 -14.5q0 -2 13 -8q2 0 10 -18.5t17.5 -43t16.5 -49t7 -38.5q0 -10 -3 -30.5t-12.5 -41t-23.5 -36t-39 -15.5q-23 0 -37 18.5t-14 40.5q0 10 6 23l-4 4q4 -4 6 -4zM242 782q-2 2 -11 2q-2 0 -2 -2t-2 -2q2 -2 6 -2q5 0 9 4zM580 961q-4 6 -9 6 q-20 0 -47.5 -18.5t-55.5 -45t-52.5 -58.5t-38.5 -59q-8 -14 -20.5 -34.5l-25 -41t-21.5 -40t-9 -31.5q0 -10 12.5 -16.5t28.5 -6.5q8 0 12 2q33 18 54.5 38t39 41.5t33 45t33.5 45.5q2 4 12.5 19.5t22.5 39t21.5 53.5t9.5 61zM221 399q0 14 -4 15l-16 -29l-17 -29 q0 -4 4.5 -10t8.5 -6q23 4 23.5 19.5t0.5 21.5v18zM217 170q6 12 6 25q0 12 -1 21t-9 17q-6 0 -6 -6q2 -14 2 -28.5t8 -28.5zM242 72q0 -2 -1 -3t-1 -3q0 -4 2 -7.5t4 -7.5q8 8 8 17q0 16 -8 16q-2 0 -2 -5t-2 -7zM223 283q-4 8 -6 10q-12 -4 -12 -10q0 -10 8 -11q6 1 10 11 zM219 647q0 2 3 6t3 11q0 4 -6 10q-6 -2 -6 -15v-5t6 -7zM188 442q4 4 5 7q0 6 -5 18q-4 0 -5 -5t-1 -9q0 -5 6 -11zM244 369h6l-2 6z" />
<glyph unicode="l" horiz-adv-x="604" d="M303 532q10 -10 13 -25t3 -38q0 -18 -4 -30.5t-10 -20.5t-10 -17.5t-4 -21.5q0 -6 2 -15.5t6 -9.5q2 0 5 3t7 3t6 -28.5t2 -52.5q0 -27 -5 -43.5t-11 -31t-11 -29.5t-5 -38q0 -18 -1 -32.5t-1 -34.5q0 -29 10 -53.5t47 -24.5q4 0 6 2q2 -23 2 -48.5t10 -27.5q12 0 30 47 t38.5 110.5t42 129t39.5 102.5q6 -2 14 -2t10.5 7t2.5 16.5t1 16.5t7 7q4 0 5 -12t3 -26.5t4 -27t8 -12.5q10 10 12.5 44t2.5 63q0 12 -2.5 25.5t-2.5 25.5q0 41 14.5 88t51.5 68q12 6 17.5 38.5t9.5 53.5q4 27 19 48.5t24 47.5q2 6 14 19.5t28.5 26t34 21.5t29.5 9 q10 0 21.5 -4t11.5 -12q0 -35 -28.5 -70t-53.5 -59q-18 -12 -32.5 -41t-27 -57.5t-22.5 -50t-18 -21.5q-6 0 -9.5 7t-11.5 7q-6 0 -10 -31t-5 -72.5t-2 -86t-3 -72.5q-6 -4 -12.5 -8.5t-14.5 -8.5q-4 -57 -2 -114.5t-10 -114.5q-6 0 -13.5 1t-15.5 1q-4 -8 -4 -12 q0 -8 3 -15.5t3 -17.5q0 -8 -1 -15.5t-1 -15.5q0 -4 1 -10t1 -12q-2 -53 -20.5 -97.5t-32.5 -91.5q-6 -20 -17.5 -31.5t-22.5 -18.5t-21.5 -14t-14.5 -18q-2 -6 -9 -15t-15.5 -17.5t-15.5 -13.5l-7 -5q-8 0 -14 7.5t-17 7.5q-10 0 -22.5 -5.5t-22.5 -5.5q-35 4 -53 33 t-30.5 65.5t-24 71.5t-27.5 51q-8 8 -8 39q0 37 -5 53.5t-11.5 32t-11.5 38t-5 67.5q0 27 1 53.5t1 46.5q0 27 -6 49.5t-6 46.5q0 35 6 71t6 71v29.5t-2 29.5q0 14 5 18.5t12.5 5.5t12.5 2t5 11t-1 18.5t-1 18.5q2 31 3 61.5t1 61.5q0 37 -11.5 68.5t-11.5 66.5 q0 55 9.5 103.5t19.5 101.5q4 8 4 18q0 14 -3 27.5t-3 30.5q0 14 6 26t6 27q0 10 -2 21.5t-2 23.5q0 35 7.5 75t7.5 70q0 12 -1 24.5t-1 22.5q0 25 1 48.5t1 46.5t-6.5 39t-6.5 32q0 33 33 40t62 7q51 0 62 -14t11 -55t-4 -86t-8 -91.5t-8 -88t-4 -74.5q0 -8 4 -15.5 t4 -17.5q0 -2 -2 -4q-10 -20 -9 -41t-3 -43q0 -10 4 -16.5t4 -16.5q0 -6 -3 -12t-3 -10q0 -8 3 -14.5t3 -14.5q0 -12 -4 -28.5t-4 -28.5t4 -24.5t4 -25.5q0 -29 -8.5 -55t-8.5 -49q0 -10 4.5 -18.5t4.5 -18.5q0 -12 -9.5 -24.5t-9.5 -24.5t9.5 -21.5t9.5 -25.5 q-4 -39 -9.5 -58.5t-9.5 -48.5v4zM158 301q10 4 22.5 8t12.5 19q0 10 -9.5 16t-17.5 6q-14 0 -14 -26q0 -11 6 -23zM479 178q-2 -16 -2 -30.5v-30.5l4 -4q4 0 4 32v31zM606 371q-2 -14 -3 -20.5t-1 -10.5q0 -6 4 -10q0 2 1 3t1 3q0 6 -1 12.5t-1 22.5zM330 -90q-6 0 -7 -6 t-1 -10q0 -8 6 -15q2 6 4 10.5t4 10.5q0 4 -6 10zM567 203q8 8 8 10q0 6 -6 6t-10 -10q0 -6 8 -6zM270 207q0 6 -4 10q-4 -8 -4 -12t2 -6q2 2 3 4t3 4zM686 641q0 8 -4 8t-4 -4q0 -2 1 -3t1 -3q4 0 6 2zM266 408l2 4l-4 2z" />
<glyph unicode="m" horiz-adv-x="1396" d="M907 616q2 -6 4 -10t2 -8q0 -10 -7 -23.5t-16 -28t-19.5 -27.5t-14.5 -21q-23 -29 -35 -73t-24 -83q-8 -27 -19.5 -39t-11.5 -35q0 -8 -6 -24.5t-17.5 -33.5t-27 -29.5t-35.5 -12.5q-16 -2 -36.5 6t-43.5 16q-37 12 -53.5 61.5t-23.5 104t-12 98.5t-17 44 q-10 0 -24.5 -20.5t-30 -48.5t-30 -56.5t-26.5 -44.5q-8 -10 -11 -27.5t-14 -28.5q-20 -23 -33.5 -47t-31 -44.5t-41 -34t-66.5 -13.5q-18 0 -34 17q-4 2 -14.5 18t-23 39.5t-21.5 51.5t-9 50q0 31 -1 65t-1 68q0 27 1 52.5t3 52.5q4 35 22.5 64.5t18.5 78.5q0 10 -4 22.5 t-4 22.5q12 51 22.5 101.5t16.5 101.5q2 16 16 21.5t27 5.5q16 -4 39.5 -11.5t45 -18.5t36 -26.5t14.5 -36.5q0 -10 -2 -16q-27 -72 -32 -133t-26 -119q-10 -25 -8 -51.5t-14 -48.5q0 -23 9 -49.5t9 -36.5t-7 -21.5t-7 -21.5q0 -2 3 -10.5t9 -8.5q14 0 25.5 13.5t17.5 23.5 q49 78 103.5 141.5t120.5 122.5q18 2 36.5 3.5t38.5 1.5q25 0 40.5 -19.5t15.5 -46.5q0 -41 -4.5 -83t-6.5 -83q0 -6 9 -6q8 0 18 12.5t20.5 27.5t17.5 31.5t11 24.5q8 27 49 69t80 118q0 -2 9.5 16t23.5 41.5t30.5 44t30.5 25.5q14 4 21.5 14t11.5 22.5t10.5 24.5t18.5 20 q16 12 34.5 40t44 57.5t61.5 52t89 22.5q37 0 63.5 -30.5t26.5 -98.5q0 -10 -4 -18q-18 -41 -19 -100.5t-5 -112.5q0 -16 -12.5 -28.5t-12.5 -34.5q0 -14 9.5 -20.5t9.5 -16.5q0 -12 -10.5 -26.5t-10.5 -31.5q0 -8 4 -20q-4 -25 -9 -49.5t-9 -46.5q-4 -10 -11.5 -16.5 t-7.5 -14.5q0 -29 -4 -37t-20 -29q0 -66 -9.5 -124t-9.5 -119q0 -18 7.5 -34t33.5 -38q14 16 32.5 43t37 57.5t35 63.5t26.5 61q8 16 23.5 28.5t15.5 27.5q0 18 4 35.5t15.5 31.5t33 23.5t56.5 9.5q10 0 22.5 -10.5t12.5 -22.5q0 -2 -1 -3t-1 -3q-16 -25 -35 -47.5 t-36.5 -46t-29.5 -50t-18 -57.5q-2 -12 -12.5 -26.5t-22.5 -29.5t-21.5 -28.5t-9.5 -25.5q0 -4 1 -6.5t1 -6.5q0 -43 -14 -78.5t-19 -76.5q-4 -39 -27.5 -62.5t-35.5 -58.5q-4 -12 -18.5 -20.5t-32 -13.5t-36.5 -8t-32 -3q-25 0 -40 9t-27.5 24.5t-21.5 36t-19 40.5 q2 4 2 13q0 18 -7.5 32.5t-14.5 27.5t-14 25.5t-7 24.5q0 16 6 28.5t10 27.5q6 31 6 70.5v74.5t15.5 68.5t15.5 60.5q0 10 -5 19.5t-5 19.5q0 12 10 19.5t20 17.5q-4 10 -9 24.5t-5 24.5q0 35 9.5 70.5t20.5 68.5t20 58.5t9 42.5q0 25 1.5 52t1.5 56q0 23 -3.5 43.5 t-3.5 42.5q0 6 1 12.5t1 12.5q0 10 -10 10t-18 -8t-19 -8q-6 0 -10 2q-4 -23 -7 -38.5t-22 -23.5q-25 -10 -39 -36.5t-26 -58.5t-27.5 -61.5t-40.5 -48.5v2l2 -2q0 2 -4 2zM1264 352q-4 -6 -6.5 -9t-12.5 -3q0 10 4 12t11 6q2 0 2 -2q0 -4 2 -4z" />
<glyph unicode="n" horiz-adv-x="956" d="M811 -190q-10 2 -18.5 3t-12.5 1q-12 0 -35 -15q-41 0 -68.5 25.5t-45 63.5t-25.5 84t-10 87q0 16 1 30.5t1 29.5q0 23 -4 41t-4 39q0 12 6 27.5t12 30.5t12.5 25.5t6.5 14.5q0 6 -1 11t-1 11q0 4 2 10.5t2 10.5q0 10 -10.5 17.5t-10.5 19.5q0 16 6.5 35.5t10.5 38.5 q0 10 -6.5 15t-6.5 13q0 4 9 13q18 12 22 40.5t4 40.5q0 25 -4 49.5t-4 49.5q0 14 4 29.5t4 29.5q0 4 -1 10.5t-5 6.5q-6 0 -28.5 -18.5t-47 -44.5t-44 -53.5t-21.5 -45.5q-2 -12 -12.5 -35t-26 -48.5t-30.5 -49t-25 -39.5q-23 -35 -45.5 -69t-49 -59.5t-59.5 -41t-78 -15.5 q-31 0 -48 19.5t-26.5 48.5t-11.5 64.5t-2 70.5q0 43 2 76t2 70q0 12 -4 24t-4 25q0 10 5 18t5 19q0 8 -1 15t-1 17q0 53 14.5 109.5t14.5 109.5q0 10 10 20.5t25.5 18t33 11.5t31.5 4q23 0 36 -9.5t19.5 -22.5t7.5 -30.5t1 -36.5q0 -68 -2 -135t-7 -135q-4 -29 -21 -61.5 t-17 -63.5q0 -4 8 -16q18 0 40.5 25.5t48 60.5t53.5 70.5t58 58.5q16 18 33 43.5t35 48.5q12 14 31.5 27.5t38 24.5t33 20.5t18.5 15.5q16 25 45 32t55 7q35 0 53.5 -14.5t25.5 -47t7 -84v-126.5q0 -16 -7 -26.5l-14 -21t-14.5 -20.5t-7.5 -23q0 -4 2 -10t2 -12t-3 -14.5 t-3 -14.5q0 -10 11.5 -21.5t11.5 -19.5q0 -10 -12.5 -15t-20.5 -11q0 -10 4 -19.5t4 -13.5v-2q-12 -23 -15 -65t-3 -91v-54.5t1 -59t4 -47t11 -19.5q10 0 27.5 30.5t38 72.5t39 86t30.5 69q4 14 18.5 17t14.5 14q2 23 6 37t21 30q14 14 25 38t24.5 46.5t32 38t49.5 15.5 q25 0 24 -23q0 -14 -11 -37.5t-26.5 -47.5t-31 -43t-25.5 -26q-10 -14 -6 -33.5t-10 -29.5q-25 -25 -29 -52.5t-23 -47.5l-5 -17q-5 -18 -10 -38.5t-9 -37.5l-4 -16q0 -10 2 -19.5t2 -19.5q0 -31 -20.5 -51.5t-20.5 -40.5q0 -16 -2 -27.5t-19 -19.5q-2 -2 -8 -13.5 t-13 -26.5t-17.5 -31.5t-22.5 -26.5zM662 428q0 2 -5 6l-4 -4q0 -8 4 -12zM733 109h4l-2 6z" />
<glyph unicode="o" horiz-adv-x="917" d="M1102 807q0 4 4 4q8 0 22.5 -11.5t14.5 -25.5q0 -12 -18.5 -24.5t-67.5 -16.5q-53 -4 -101.5 -24.5t-93.5 -42.5q-29 -14 -47 -25.5t-29.5 -23t-16.5 -25.5t-7 -37q0 -4 -5 -32.5t-12.5 -61.5t-14.5 -60.5t-9 -29.5q-16 -10 -20.5 -25.5t-5.5 -33t-2 -36t-13 -32.5 q-10 -14 -19.5 -31.5t-28 -43.5t-49 -63.5t-85.5 -93.5l-2 2q-6 0 -20.5 -7t-32 -16t-35 -19.5l-27.5 -16.5q-33 10 -67.5 18.5t-65.5 30.5q-41 33 -74 80q-29 41 -50.5 100.5t-21.5 139.5q0 31 8.5 59.5t8.5 56.5q0 10 7 32t14 48.5t14.5 52t7.5 43.5q0 16 -9.5 39 t-19.5 48.5t-19.5 51t-9.5 48.5q0 80 15.5 126t43 69.5t67.5 29.5t92 6h98q41 0 76.5 -23.5t72.5 -35.5q20 -8 45 -26.5t46.5 -43t39 -53.5t25.5 -57q6 -25 14.5 -50.5t34.5 -25.5q6 0 19 4q78 27 152.5 53.5t156.5 30.5zM649 504q-4 20 -4 36.5t-22 16.5 q-55 -20 -111.5 -38.5t-116.5 -18.5q-31 -8 -43 -48t-12 -87q0 -8 1 -15.5t1 -15.5q0 -20 -7 -43t-7 -41q0 -16 5 -36.5t15 -41t24.5 -34t35.5 -13.5q37 0 70.5 39t61 87t49 91t36.5 53q16 10 18 45t6 64zM352 965q-6 -2 -14 -3t-19 -4q-25 -4 -43 -19t-30.5 -36.5 t-19.5 -47.5t-7 -48q0 -14 3 -38t24 -24q4 0 4 3q23 23 31 31.5t18 8.5q12 0 31 -8q4 -2 26.5 -8t47 -16.5t44 -24.5t19.5 -33q0 -14 -14.5 -36.5t-14.5 -36.5q0 -12 9.5 -15.5t17.5 -3.5q20 2 49 7t56.5 14.5t47 23t19.5 31.5q0 10 -1 18.5t-5 18.5q-18 41 -45 85t-60.5 80 t-77 58.5t-96.5 22.5z" />
<glyph unicode="p" horiz-adv-x="1011" d="M133 766q23 4 27 21.5t4 39.5q0 23 -4 42.5t-4 41.5q0 23 9 34t23 34q-4 20 -6 39.5t-2 36.5q0 16 2 37.5t9.5 40t19.5 32t31 13.5q20 0 41.5 -7.5t40 -22.5t30 -36.5t11.5 -52.5q0 -27 -9.5 -53.5t-20.5 -54t-20.5 -58.5t-9.5 -68q0 -25 -13 -59.5t-13 -69.5q0 -6 4 -13 t4 -11q0 -14 -13.5 -28.5t-13.5 -37.5q0 -2 2 -2q0 -2 2 0q4 0 4 8q-2 4 -2 10.5t-2 10.5q20 -10 37 -10q12 0 26.5 13t27 31.5t24.5 39t22 34.5q18 27 55.5 65t84.5 72.5t101 59.5t110 25q20 0 38.5 -5.5t34.5 -13.5q10 0 20.5 -15.5t28.5 -17.5l46 -59q4 -10 7 -21.5 t3 -23.5q0 -14 -1 -34.5t-4 -42t-8.5 -41t-13.5 -32.5q-14 -14 -14 -37.5t-12 -39.5q-23 -29 -44.5 -60t-31.5 -65q-8 -25 -26.5 -45.5t-37 -39t-34 -37t-17.5 -36.5q-4 -16 -16.5 -23.5t-25.5 -13.5t-23.5 -11t-10.5 -16q0 -18 -32.5 -36.5t-75.5 -34t-85 -25.5t-61 -10 q-16 0 -33.5 6t-27.5 6t-20.5 -17.5t-17.5 -45t-11 -59t-4 -60.5q0 -12 4 -23.5t4 -23.5q0 -10 -2 -22.5t-2 -22.5q0 -16 2 -37t12 -31q18 -25 22.5 -62.5t4.5 -70.5q0 -20 11 -39.5t11 -42.5v-26.5t-7 -27.5t-23.5 -21.5t-49.5 -8.5q-27 0 -47 23.5t-20 46.5 q0 29 -11.5 57.5t-11.5 57.5q0 6 1 13t1 13q0 4 -1 9.5t-1 9.5q0 12 7.5 24t7.5 23q0 14 -13.5 27.5t-13.5 33.5t-8 32.5t-8 29.5q0 12 3 23t7 24q-4 8 -4 28q0 10 1 22.5t1 24.5q0 29 -8.5 55.5t-8.5 55.5q0 41 13.5 79t13.5 77q0 12 -7 20t-7 19q0 10 8 18t8 21 q0 12 -5 24t-5 25q0 23 6 38t14.5 24t14.5 16.5t6 13.5q0 8 -9.5 19.5t-9.5 21.5q0 16 10.5 42.5t10.5 53.5q0 2 -5 21.5t-10.5 41t-9.5 40t-6 20.5zM489 694q0 -25 -6 -43t-26 -28q-8 -2 -13 -19q-12 -29 -33.5 -57.5t-42 -65.5t-36 -87t-15.5 -124q0 -31 29 -30 q66 0 129.5 36.5t116.5 71.5q18 18 44 50t51.5 75t45 94t25.5 107q4 33 13 65.5t9 67.5t-9 40t-26 5q-35 0 -66.5 -20.5t-64 -48t-63.5 -53.5t-62 -36zM254 549q-2 2 -2 3t-2 3q-12 0 -18.5 -13.5t-8.5 -23.5q0 -6 4 -6q8 0 16.5 12.5t10.5 24.5zM188 479q-2 -4 -4 -6t-2 -6 t2 -6t4 -6l7 12zM193 -37q-2 2 -3.5 4t-3.5 4q0 -2 -4 -10q0 -2 4 -6q2 2 3.5 4t3.5 4z" />
<glyph unicode="q" horiz-adv-x="1136" d="M1364 422q6 0 12 -1t6 -7q0 -14 -23.5 -39t-62.5 -37q-25 -8 -67.5 -23.5t-87.5 -56.5q-41 -37 -92.5 -61.5t-94.5 -59.5q-37 -18 -68.5 -41.5t-62 -48t-61.5 -48.5t-64 -42q-25 -12 -29.5 -50t-4.5 -73q0 -25 2 -45t2 -43q0 -20 -8.5 -38.5t-8.5 -39.5q0 -8 3 -15t3 -15 q0 -6 -6 -13q-16 -12 -16 -29.5t-2 -33.5q0 -18 -12.5 -27.5t-12.5 -23.5q0 -37 3 -73t3 -73q0 -12 -1 -30.5t-5 -40t-10 -42t-14 -36.5q-8 -14 -9 -35q0 -12 2.5 -23.5t2.5 -23.5q0 -23 -3.5 -43.5t-7.5 -40.5q-23 -12 -43 -26.5t-43 -14.5q-39 0 -59.5 30.5t-20.5 63.5 q0 29 -15 51.5t-15 57.5q0 12 2 20q25 25 25.5 59.5t9.5 81.5q8 -12 9 -25.5t2 -25.5t3 -19.5t12 -7.5q18 4 23 19q0 12 -11.5 17t-11.5 18q0 8 8.5 13t8.5 13t-3.5 15.5t-3.5 15.5q0 6 11.5 23.5t27.5 35.5q16 23 39 48q0 10 -14 17t-14 15q0 16 11 25.5t23.5 16.5 t23.5 16.5t11 25.5q0 4 -1 9.5t-1 13.5q0 4 1 7t1 7q0 18 -5 35.5t-28 17.5q-10 0 -22 -11t-23 -17q-10 0 -10 10l6 8t16.5 18.5t23 18.5t26.5 8q6 0 10 -2q8 0 8 6q0 10 -3 17.5t-3 17.5q0 12 6 29q-4 10 -7 20.5t-7 20.5h-31q-8 18 -18 36.5t-10 32.5q2 16 15 35t32 25 q37 12 85 39.5t98 58.5t100 57.5t89 34.5q10 4 18.5 13.5t18.5 13.5q45 23 83 52.5t85 49.5q29 12 61.5 29.5t64.5 34t62.5 30t57.5 17.5zM547 -504l4 4zM397 -805q-4 0 -6 -2q0 -8 4 -8l4 4q0 2 -1 3t-1 3zM414 930q14 16 32.5 36.5t42.5 20.5q12 0 25 -6q10 2 17.5 3 t17.5 1q31 0 60.5 -9t60.5 -18q14 -4 28.5 -13t27.5 -19.5t25.5 -18.5t22.5 -8q20 0 29.5 17.5t20 39t24.5 39t43 17.5q4 0 7 -1t7 -1q10 0 18.5 5t18.5 5q14 0 31.5 -9.5t33 -22.5t25.5 -26.5t10 -19.5q-10 -12 -17 -23.5t-7 -27.5q0 -35 -12.5 -40t-28.5 -9 q-4 -16 -5 -29.5t-14 -17.5q-16 -10 -20 -45t-10 -62q-2 -10 -14.5 -26.5t-27 -36t-25.5 -37t-11 -27.5t8 -13t8 -11q0 -6 -5 -13.5t-5 -13.5t4 -11t4 -12q0 -10 -10 -18t-18 -8q-10 0 -13.5 9t-13.5 28q0 -10 -1 -24.5t-3 -29t-4 -23.5t-4 -9q-6 0 -8.5 6t-2.5 13t-1 13.5 t-7 6.5q-10 0 -19 -4.5t-20 -6.5q-8 0 -10 8.5t-3 19.5t-2 19.5t-7 8.5q-2 0 -3 -15.5t-3 -34t-5.5 -35t-9.5 -18.5q-6 0 -12 4t-6 9q2 18 8 41.5t6 33.5t-7 18.5t-7 18.5t5 20.5t5 20.5t-5 25.5t-17 15.5q-10 0 -13.5 -10t-6.5 -23.5t-9 -24t-19 -10.5q-8 0 -12 7.5 t-10 7.5q-8 0 -13 -19.5t-5 -29.5q0 -2 1 -4t1 -7l-6 -15q-7 -15 -16 -33.5t-21.5 -33t-24.5 -14.5q-4 0 -6 1t-6 1q-8 -33 -25.5 -57.5t-37 -45t-35 -41t-19.5 -44.5q-4 -27 -21.5 -46.5t-40 -31.5t-49 -17.5t-51.5 -5.5q-57 0 -100 46q-10 10 -24.5 27.5t-27 36.5 t-20.5 36.5t-8 30.5q0 10 3 20t3 21q0 6 -1 12t-1 12q0 20 6 39q0 4 -1 6t-1 6q31 43 33 88q4 47 52 122t114 167q6 8 22.5 25.5t32.5 36t29.5 35t13.5 26.5q8 27 17.5 30t50.5 3zM188 315q4 -35 4.5 -55t26.5 -20q2 0 2 1t2 1q27 12 54.5 38.5t55 58.5t58.5 62.5t64 49.5 q10 6 9 16t3 18q23 35 53.5 57.5t50.5 61.5q25 47 64 82t65 78q10 16 32 29.5t22 25.5q0 8 -11.5 17.5t-29 18.5t-34.5 15.5t-30 6.5q-35 0 -77 -27t-72 -47q-41 -27 -74 -72t-80 -74q-12 -2 -20.5 -13t-13.5 -24.5t-11 -23.5t-14 -10q-4 0 -12.5 6t-16.5 6t-16.5 -10 t-14.5 -24.5t-9 -30t-3 -23.5q0 -14 -6 -22.5t-14.5 -15.5t-14.5 -14t-6 -18q0 -18 10.5 -39.5t10.5 -44.5q0 -14 -2.5 -25.5t-4.5 -15.5zM778 508q0 4 -4 5t-8 1q-20 0 -21 -20q0 -8 9 -9q6 4 13 9.5t11 13.5zM897 711v11t-4 9q-8 -4 -9 -7t-1 -7v-15.5t4 -11.5q8 8 9 10.5 t1 10.5zM752 553q4 4 4 6l-4 6q-4 0 -4 -8q0 -4 4 -4zM522 440q0 2 -1 6.5t-5 4.5q-2 0 -9 -6.5t-7 -12.5q0 -4 6 -4q10 0 16 12zM717 702l4 -2zM727 301q-6 -18 -13 -26.5t-24 -8.5q-2 0 -9 6.5t-16.5 15.5t-16.5 20t-7 22q0 8 9 11t21.5 6t26 6t21.5 14q8 0 8 -11 q0 -12 -7 -17t-14.5 -9t-14.5 -10.5t-7 -18.5q0 -2 2 -2q2 -2 4 -2h18.5t18.5 4zM487 -225q12 0 17.5 10t17.5 12q8 0 8 -8q-8 -16 -22 -16q-6 0 -11.5 1t-9.5 1zM696 170l-8 12t-4 15q0 2 3 8t7 6t4 -4q0 -10 -1 -18.5t-1 -18.5zM446 -530q0 -6 -2 -14.5t-8 -8.5 q-10 0 -10 14q4 6 16 15q2 -2 2 -3t2 -3zM662 100q0 -8 -6.5 -17t-12.5 -9q-8 0 -8 8q0 10 7 14t15 8l2 -2q1 -2 3 -2zM530 -389q0 -6 -3 -12.5t-9 -6.5q-8 0 -8 17q0 10 10 10q4 0 5 -2t5 -6zM641 209q-2 0 -6 4q0 12 14 12q10 0 10 -10zM520 -334q0 -6 -6 -6l-4 4q4 2 5 4 t5 4v-6zM485 -225q6 -16 7 -29q0 -12 -5 -29q-2 10 -2 31q0 16 2 25q0 2 -2 2zM696 170q-2 2 -2 4h4l-4 -4h2zM764 369l6 -4q-2 0 -2 -3q-2 1 -4 7zM768 371q0 -2 -2 -2h-2zM629 279h-4h4zM727 299q2 2 2 6l2 -2q0 -4 -4 -4zM598 45l-2 6z" />
<glyph unicode="r" horiz-adv-x="890" d="M84 467q8 2 15 14.5t13.5 27.5t12.5 30.5t12 21.5q-2 10 -2 29q0 27 11.5 53.5t11.5 42.5q4 57 34.5 115.5t55.5 111.5q4 8 14 30t22.5 43.5t25 37.5t18.5 16q4 0 7 -1t7 -1q16 0 32.5 4.5t33.5 4.5q25 0 38 -12.5t21 -31t13 -39t9 -36.5q0 -10 -2 -18.5t-4 -22.5 q27 35 61 69.5t38 55.5q2 12 19 31.5t42 39t52.5 32.5t54.5 13q41 0 68.5 -18t44 -46t22.5 -60.5t6 -59.5q0 -59 -15.5 -89t-60.5 -62q-14 -10 -20.5 -25.5t-10.5 -29t-9 -23.5t-17 -10q-33 0 -47.5 38.5t-20.5 84.5t-9 85t-15 39q-2 0 -2 -1t-2 -1q-31 -18 -65 -55 t-64.5 -80t-56 -88t-40.5 -82q-10 -25 -19 -50.5t-26 -47.5q-12 -18 -18 -39t-12.5 -46.5t-16.5 -62.5t-33 -90t-29 -107.5t-34 -103.5q0 2 -6 -25.5t-20.5 -60t-36 -60.5t-50.5 -28q-39 0 -54 43t-15 94q0 14 2 26.5t2 29.5q0 23 -4.5 44t-4.5 48q0 29 7.5 73t27.5 68 q0 2 1 3t1 5q0 10 -5 18.5t-5 16.5q0 14 4 31.5t8 30.5zM360 633l-4 -6h6z" />
<glyph unicode="s" horiz-adv-x="1060" d="M766 246q18 -16 18 -39q0 -39 -23.5 -62.5t-66.5 -23.5q-10 0 -18 9t-12.5 22.5t-7.5 28t-3 26.5q-31 0 -49 -12.5t-34.5 -30t-34 -35.5t-41.5 -31q-47 -23 -79 -58.5t-65 -53.5q-18 -6 -32.5 -23.5t-29 -39t-26.5 -46t-24 -43.5q-12 -20 -12.5 -42.5t-4.5 -45.5 q0 -16 16.5 -21.5t26.5 -5.5q12 0 24.5 3.5t22.5 3.5q6 0 11.5 -1t11.5 -1q16 0 23.5 9t14.5 23.5t16 26.5t28 18q43 10 59.5 50t32.5 86q8 12 20.5 29.5t24.5 37t21.5 38.5t9.5 34v-2q2 0 9 10t15 22.5t15.5 22.5t9.5 10q12 0 16 -8t6 -17.5t3 -17.5t8 -8q4 0 9 1t15 1 q14 0 15 -12q0 -25 -25 -48.5t-64 -45.5q-6 0 -11 1t-11 3l4 -4l-2 6q6 -2 22 -6q0 -33 -3 -60.5t-31 -38.5q-10 -2 -13.5 -10t-6.5 -17.5t-7 -18.5t-14 -13q-14 -6 -18.5 -18.5t-7.5 -25.5t-9 -22.5t-27 -9.5q-20 0 -28.5 -20.5t-22.5 -24.5q-18 -6 -39 -22 q-37 -29 -63.5 -35t-63.5 -6q-16 0 -26.5 -6.5t-17.5 -12.5t-13 -12t-14 -6q-18 0 -39 17.5t-37.5 41t-26.5 47t-10 37.5q0 4 13 30.5t22 49.5q0 6 8 37t24.5 69.5t43 77.5t65.5 62q12 8 21.5 19t17.5 21.5t18.5 20.5t28.5 15q23 6 40 20t29.5 29.5t21.5 27t18 11.5 q14 2 24 10t17.5 16t16.5 15.5t26 7.5q16 0 28 11t23.5 25.5t25 29t33.5 18.5q31 8 46.5 26.5t23.5 46t11 62.5t9 74q0 20 -13 38.5t-36 18.5q-8 0 -15 -2t-14 -2q-10 0 -19 5t-20 5q-20 0 -51.5 -20.5t-79.5 -34.5q-35 -10 -50 -20.5t-48 -32.5q-10 4 -18.5 9t-14.5 5 q-20 -16 -43 -29q-20 -10 -47.5 -19t-58.5 -9q-10 0 -14.5 15t-14.5 21q-49 18 -82 46t-33 73q0 4 2.5 9.5t2.5 9.5q0 10 -3.5 20t-3.5 21q0 16 8.5 31.5t8.5 31.5q2 35 18.5 59.5t38.5 44.5q8 8 22.5 23.5l29 31t25.5 27.5l11 13q6 20 18.5 29.5t28 15.5t29.5 15t20 30 q2 8 13.5 16t26 16.5t27.5 18.5t22 25q23 37 48 56t54 48q16 -4 44 -7t54.5 -10.5t47 -22.5t24.5 -42q0 -8 -4 -16t-10 -11q-43 -6 -79 -37.5t-59 -64.5q-14 -16 -32.5 -27.5t-38 -27t-37 -37t-27.5 -57.5q-4 -12 -14 -21.5t-22.5 -20t-23.5 -23.5t-18 -32q-6 -14 -21 -34.5 t-15 -32.5q0 -14 18 -15q8 0 12 2q76 20 178.5 48t221.5 28q59 0 89.5 -15t63.5 -48q8 -20 6 -42t15 -38q6 4 14 10t12 6q12 0 14.5 -27.5t6.5 -43.5q12 -2 16 -10.5t8 -16.5t11.5 -14.5t29.5 -6.5q23 0 39 9q29 14 56.5 12t56.5 8q10 -4 27.5 -6t33 -6t26.5 -11.5t11 -21.5 q0 -23 -23.5 -40t-41.5 -17q-10 0 -17.5 2t-15.5 2q-16 0 -47 -5t-62.5 -16.5t-59.5 -28t-36 -38.5q-6 -12 -22 -13q-4 0 -10.5 1.5t-10.5 1.5q-8 0 -21.5 -8.5t-26.5 -20.5t-22.5 -27.5t-9.5 -27.5q0 -4 1 -9.5t1 -9.5q0 -10 -12 -10q-6 0 -12 1t-11 1q-33 0 -32 -39 q0 -27 10 -45q-6 2 -11 5t-10 3q-8 0 -9 -4t-5 -10q29 0 32 13t7 40q0 8 -1 14.5t-1 14.5z" />
<glyph unicode="t" horiz-adv-x="1101" d="M471 580q-2 27 -12 26q-4 0 -8.5 -1t-10.5 -1t-12 12.5t-10 29t-6 32.5t-2 27q2 0 4 2q0 -2 -2 -5l2 5q-14 -14 -22.5 -23.5t-8.5 -21.5t14.5 -30t14.5 -32q0 -6 -15.5 -23.5t-15.5 -46.5q0 -10 1 -21t1 -22q0 -14 -3 -25t-15 -18v-2q0 12 -5.5 16.5t-12.5 6.5t-12 4 t-5 8q0 10 14 15.5t14 17.5q0 10 -10 18.5t-10 14.5q0 4 1 8t1 8q0 16 -3 30.5t-3 31.5q0 10 3 22t3 25q0 8 -1 17t-1 20q0 29 5 58.5t22 57.5q4 8 4 17q0 10 -6.5 17t-6.5 17q0 6 1 12.5t1 12.5q0 23 -24 23q-10 0 -13.5 -4.5t-7.5 -8.5q-23 0 -39 -9t-33.5 -20.5 t-42 -20.5t-63.5 -9q-8 0 -30.5 4t-45 13t-41 24.5t-18.5 38.5q0 8 9 13t22.5 7t27 3t23.5 3q33 6 63.5 25.5t47.5 19.5q2 0 14 9.5t30.5 21.5t44 23.5t56.5 15.5q20 4 31.5 28.5t17.5 58.5t8 71t2 65q0 14 -1 27.5t-3 28.5q18 35 37 56t59 21q51 0 67.5 -34.5t16.5 -100.5 q0 -23 -3 -41t-13 -24q2 2 6 2l-2 -4q0 2 -1 3t-1 3q14 -10 16.5 -25.5t18.5 -21.5q25 10 75 30.5t97 20.5q10 0 22.5 8t24.5 17.5t23.5 17.5t21.5 8t17.5 -13.5t17.5 -13.5q6 0 10 6.5t7 12.5t9.5 12t16.5 6q31 0 43 -12t16 -27.5t5 -28t10 -12.5q4 0 8 7q6 -12 6 -21 q0 -6 -6 -14t-14.5 -16.5t-16.5 -14.5t-10 -6q-4 0 -16.5 6t-20.5 6q-6 0 -15.5 -7t-19.5 -7q-4 0 -10 1t-10 1q-14 0 -23 -6q-49 -31 -89 -38t-91 -18l-20 -11q-21 -11 -48.5 -26.5t-51 -33t-30.5 -29.5q2 -4 3 -14q0 -10 -5.5 -21.5t-5.5 -21.5q0 -6 2 -8q-4 -39 -8 -76 t-8 -76q0 -23 -13.5 -42t-13.5 -42q0 -37 -3 -55t-9 -51zM422 758q0 2 1 3t1 3t-4 2q-2 0 -2 -6zM432 848l-2 -4q0 -6 4 -6l4 4q0 6 -6 6zM430 475q4 -4 10 -4q8 0 14.5 2t14.5 2q-6 -20 -14.5 -35.5t-8.5 -33.5q0 -8 2.5 -16.5t2.5 -16.5q0 -72 -9.5 -137.5t-9.5 -133.5 q0 -16 11.5 -26t11.5 -27q0 -10 -12.5 -18t-12.5 -25q0 -4 2 -14t8 -15q16 -10 17.5 -28.5t1.5 -39t5 -34.5t30 -14q12 0 29.5 19.5t37 47t36.5 57t30 52.5q35 66 76.5 123t84.5 119l6.5 -19.5t2.5 -13.5q0 -10 -6.5 -19.5t-22.5 -25.5q-6 -37 -6 -74q0 -35 6 -69.5t6 -65.5 q0 -25 -7 -39t-16.5 -22.5t-18.5 -16.5t-11 -20t-1 -33t-7 -21q-4 0 -8.5 3t-6.5 3q-25 0 -30.5 -4t-10.5 -26q0 -16 -13 -20.5t-17 -20.5q0 -4 -10.5 -14.5t-21.5 -20.5t-21.5 -19.5t-12.5 -9.5q-4 0 -6 1t-6 1t-11.5 -2t-7.5 -6q-4 -12 -15 -19.5t-23.5 -11.5t-23.5 -6 t-17 -2q-41 0 -72 27.5t-31 46.5q0 8 2 14q0 16 -7 32.5t-16.5 34t-16.5 33t-7 27.5q0 4 1 10.5t1 10.5q0 2 -4 13t-8 25.5t-8 28t-4 23.5q0 2 7 15t15 29.5t15.5 35t7.5 32.5q0 6 -1 12.5t-1 12.5q0 23 13 40t13 34q-4 4 -6 9t-8 5t-11.5 -10t-10.5 -21.5t-10 -21.5 t-11 -10q-4 0 -9 4t-5 8q6 10 9 26.5t6 32t7 26.5t12 11q6 0 12.5 -7t16.5 -7q6 0 16.5 9t10.5 24q0 10 -21 18h-2q14 20 14 45q0 6 -1 11t-1 12q0 6 1 12t10 10q4 0 6 -13.5t2 -35.5q0 -12 -1 -25.5t-1 -29.5q0 -39 5 -71t21 -32q4 0 8.5 10.5t4.5 16.5q0 4 -1 7t-1 7 q0 16 7 28.5t7 27.5q0 16 -10 29.5t-10 23.5q0 6 12 25.5t12 39.5q0 6 -2 12.5t-2 12.5q0 14 3 27.5t3 27.5zM377 63q0 -6 4 -6q18 0 25.5 19.5t7.5 32.5q0 8 -3 24.5t-10 16.5q-16 -8 -16 -21.5t-2 -28.5zM684 -117q10 0 12 1t2 14q0 16 -18 16q-10 0 -16 -14 q0 -12 7 -12.5t13 -4.5zM702 -33q-4 4 -9 9.5t-9 5.5q-10 0 -10 -15q0 -4 12 -12q8 0 16 12zM750 86q0 14 -5 14q-6 0 -6 -6q0 -10 6 -10q2 0 2.5 1t2.5 1zM641 -160q0 2 -4 6q-2 0 -6 -4v-8t4 -4q6 0 6 10zM692 47l4 -4q2 4 3 5t3 5q0 2 -2 3t-2 3zM469 582q10 -20 10 -33 q0 -14 -8 -23.5t-17.5 -16.5t-16.5 -15.5t-7 -18.5l2 2q-6 -4 -12 -9t-10 -5q-12 0 -13 10v36.5t9 35.5q4 -6 9 -9.5t9 -7.5q6 35 16.5 40t30.5 12zM881 446q12 8 19 21.5t15.5 27t16.5 22.5t24 9q8 0 9 -6q0 -25 -13.5 -58.5t-36.5 -33.5q-10 0 -18 7t-16 11zM1335 856 q-6 0 -12 3t-6 13q0 23 19.5 36.5t41.5 15.5q2 0 6.5 -2t4.5 -7q0 -35 -10.5 -42t-43.5 -17zM1055 614q-8 8 -8 21q0 6 6 16.5t16 10.5q14 0 14 -15q0 -6 -11 -19.5t-17 -13.5zM309 379q4 -10 8.5 -14.5t4.5 -12.5t-7 -10q-6 0 -6 9.5v27.5zM991 553q-4 8 -4 12q2 6 8 6 q10 0 11 -6q0 -4 -2 -6zM836 330q16 0 16 -8q0 -10 -14 -11q-16 0 -17 8q1 11 15 11zM1198 784q-2 4 -4 6.5t-2 4.5q0 10 10 10q8 0 8 -10q0 -4 -2 -8.5t-6 -4.5q-2 0 -2 1t-2 1zM1149 750q10 10 14 10q8 0 15 -8q0 -8 -9 -9q-4 0 -10 3.5t-10 3.5zM1147 754q-2 -6 -4 -16.5 t-8 -10.5t-7 4q0 4 7.5 9t13.5 10zM823 248l-4 -4q0 2 -1 3t-1 3t2 2t2 2q2 -2 2 -6zM348 422q0 -14 -12 -14q-2 0 -4 3t-6 5q4 4 11 4t11 2zM365 444q-2 -8 -6.5 -13t-8.5 -11l-2 2q4 6 8.5 11t8.5 11zM348 299h-2h4q-2 -2 -4 -2z" />
<glyph unicode="u" horiz-adv-x="1146" d="M788 778q-29 0 -61.5 -30.5t-62 -70.5t-49 -76t-21.5 -44q-4 -18 -18.5 -28.5t-16.5 -28.5q-16 -10 -22.5 -28.5t-12.5 -37.5q-14 -47 -29.5 -90t-39 -75.5t-58.5 -53t-88 -20.5q-29 0 -60.5 11t-57 33.5t-43 56.5t-17.5 79q0 43 -14.5 80t-14.5 77q0 33 3.5 66t7.5 66 q2 25 6 82t10 116.5t15.5 104.5t19.5 45q20 0 49 -2t54.5 -10.5t43 -26t17.5 -47.5q0 -53 -3 -94t-6.5 -81t-5.5 -85t-2 -107q0 -47 5.5 -86t21.5 -39q23 12 39 39t33 49q72 100 154.5 191.5t183.5 163.5q25 16 47 37.5t57 21.5q47 0 76.5 -5t47 -21.5t25 -48.5t7.5 -85 q0 -39 -5.5 -66.5t-11.5 -52t-11 -47t-5 -51.5q0 -18 1 -35.5t1 -36.5q0 -35 -15.5 -66.5t-15.5 -70.5q0 -6 1 -13t1 -13q-2 -35 -5 -69t-17 -67q-12 -29 -13 -55q0 -10 1 -24.5t4.5 -26.5t7.5 -21.5t12 -9.5q10 0 28.5 26.5t39 63.5t38 74t27.5 57q25 49 51.5 97.5 t61.5 93.5q8 18 18 38.5t24.5 39t31 31t38.5 12.5q10 0 22.5 -2t12.5 -19q-14 -39 -48 -81t-62 -83q-20 -39 -37 -76.5t-41 -72.5q-14 -20 -13.5 -45t-13.5 -41q-20 -25 -36.5 -70t-37 -89t-50 -75.5t-74.5 -31.5q-33 0 -67 21.5t-38 43.5q-2 14 -9 28.5t-15.5 34t-14.5 45 t-6 66.5q2 10 4 21.5t2 23.5q0 10 -3 21.5t-3 23.5q0 20 1 42t1 42q0 23 -3 46.5t-3 45.5q0 57 10 116t10 114q0 6 -1 13t-1 13q0 23 4.5 46.5t4.5 46.5q0 6 -0.5 13t-2.5 13z" />
<glyph unicode="v" horiz-adv-x="976" d="M242 -45q-16 10 -30.5 19.5t-29.5 19.5q-43 80 -51 172t-8 184q0 10 1 18.5t1 18.5q12 98 16 195.5t13 195.5q2 27 8 55.5t6 51.5q0 14 -6 28.5t-6 28.5t4 31.5t20 17.5q18 0 43 -3t48.5 -10t40 -18.5t16.5 -27.5q0 -172 -20.5 -329t-20.5 -316q0 -8 1 -19.5t9 -11.5 q6 0 19.5 19.5t28.5 45t29.5 50t22.5 35.5q12 16 20.5 38.5t18.5 32.5q31 31 31 78q0 10 -2 19.5t-2 19.5q0 12 2 25.5t2 25.5q0 20 24.5 34.5t60.5 24t79 16.5t80 17q100 25 203.5 43.5t207.5 18.5q23 0 51.5 -17.5t28.5 -38.5q0 -14 -10 -27.5t-27 -15.5 q-57 -4 -116.5 -19t-120 -33.5t-122 -39t-122.5 -33.5q-35 -8 -54.5 -25.5t-32.5 -41t-24.5 -49t-31.5 -49.5q-23 -29 -43.5 -69t-39 -85t-34.5 -91t-35 -89q-18 -41 -32.5 -65.5t-32 -37t-36.5 -15.5t-46 -3z" />
<glyph unicode="w" horiz-adv-x="1484" d="M1110 279q-12 -20 -14 -43t-6 -46q-16 -16 -28.5 -25t-20 -19.5t-11.5 -22.5t-4 -35q0 -8 1 -15t1 -16q0 -41 -9 -67.5t-22.5 -49t-29 -45t-27.5 -57.5q-10 -16 -24.5 -27.5t-30.5 -21.5q-8 4 -17.5 10t-13.5 6q-8 0 -16.5 -14t-18.5 -14q-8 0 -26.5 8t-37 20.5 t-32.5 27.5t-16 30q0 6 -6.5 10t-13.5 8t-13 11.5t-6 17.5q0 4 1 9t1 9q0 10 -9.5 17.5t-9.5 15.5q0 6 4 13.5t4 15.5q0 12 -14 17t-14 22q0 41 3 77.5t3 75.5q-2 8 -2 16.5v16.5q0 49 22 86q2 2 2 10q0 10 -2 17.5t-2 15.5q0 25 14.5 52.5t14.5 56.5q0 37 12.5 59.5 t12.5 44.5q0 12 -7.5 23.5t-7.5 23.5q0 27 8.5 57.5t12.5 59.5q0 31 -31 37q-10 -4 -24.5 -10.5t-14.5 -18.5q0 -29 -25.5 -48t-46.5 -34q-16 -6 -24 -30.5t-31 -38.5q-12 -6 -31.5 -44t-47 -79t-65.5 -75t-83 -34q-23 0 -48.5 13.5t-49.5 27.5q-16 8 -25.5 33.5t-16 57.5 t-10.5 64.5t-12 59.5q-6 12 -6 27q0 18 5 41.5t12 47t12.5 42t5.5 28.5q0 37 15 68t15 66q0 -4 7.5 35.5t21.5 88t33.5 89.5t42.5 41q16 0 32.5 -9.5t31 -23t22.5 -27.5t8 -22q0 -18 -8 -39t-17.5 -40.5t-17.5 -41t-8 -41.5q-4 -66 -21.5 -145.5t-17.5 -161.5q0 -14 5 -27.5 t9 -28.5q14 0 44 24.5t64 58.5t67.5 70t58.5 56q23 18 53.5 43t60 48.5t54 39t35.5 15.5q33 -2 63.5 -7.5t54 -17.5t36.5 -36.5t13 -63.5q0 -31 -2 -77t-7 -97.5t-15 -101.5t-29 -93q-12 -29 -15 -62.5t-9 -64.5q2 -8 2 -16v-17q0 -57 -16.5 -111.5t-16.5 -86.5 q0 -6 2 -20.5t6 -28t10 -23.5t15 -10q12 0 27.5 19.5t29.5 46t24.5 51t10.5 36.5t7 21.5t16.5 17.5t16.5 16.5t7 14.5q-2 8 -4 15.5t-2 15.5q0 6 4 14t12 8q4 0 10.5 -5t8.5 -5q-2 0 8 13.5t16 19.5q12 12 17.5 40.5t13.5 58.5t22.5 52.5t42.5 22.5l-2 2q-8 -29 -9 -54.5 t-7 -50.5q-12 0 -12 -2l4 -8q0 2 2 4q4 4 4 8q0 -16 -13.5 -31.5t-13.5 -31.5q0 -10 10.5 -14t18.5 -6zM1008 100q4 16 4 21q0 10 -2 20.5t-2 20.5q-2 -10 -3 -18.5t-1 -18.5q0 -9 4 -25zM1055 254h-4l2 -6zM1266 694q8 -8 8 -18q0 -12 -9.5 -30.5t-20.5 -38t-20.5 -35 t-9.5 -19.5q0 -6 1.5 -12t1.5 -11q0 -20 -10.5 -30.5t-25 -16.5t-29.5 -9t-26 -9l2 -2q-4 16 -8 29.5t-8 27.5q14 20 28.5 43t25 52.5t17.5 68.5t7 94q0 27 -15.5 50.5t-15.5 45.5q0 20 26.5 39t53.5 19q88 0 175 7t177 7q20 0 41 -1t38.5 -6t28.5 -17.5t11 -32.5 q0 -29 -19.5 -33t-35.5 -4q-10 0 -20.5 1t-20.5 1q-41 0 -88 -10q-25 -6 -52.5 -8t-55 -4.5t-51.5 -6.5t-40 -14q-18 -35 -26.5 -64.5t-34.5 -52.5q2 0 6 4zM1194 524v6l-4 5q0 -2 -1 -3.5t-1 -3.5q0 -4 2 -6zM1110 276q0 2 -1 3.5t-1 3.5z" />
<glyph unicode="x" horiz-adv-x="1044" d="M694 586q-4 -10 -9 -17.5t-9 -15.5q-6 -10 -14.5 -13t-15.5 -5.5t-13 -3.5t-6 -7q-10 -29 -35 -51t-43 -47q4 -8 9 -15.5t5 -17.5q0 -6 -2 -13t-2 -13l4 -9q4 -10 11.5 -23t15.5 -27.5t18 -22.5q59 -53 124 -83t136 -57q25 -8 44.5 -10t35 -6t23.5 -12t8 -29 q0 -49 -11.5 -73.5t-30.5 -34t-48 -10.5t-64 -3q-23 0 -35 13.5t-30 13.5q-2 0 -2 -1t-2 -1q-10 0 -18.5 8t-20.5 8q-4 0 -10.5 -2t-10.5 -2q-25 0 -54.5 16.5t-60 38t-61.5 45t-57 35.5q-16 6 -21.5 23.5t-23.5 17.5q-16 0 -28.5 -19.5t-29.5 -19.5q-23 -2 -36 -17 t-23 -35.5t-20.5 -42t-28.5 -36.5q4 -23 6 -42t6 -40q-31 -16 -48 -47t-26.5 -64.5t-11.5 -63t-2 -42.5q0 -16 13.5 -32.5t13.5 -32.5q0 -23 -20.5 -32t-37.5 -9q-16 0 -28.5 11t-21.5 28.5t-14 38t-5 38.5q0 43 12 101.5t51 130.5q8 18 15.5 44t14.5 50.5t18.5 44 t27.5 23.5q29 8 40 35.5t19 54.5q0 8 -7 16t-7 19q0 25 19.5 52t19.5 56q0 31 -11.5 60.5t-24.5 60.5t-24.5 59.5t-11.5 57.5q0 8 -8 30.5t-19.5 50t-21.5 56.5t-16 51q-10 35 -24.5 67.5t-24.5 67.5q-8 29 -26.5 43.5t-38 23.5t-34 15t-14.5 19q0 10 4 14q35 47 85 56.5 t114 9.5q45 0 78.5 -35t60.5 -82t44 -94.5t30 -71.5q16 -35 13 -71t13 -70q2 -6 11.5 -20.5t20.5 -31t24.5 -30t25.5 -15.5q31 0 31 27q0 10 -4 16t-4 11q14 20 28.5 24t24.5 27q10 25 36 41t36 33q10 18 16 30.5t12.5 21.5t15.5 15t27 12q10 4 24.5 21.5t32 40t38 45 t45.5 37.5q16 6 27.5 23.5t21.5 17.5q4 0 22.5 -9.5t38 -22.5t35.5 -29.5t16 -28.5q0 -16 -14 -35t-35.5 -36t-46 -32.5t-43.5 -27.5q-29 -16 -47 -41t-41 -33q-4 0 -12 -16.5t-19 -22.5q-18 -10 -29.5 -22.5t-19.5 -25t-18 -24.5t-27 -22q0 20 -8 20q-10 0 -10 -10 q0 -4 4 -7t6 -3q4 0 6 1t4 1zM223 164q-4 -4 -12 -8q-2 0 -2 2l-2 2q4 4 12 8z" />
<glyph unicode="y" horiz-adv-x="1126" d="M649 -475q-18 -18 -25.5 -42t-12.5 -49.5t-11 -51t-22 -48.5q0 -35 -19.5 -76.5t-51.5 -77.5t-74 -59.5t-87 -23.5q-37 0 -57.5 8t-35.5 19.5t-26.5 23.5t-29.5 23q-39 23 -46.5 64.5t-7.5 88.5q0 43 7.5 111.5t56.5 154.5q10 16 21.5 58.5t23.5 70.5q12 29 35.5 75 t64.5 112q8 10 17.5 20.5t17.5 22.5q10 14 20.5 35.5t20.5 41t22.5 35t24.5 19.5q27 16 39 39.5t37 44.5q41 35 63.5 94t32.5 117q4 29 23.5 50t19.5 44v8t-4 4t-13 -7t-16 -7q-8 0 -8 8q0 33 6.5 53.5t14.5 36t14 28.5t6 32q0 14 -1 37.5t-4 46t-11 38t-21 15.5 q-12 0 -20 -7t-14.5 -16.5t-10.5 -16.5t-10 -7q-16 -12 -31 -27q-12 -12 -22 -26.5t-15 -28.5q0 2 -9 -10.5t-23.5 -27.5t-29.5 -31.5t-28 -22.5q-2 -2 -10 -13.5t-17.5 -28t-17.5 -35t-10 -32.5q-4 -27 -32.5 -50.5t-53.5 -45.5q-66 6 -107.5 34.5t-66.5 71.5t-34 95.5 t-9 103.5q0 16 1 31.5t3 32.5q0 2 2 29.5t7 68.5t13.5 88t20.5 87t29.5 66.5t40.5 26.5q31 0 53 -13.5t38.5 -31.5t25 -38.5t8.5 -37.5q0 -72 -18.5 -147.5t-18.5 -145.5q0 -27 14 -26q10 0 29.5 13t40 30.5t39 36l28.5 28.5q23 27 48.5 44.5t56.5 31.5q12 6 16 13.5t6 14.5 t4 13t13 10q10 4 15 11.5t8 16.5t8 19.5t16 18.5q8 6 23.5 21.5t34 30.5t41 26.5t46.5 11.5q18 0 42 -7t44.5 -19.5t34.5 -28t14 -29.5q0 -27 -2 -53.5t-4 -53.5q-8 -29 -12 -64.5t-8 -71.5t-11.5 -68.5t-19.5 -57.5q-12 -23 -15 -53.5t-3 -58.5q0 -20 18 -21q16 0 51 21.5 t66 38.5q20 18 32.5 28.5t22.5 16.5t22.5 11t30.5 11q16 6 32.5 12.5t27.5 22.5q2 2 20.5 11t43 18.5t48 17.5t33.5 8q8 0 26.5 -3t37 -10t33 -19.5t14.5 -30.5q0 -14 -8.5 -26.5t-22.5 -14.5q-25 0 -39 -3t-26.5 -9.5t-26 -15.5t-33.5 -19q-61 -33 -123.5 -68t-118.5 -76 q-47 -27 -74.5 -51t-60.5 -47q-25 -16 -43 -33.5t-34.5 -41t-33 -58.5t-34.5 -84q-4 -10 -18.5 -14t-14.5 -21q0 -4 2 -12t6 -10q4 0 10.5 3t8.5 5q8 -27 8 -60q0 -12 -1 -24t-3 -25q-2 -16 -14.5 -22t-26 -11.5t-24.5 -13.5t-11 -26q0 -6 2 -12.5t2 -12.5q8 6 10 14.5 t4 15.5t7.5 13t19.5 6q10 0 16.5 -7t6.5 -17q0 -16 -4.5 -28.5t-6.5 -27.5q0 -4 -14 -13t-14 -28q0 -4 1 -8t1 -10q0 -4 -1 -7t-1 -7q0 -12 6 -25.5t6 -26.5l-3 -17t-8 -36.5t-11.5 -37t-14.5 -17.5q-4 0 -5 1t-5 1q-6 0 -13 -6l-2 -4q4 6 14.5 7t18.5 3zM639 -377 q-20 -2 -25.5 -7t-5.5 -24q0 -2 4 -6q16 0 19.5 15.5t11.5 23.5q0 4 -2 4q-4 0 -4 -2t1 -2t1 -2zM283 -678q0 -29 10 -48t39 -19q23 0 37 16t34 24t37 25.5t31 39.5t27.5 44.5t29.5 40.5q-4 8 -10 13t-6 14q0 14 5 24t12.5 19.5t12.5 18.5t5 24q0 6 -1 12t-1 10 q0 29 17.5 57.5t17.5 69.5q0 8 -2.5 15.5t-2.5 15.5q0 41 16.5 105.5t16.5 123.5q0 4 -3 16.5t-15 12.5q-6 0 -22.5 -20.5t-36 -48t-38 -55.5t-26.5 -44q-4 -10 -12 -18q-18 -20 -38 -48t-36 -57t-27.5 -57.5t-11.5 -53.5q0 -8 -8 -20q-10 -12 -18.5 -43t-14.5 -67.5 t-10 -75.5t-8 -66zM637 -285q-4 -4 -11.5 -9t-7.5 -9q0 -2 5.5 -5t7.5 -3l12 6t8 12q-8 4 -14 8zM645 -80q-4 2 -5 3t-5 3q-8 0 -8 -8q0 -4 6 -4q4 0 6 2t6 4zM569 -510q-8 0 -8 -6q0 -4 4 -4t4 10zM496 -664q-2 2 -2 3.5t-2 3.5q-4 -4 -5 -7q0 -6 5 -6q4 0 4 6zM694 45v6 t-4 4l-2 -2q-2 0 -2 -2q0 -6 8 -6zM565 -451q2 2 3 2t3 3l-4 4q-2 0 -4 -2zM616 -485l2 4h-2v-4z" />
<glyph unicode="z" horiz-adv-x="1150" d="M49 227q18 0 27 15l22 26q23 27 48.5 60.5t48 65.5t22.5 42q0 8 -8 13q-31 10 -42 30.5t-11 46.5q0 8 2 20.5t14 12.5q33 -16 72 -16t78.5 5t58.5 38q20 35 48 46t60 36l19 16q18 16 41.5 36.5t42 38t18.5 19.5q0 4 -6 4q-51 0 -101 -4t-97 -4q-49 0 -104.5 21.5 t-101.5 59.5t-76 89t-30 109q0 8 4 20t15 12q16 0 31.5 -18t23.5 -31q27 -43 83 -59t107 -21q61 0 123 10.5t124.5 22.5t126 22.5t128.5 10.5q74 0 137 -14q6 -2 26.5 -18.5t42 -39t38 -50.5t16.5 -50q0 -51 -32.5 -75.5t-74.5 -35t-81 -16.5t-53 -21q-14 -16 -33 -21 t-38.5 -10t-37.5 -11.5t-33 -24.5q-4 -4 -21.5 -10.5t-38 -14.5t-35.5 -18t-15 -23q0 -8 7 -11t13 -3q23 0 54.5 1t66.5 1q53 0 97 -9t44 -40q0 -16 -22.5 -21.5t-50.5 -5.5q-16 0 -32 1t-28 1q-88 -2 -163.5 -11t-155.5 -44q-14 -6 -25.5 -19.5t-21 -26.5t-18.5 -24.5 t-21 -13.5q-25 -6 -30 -21.5t-22 -31.5q0 18 -1 21t-9 7q-6 0 -6 -8q0 -4 7 -9t12 -9q-27 -16 -40.5 -32.5t-13.5 -45.5q0 -12 13 -12q51 8 117.5 25.5t117.5 17.5q6 0 11 -1t12 -1q31 0 60.5 6t62.5 6q8 0 16 -1t16 -1q10 0 22.5 3t22.5 3q18 0 43 -1t45 -5l47 -6 q48 -6 105 -21.5t104 -43t47 -72.5q0 -20 -25.5 -27.5t-39.5 -7.5q-25 0 -56.5 11t-62.5 11q-51 0 -90 -11t-80 -17q-14 0 -29.5 3t-29.5 3q-4 0 -23.5 -6.5t-46 -14.5t-55.5 -16t-53 -10q-10 -2 -37 -15.5t-64 -29t-83 -27.5t-93 -12q-37 0 -76 6t-71 26q-23 12 -43.5 36 t-37 51.5t-25.5 55t-9 52.5v16.5t2 16.5z" />
<glyph unicode="{" horiz-adv-x="718" d="M207 1135q14 14 26.5 48t33 69.5t52 63t82.5 27.5q16 0 28.5 -2t29.5 -6q12 -6 36.5 -17t49 -26.5t44 -35t19.5 -44.5q0 -10 -8 -12t-14 -2q-20 0 -44 16.5t-42 16.5q-10 0 -20.5 -3t-20.5 -3t-17.5 2t-15.5 2q-14 0 -21.5 -6t-11.5 -14.5t-9 -18.5t-13 -16 q-29 -25 -42.5 -69t-13.5 -77q0 -31 17 -67q18 -49 30.5 -100.5t12.5 -104.5t-8.5 -106.5t-16.5 -102.5q-4 -29 -21.5 -47.5t-17.5 -38.5q0 -8 6 -15q39 -31 60.5 -61.5t21.5 -77.5q0 -41 -2 -81t-2 -81q0 -23 -12 -49t-16 -51q0 -12 -3.5 -31.5t-8.5 -42t-8 -45t-3 -41.5 q0 -29 10 -59q6 -16 12.5 -43t18.5 -53.5t29.5 -46t44.5 -19.5q35 0 52 32t31.5 70.5t30 70.5t45.5 32q10 0 24.5 -4t14.5 -19q-4 -25 -14 -47t-21.5 -41.5t-21.5 -39t-12 -37.5q-2 -14 -14.5 -33t-33 -36.5t-46 -28.5t-52.5 -11q-20 0 -42.5 9t-42 25.5t-34 38t-18.5 44.5 q-4 16 -10 20q-4 2 -13.5 23.5t-19.5 48t-18 54.5t-8 44q0 14 4 26.5t4 24.5t-4 23.5t-4 21.5q0 76 11 150t11 151v22.5t-4 23.5q-2 14 -19.5 26t-38 27.5t-37 34t-16.5 45.5q0 16 9.5 35.5t29.5 33.5t37 48t28 73t17 79t6 67q0 39 -9 75.5t-20.5 70.5t-20.5 63.5t-9 58.5 q0 8 1 15t1 16q0 12 -3 23.5t-3 21.5z" />
<glyph unicode="|" horiz-adv-x="710" d="M369 467q23 -39 22 -66q0 -43 -47 -84q8 -23 29.5 -40t21.5 -39q0 -10 -13 -21.5t-13 -26.5q0 -12 6 -18q16 -25 20 -49.5t4 -50.5q0 -37 -3 -72t-3 -70q0 -14 -10 -28.5t-16 -30.5q12 -12 24 -28.5t33 -43.5q-47 -10 -89 -20t-81 -21q-25 35 -37 93.5t-12 111.5t2 100.5 t2 102.5q0 39 12 78t12 80q0 25 -4 48t-4 48q0 27 10.5 51.5t40.5 42.5q-41 41 -40 76q0 27 16 52.5t16 74.5q0 18 -5 36.5t-5 39.5q0 16 13.5 31.5t13.5 29.5q0 29 -13.5 58.5t-13.5 60.5q0 20 15.5 37.5t15.5 27.5q-23 39 -23 84q0 49 16.5 98.5t16.5 100.5q0 10 -1 22.5 t-1 22.5q0 66 10 129.5t19 128.5q59 27 94 27q47 0 66.5 -33t19.5 -98q-4 -123 -15.5 -242t-58.5 -234q-6 -10 -6 -20q0 -23 8 -44.5t8 -43.5q0 -80 -19.5 -159t-19.5 -156q0 -14 6.5 -28.5t6.5 -31.5q0 -18 -18.5 -44.5t-28.5 -49.5zM305 227q4 0 7 -1t7 -1q4 8 6.5 16.5 t6.5 18.5l-25 8q0 -10 -1 -20.5t-1 -20.5z" />
<glyph unicode="}" horiz-adv-x="663" d="M88 1280q55 35 110.5 66.5t127.5 31.5q29 0 62.5 -7t63 -25.5t49 -48t19.5 -72.5q0 -41 -18.5 -92.5t-26.5 -88.5q-12 -59 -34.5 -118.5t-45 -122t-39 -127t-16.5 -131.5q0 -39 7 -85t38 -73q16 -14 26.5 -24.5t16.5 -22.5t9 -26.5t3 -37.5q0 -16 -6 -46.5t-14 -71.5 t-14.5 -89.5t-6.5 -99.5q0 -43 -11 -84t-11 -80q0 -80 -42 -130t-120 -50q-8 0 -33.5 5t-52.5 15.5t-47.5 26t-20.5 35.5q0 16 8.5 27.5t24.5 11.5t32.5 -3t31.5 -3q20 0 41.5 11t39 26.5t29 33t11.5 31.5q0 10 -1.5 21.5t-1.5 21.5q0 16 1.5 35t1.5 37q0 72 -4.5 141.5 t-4.5 141.5q0 25 1 48t1 48q0 20 -6 40.5t-13 43t-13.5 50.5t-6.5 65q0 12 5.5 23t5.5 22q0 4 -4 16q0 55 10 105.5t22 105.5q4 23 17.5 33t13.5 26q0 6 -1 12.5t-1 12.5q0 25 17.5 61.5t37 82.5t37 99.5t17.5 112.5q0 39 -28 50.5t-63 11.5q-31 0 -57 -13.5t-49 -30 t-42 -29.5t-34 -13q-8 0 -29.5 12t-21.5 35q0 4 1 5t1 5z" />
<glyph unicode="~" horiz-adv-x="892" d="M606 604q-16 -4 -36.5 -7t-41 -9t-38 -15.5t-29.5 -27.5q-35 -23 -71 -38t-77 -15q-31 0 -58.5 16t-47 40.5t-31.5 53.5t-12 53q0 10 4 33t10 23t15.5 -16.5t21.5 -36t27.5 -36t33.5 -16.5q31 0 52 15q70 37 134 65.5t142 28.5q25 0 47.5 -13.5t40 -33t27.5 -43t10 -41.5 q0 -10 -3 -25.5t-8 -29t-13.5 -22.5t-18.5 -9q-18 0 -30.5 12t-20.5 28.5t-14.5 35t-14.5 30.5z" />
<glyph unicode="&#xa1;" horiz-adv-x="507" d="M322 668q0 -35 3 -72t3 -72q0 -23 -1 -43t-1 -41q0 -49 2 -99t2 -99q0 -2 -1 -4t-1 -5q-16 -53 -18.5 -108t-6.5 -111q-4 -41 -11 -79.5t-7 -73.5q0 -10 2 -20.5t2 -24.5q-6 -37 -5 -84t-5.5 -87t-28 -68t-74.5 -28q-23 0 -38 20.5t-15 45.5q0 51 11 98t11 94 q0 10 -2 21.5t-2 24.5q0 10 4 26q14 35 17.5 87t3.5 97q0 12 -4 24.5t-4 25.5q0 14 1 27.5t1 27.5q-2 23 -2 42v42q0 39 3 77t3 72q0 14 -1 26.5t-1 25.5q0 16 5 31.5t5 31.5q0 23 -8 44.5t-8 45.5q0 35 28 41q31 8 57.5 27.5t41.5 19.5q12 1 39 -26zM139 918 q4 33 17.5 61.5t52.5 28.5q14 -2 37.5 -10.5t45 -21.5t37 -34.5t15.5 -52.5q0 -14 -8 -25q-18 -18 -29.5 -28.5t-23 -16.5t-23.5 -7t-33 -1q-49 0 -63.5 27t-24.5 80z" />
<glyph unicode="&#xa2;" horiz-adv-x="937" d="M801 823q-45 14 -83 29.5t-67 15.5q-16 0 -25.5 -8t-12.5 -19.5t-4 -25.5t-3 -27q-25 -184 -34 -369.5t-21 -371.5q25 -12 47 -12q16 0 43 18.5t51.5 47t43 63.5t18.5 69q0 10 7 16.5t17 10.5t20.5 5t14.5 1q20 0 40.5 -2t43.5 -4q-18 -61 -47 -116.5t-71 -96.5 t-95 -64.5t-121 -23.5q-4 -37 -6 -73t-2 -72q0 -35 1 -69t3 -69q-53 8 -73.5 22.5t-27.5 43.5t-12.5 75t-25.5 117q-4 10 -16.5 18.5t-24.5 12.5q-78 25 -139.5 73t-106.5 110.5t-68.5 138t-23.5 155.5q0 49 17.5 104.5t46 112t63.5 110.5t70 103q41 59 91 104.5t128 45.5 h19t20 -2q4 39 6 74.5t6 79.5q18 -2 35.5 -3.5t32 -5.5t23.5 -14t9 -31q0 -16 -1 -30.5t-1 -30.5q0 -39 17.5 -61.5t44 -40t57.5 -33t55 -39.5q6 -8 9.5 -23.5t11.5 -38.5zM467 739q-55 -37 -85 -85t-48.5 -100t-33.5 -104.5t-42 -95.5q-10 -16 -10 -32q0 -35 12 -67 t30.5 -60.5t40 -55t40.5 -51.5q10 -14 27.5 -20.5t37.5 -16.5q4 135 21.5 267.5t17.5 267.5q0 39 -2 76.5t-6 76.5z" />
<glyph unicode="&#xa3;" horiz-adv-x="1204" d="M336 274q-16 20 -27.5 37t-11.5 37q0 10 8 22.5t8 26.5q0 12 -6 28.5t-8 33.5q-4 51 -8 100l-8 98q-49 2 -98.5 4.5t-87.5 8.5t-61.5 21.5t-23.5 45.5q0 10 1 21.5t3 25.5q72 10 141.5 17.5t141.5 17.5q8 82 16.5 155t23.5 141.5t39.5 133t63.5 129.5q23 35 73 49.5 t91 14.5q45 0 95.5 -16.5t92.5 -46t69.5 -72.5t27.5 -95q0 -90 -47 -90q-23 0 -62 19q2 10 4 21.5t2 21.5q0 27 -9 53.5t-24.5 49t-36 36.5t-44.5 14q-10 0 -24.5 -8t-28 -23.5t-23.5 -35t-10 -39.5q0 -45 -10.5 -87t-23.5 -83t-24.5 -85t-13.5 -95q0 -18 21.5 -32.5 t40.5 -14.5q53 0 106 4t107 4q25 0 55.5 -3t58 -11.5t46 -26t18.5 -43.5q0 -29 -13.5 -38t-42.5 -11q-39 -4 -77.5 -8.5t-79.5 -4.5q-23 0 -46.5 4.5t-45.5 4.5q-84 0 -135.5 -28t-51.5 -99q0 -59 -2 -115.5t-2 -116.5q0 -29 9.5 -48t39.5 -28q49 -12 102.5 -28.5 t107.5 -30.5t106.5 -23.5t101.5 -9.5q63 0 133 22.5t107 82.5q29 47 59 51q35 0 61.5 -31t26.5 -61q0 -35 -21.5 -63.5t-52 -52.5t-66.5 -41t-65 -32q-6 -6 -14 -6q-18 8 -39 8q-35 0 -65.5 -14t-65.5 -14q-23 0 -50.5 8t-58 18t-61.5 20.5t-57 16.5q-72 14 -140.5 31.5 t-142.5 17.5q-104 0 -184 -44t-162 -107q-33 25 -57.5 49t-24.5 47q0 12 25.5 37.5t63.5 53.5t83 51.5t84 31.5q16 2 34.5 7t45.5 9z" />
<glyph unicode="&#xa4;" horiz-adv-x="1034" d="M504 674q-18 -23 -32.5 -28t-26 -7t-16.5 -7t-5 -28q0 -18 -1 -56t-3 -63q27 -10 82 -13t112.5 -4t100.5 -5t43 -12q0 -29 -21.5 -51.5t-46.5 -22.5q-29 0 -89 5t-112 5q-31 0 -51 -3t-20 -11q0 -49 2 -92t4 -85l4 -84t2 -89q0 -29 -25.5 -37.5t-52.5 -8.5 q-18 2 -38.5 18.5t-20.5 35.5q0 31 -10.5 58.5t-10.5 60.5v94q0 53 -8 96t-41 43q-29 0 -53.5 -5t-52.5 -5q-29 0 -52.5 20.5t-23.5 57.5q0 27 16 26q92 0 176 15q8 23 11.5 36t3.5 29q0 10 -2 23.5t-2 23.5t1 20.5t3 20.5q0 39 -33 39q-25 0 -48.5 -4t-47.5 -4 q-29 0 -47.5 21.5t-18.5 45.5q0 20 22.5 25.5t51.5 5.5h45q29 0 50.5 4t21.5 25q0 29 -3 58.5t-3 60.5q0 37 6 72.5t6 74.5q0 18 -6 37.5t-6 40.5q0 14 1 28.5t1 30.5q0 29 -1 57.5t-1 63.5q0 49 13 91t62 42q20 0 50 -16.5t53 -28.5q35 8 67.5 17.5t67.5 9.5 q86 0 159.5 -18.5t128 -59.5t84 -106.5t29.5 -161.5q0 -59 -11 -108.5t-29.5 -89.5t-40 -71.5t-42.5 -56.5q-6 -6 -23.5 -18.5t-40 -22.5t-46 -18.5t-41.5 -8.5q-31 -4 -60.5 -20t-64.5 -16q-10 0 -27.5 3t-21.5 5zM430 807q20 -8 31 -8q-2 0 19.5 8t56 20.5t80 24.5 t92.5 22q14 0 33.5 19.5t41.5 30.5q41 23 60.5 80t19.5 112q0 115 -52 171t-144 56q-10 0 -22.5 -1t-22.5 -1q-12 0 -45 -1t-68 -8t-62.5 -21.5t-27.5 -42.5q0 -20 -3 -42t-3 -40q0 -16 4 -32.5t4 -33.5q0 -18 -4 -26q6 -16 6 -33q0 -16 -4 -34.5t-4 -37.5q0 -16 3 -31.5 t3 -31.5t-2 -36t-2 -38q0 -25 12 -45z" />
</font>
</defs>
</svg>
